<mxfile host="app.diagrams.net" modified="2024-07-18T10:48:51.035Z" agent="Mozilla/5.0 (Windows NT 10.0; Win64; x64) AppleWebKit/537.36 (KHTML, like Gecko) Chrome/126.0.0.0 Safari/537.36" etag="Fob3Hw36EMbC2XRmyW--" version="24.7.1" type="device">
  <diagram name="ページ1" id="WZC0p6EqI7H_TtYnzWE9">
    <mxGraphModel dx="2747" dy="2004" grid="1" gridSize="10" guides="1" tooltips="1" connect="1" arrows="1" fold="1" page="1" pageScale="1" pageWidth="827" pageHeight="1169" math="0" shadow="0">
      <root>
        <mxCell id="0" />
        <mxCell id="1" parent="0" />
        <mxCell id="uIYsc5EEo-gaZTBiMCS1-20" value="" style="shape=image;verticalLabelPosition=bottom;labelBackgroundColor=default;verticalAlign=top;aspect=fixed;imageAspect=0;image=data:image/png,iVBORw0KGgoAAAANSUhEUgAABDoAAASCCAYAAABTtIyhAAAAAXNSR0IArs4c6QAAAARnQU1BAACxjwv8YQUAAAAJcEhZcwAADsMAAA7DAcdvqGQAAP+lSURBVHhe7N0LYI31/wfw99nMLpjbsGVuI5lLZmimGiaUW2VSTSpREdEP+UuT5JqsX8qiIsXPKhrJpVCLhVmxUZjE5JaxFYZdzHb+z+c5z5mzOdvOLme2s/fr93s65zzn2XPux/N9n+/38wURERERERERka3Qqf+dclCvnhIRERERERERVVTz2upygo4mX/ZXzxIRERERERERVTQnn9ioBh122mUiIiIiIiIiogqPQQcRERERERER2QwGHURERERERERkMxh0EBEREREREZHNYNBBRERERERERDajUs66YmdnB0dHR9grp3Ie2uQzRETm6PV6ZGVl4caNG7h+/bq2loiIiIiIyhPjrCulFnRIcODi7AyHqlVRxd4e9spiKbUBoSyZSgMiNS0NGRkZ2jWlq3r16up9lPtKRFQc8n2VpnxPXb12DZmZmdpaK9LroVe+qnXKqYSyyn/VdTo5r61Tv8iN28l5IiIiIqJKqFSml5UDbQkPPDw8UL9ePfW8Y9WqRQo5hGwvfyd/L/uR/dVQzsv+S0O1atVwh7LP2rVqMeQgohKR7yv5rnJv0AB169Qx9AqzAjXQEMbwQvs+lP8avxvlNOdb0vS8IufviYiIiIgqmWIfocvBfoP69dXwQHpwlCbZXy1lvw2UhoQMLymJmq6uqFO7dpHDFyKiwri4uKjfg6X5/WIMKExDi+Iw/j0DDyIiIiKqbIqVIjg4OKC+cnAvp9bkUKWKGnbIaXHUrFkTrq6u2iUiotJXRb6nSinskFCipAFHXur+ZIgLEREREVElUeSgw06nQz03t1LvxZEfaTy4KbdX1GEsTk5OcK1RQ7tERGQ96vdU3brapRKwUiDBmIOIiIiIKpMiBx113dzKfBiI/GIqY+EtJfevKNsTEZVU1apVUatmTe1S0RiDiNKqS5SXcb8MPIiIiIioMihS0OHs7Ayn21TMU25bFktIXQ5rFQgkIspPjRo11GC2SKQXRxkNLZG4g2EHEREREdk6i9MAGbJS3F8rS4slty8Bh8yyQkR0O8iMLBaTgEP5brVWTw5z1LCDNTuIiIiIyIZZHHQ4OjkV/ZfKUia3L7U3CiKzIJSEo5MzWtzVCvd2C0Rg777qcl+3nmjZqrVy25b1KCGiysvFwp5nqjIMOEyVZbBCRERERFTWDEe7Uw7qm3zZXz2bH5mitTz0lLh69SouXrqkXbpV/Xr14FiE4TXyy6Yc9Nvb2aONjy+8296Nem711XXGXz2vZ2ZAn63HlStXEH/wAH7fH4vs7KycvyUiMnX+wgVcv35du2SefLvcrm8PfncRERERkS06+cRGYF5bncU9Oqw9laylpOBfQYpyP40H+46OTgh8sL/ac6NG9RpIOP4nonfuwJZN3+B7ZbmQeF5ttMi+/e/vgV4PDYBjVadcYQgRkZEl30MljRlat26tLsXBkIOIiIiIbJnhaNeCHh13eHiU+Wwr5mRlZeHvc+e0S7dq5OmpnSuYMeSQxxTYu586NCUp6Tzift2DP48ekQ3U7arXcEW/hwfD2cUFmZmZhnXVXXHi+FH8uGWjen/46ygRmbp8+TJSrlzRLt2qNL4zvvziC/X0iSefVE+Lg99dRERERNbld889GDp0KOrXr6+tyd+fx45h2rRp2qWK4/vvvsPbb7+Nn7Zv19bkT0ZfLP/0UwQrz4k1GHt0WBx0eDZsWC4OiOXA/MzZs9qlW1kadBjd3aET7u/xAJIvnMePWzerp5JxODhUQdv2vmjq1QI1a9VGdna29heGsMW1Zi3sjorEb3F7tbWWef/991GvXj3tUm6///475syZo12y3NSpU+Hu7o5x48Zpa6zv7rvvRv/+/eHl5ZUzpOnvv//Ghg0bsF15g8vjTExMLNbjsdSTSgPP39+/0Mct93XixInq/Xvttde0tQWz5P5/oTQ0v/32W/WUKo62bduq79333nsP6enp2loDqQH0yiuvYOPGjTh48KC2tuhSUlJwWVnyUxrDVkol6FAWxhxERERE1tGyZUu1PTF79myLyitIKCJtxZAKFnZ069YNiz/8EGPGjsVPP/2krb2VPAefLluGG0p7+plnntHWlq4iD10pTsjh7e2tnTOvsOvNKc2wRQqPtm7XHpnXr2NfTLQactjZ2Su3ATXg6Hp/D7jWqqUGG3K7xkVmdkm9dlX926IWKJVGuTTQZUlKSlLDDeNla4YCpUmCg5deekkNV6Kjo/HRRx+pjf1//vkHHh4e2lYlM3DgQCxdulS7VDIBAQHqL+xNmzZV7ztVbr1790b79u3xf//3f7mKG8t5WSfXyTbWVF7CBYYcRERERNZTu3Zt3LhxA3FxcdizZ0/hS0wMWtx5p/bXFceOHTswWmkfLvrgAzX0MMfYk0Pa0y+88IK21nosDjqKKjAwEG+88QaGDRumrclN1sv1999/v7am7DVq3BR13erh7JlTal0OedL1ekPPDfc7pAcLYG9fRR1vLz1JTGVnZaFGDVc0atJUW1N5jBw5EteuXVNDm2XLlqk9OKRngwQ1pdW7QXqJlFbx22bNmuHo0aNq2CGhB1VuHyhfwAcOHECrVq1ywg5jyCHr5DrZhoiIiIiILCNhx0tjxuDDsLBbwg5jyCGGP/ccMjIy1PPWZLWgQ4Z6SDjQt2/fW8IOuSzr5XrTISFlrYHHHbDT2eHc2bM5s6gYA43TJ//C3phoHNj3C879fQZ29nZqzw4JOISdWq9Ehwbud6iXS8uIESOwZMkSNTD4/PPPMXfu3Ft6Ibz55pvqdbKNXG+uQKsMZ5EeEbKNnMrl/ISGhqpDNYy6d++u/p2c5iU9LaQ7lQxRKYzcL7l/xsciw0dMyXXGxyH3UfYt5L4az8t1shSXPIY77rgDUVFR+PPPP9XuY3nJ8yvPgfF+mnuu5P4YXxe5r/I6UcUktXbk9TaGHVOmTFEXY8gh1xnr8RARERERkWXMhR23I+QQVgs65Ff+jz/+WD0vocYTTzyhnpdTuSzk+l27dqnnbwd50qUHx5Url1GlShW194a9ciohxskTxxGzOwqxv+7BgX2/qrOsuFSrphYldXZ2Ruq1a2q/76qON7u+l5Q0nqXHwa+//qoOZVm+fLna3Ul6UBhJyCFDRuQ62SY5OVntsWBKtmncuLHay0K2+fHHH3HXXXflG3ZIaFGzZk11WzFo0CB1SI28hnlJfQPpGWHuurzkfh07dkzdrzymTp065QQYQqbrNT6OM2fO5FwnPUPkvgu5zni/iqNjx47q/f3tt9+wb98+NaTJG+DIMByZVUeCF2nk1qhRQ30+jGT7oKAgNSiR+/K///1PHd5AFZcx7Pjjjz/Uz4Ys5TXkkJlVpB5H3sXI3HXFnY2FiIiIiKgkjGGH1Ozo07u3WpNDOgyUZcghrBZ0CGkMf6qlNw8//LA6VEVOhay3pLFsTTqdHa4rjZrOXe7FY8HPYshTw/H40OF4dMhQ9O73MBo3a65uJz06dvy4BScTjuPMqZP4JXonDv2+Hw5VSnfK3c6dO6sNLxkOIuT5+fLLL9XGuYQA0vNAGmTy5jE+d9Iwk7DDyHQbY1ggvRAkaJD15si+JAiQwp7SkHdxcSmwXoiEApaQ4p/Gx7Jo0SJ1uMudJmPO5DaMj0NOS2uoiim5PQkohNyG3AcJP4wkXJLgSp4jeQ5kyVuwVIIOCUvkuRaynx9++EE9T0RERERExffXiRNFXqh8U8MOqdmhtAGrV6+Okc8/X6Yhh7Bq0CG2bduGFStWqOeNxUflsqy/3TLS06DP1hvqcDg6qj08qipL9eo10LiJFwJ7PYSGjRqr2/4RfxBbN6/H9xvW4UDsr0rj2AX2VeyVFyz3rA0lIb0ITuT54BqDAAkB2rRpo57PO5RDioAaFbSNuSEuRtKIl+t79uyp9gApDdJjw1Rqaqr6HBuNHTtWvV0ZNvPiiy9qa0uPhEPynEpPDiPpOWJaBLdBgwY5PT5MyTqjOnXqqDOwmDKGSFQxSd0dGUol4Z+Ei7JILx1ZJ9eVJydPnsRbM2feshi9PG6cOvOK6XL48GHtWiIiIqLyrWmzZkVeqHyTNp/8oHzq9Gn1h+cuXbpo15Qdqwcd4rvvvssJO+RULpcH5xP/Vv5rqMshtTekS41xkVlVpOHfvGUrdVspVCqUrdVg5I6GDdX6IufPyT5sg/TUKKxXxfnz59UeJiWdvUSG0cgwGGmQSe+IkgxPyY+vr696KiGKBD+ySMNWHqPpEBqqXIwhhwQbR44cwbx589RFzpfHsEN6IcnnJO9CRERERFTeGGty2NvbqyUrZDYWcwVKra1Mgg4h4YbUjigvIYeQgqPS60CmizUllx2qOqJKFQc4a9PHShhiDDuaebXAHZ6N8U9yEk6f+ktdVxqkQZO33oaxnsS5c+fU60XeGhNSj8NIthN5g4O6devm/L05xkKhUjOloDehDEWRQKSkwYTUGTl16pS6P2MtkdImz6U8Htm36SK9NWSYjpAuVDJUx5SEOBLmGEnNBqnbYYrFSCuul19+OSfkePvtt5Genq4uct4Ydsg21pR7Dqfbp7zcDyIiIiKq+IwhhzDW5DBXoLQslFnQIaR7eHmSnp6Gw78fgEu16jmzxEjydO3aVWz/8XtsWLcasb/G3OzNoVzvVr8BOvr5w6FqVfVvZfhLaYmOjlZ7HBgb0RJoSPFWed5kCIsEAklJSeo6uU4a5NIzQgqpGsl2sr28iYy9FqRxL/U/ZP/mGPclPStkHJXsL7/CpeL7779XZzKRYSeyb/lbOZW/kVNLSHgg4Yv8rdy+MXgwMg69sXR/eclzKD1yZLaVvA4ePKjefyFDqOTXe+PsNnJfnnnmmVyh0N69e9G0adOcMEjuE4s9Vlxbt25VC48aQw4jY9gh18k2RERERERkGXMhh5Fp2NE1T7vPWiwOOmQ4R3lQWvfDOI3sod9ikfDnH6hRoyb02dlqb44MpcFzMuEYTp88gaQLiTnb3nmXNwJ794VbvQY4Gn9Y+ds4db3x+pKS3g1SNFQa/dLQHz58uNrrQXrCGMnUptIIl+EYxoZ3QkKCemok20tNCZkpRPYjdTekwW8sDJqXzLIihUONdSeMs7RIo98c2WdERIR6/sEHH1SLd8qp9Ho4dOiQur4w8maX+hnyt0899ZTZ4p4y84uENTLla1G1aNFCfUx5a28IeS4kBJEwRK6XxyKz2xjviwwLkHoiRvJ4pWeI1PaQ8/L6yP2nikmCLhmqYhpyGMk6uU62sapS+s4osfJyP4iIiIhskPxc/vfZs4YLFpBw4MKFC9qliqOgkMPIGHZ89NFHZRJ2GLoqTDmob/Jlf/VsfhrUr19gMcuyIsMmzhfw4jfy9NTOFU4CCumtIVPHdu/1IJq1aIm01GvqC5Nw7Cj+TZbb0aFm7Tpo4O6BOxp6qtPJ/vlHPKJ+3KJsl56zDyp70rNCQodx48Zpa4jKh5SUFFxWFmsy9iqSWYXK25S4RERERGTwRXi4Wl7A2KO8INKzfsGCBdgTE6OtqRjkh2kH5b5bMoWs/Aj//sKFaNO2rbamdJ18YiMwr63WQrcg6KhTu7ZVpv8sKunN8O/Fi9qlWxUl6BDGoMLOzh7tfHzh3fZuuNasZQh1tB875XrZLin5AuIP/oZD+2ORlZ3FkOM2Y9BB5ZVFQYfy/aF8gWgXyha/u4iIiIjKjqWzjlxU2rnlrdxDRVPkoMPZ2Rludetql26f5H/+QVpa/nUxihp05OXk5IxGTZuhfgMPtQuOkJ4bMkPL6ZMnS7UmB5UMgw4qr8qiRwcREREREeVW5KBDfv3zcHdXi3XeLlKf429tVpH8lDToICIqKQk5JOwozO3qWcEeHURERERki4xBh8XFSOXAOOXKFe3S7VHYL6R5p4klIrodLA0RblfYwJCDiIiIiGxZkZKBq1evFlpcxFpkuIrplJ/mMOggovKgShF7vpXV3CecY4WIiIiIKoMiJwNSI+PGjRvapbIhQ1b++fdf7VL+buewGiIio6KGrtK/QkII6TlnDcb9sh8HEREREVUGRQ46srOz1bBDTsuC3E5ScrJFDYCqDg7aOSKi26c4U3FLCGGNISXqdyeHqhARERFRJVKssR6ZmZlqUdCCZj8pDampqertyO1ZQmaGISK63aRHh3HWpqKSYKI0eneof6/tgzEHEREREVUmxS5qIQfR0rNDeltYGkRYSobGXEhKUoerWHqwX5KGBRFRaXMpZvAqvTrUYKKEvTCM+2DhUSIiIiKqbIoddBilp6cj8fx5NZhQi5Vev67W1CgK2V7+Tv5e9nMuMbHIRU9da9TQzhER3X4uLi4lqhtkGk+oca8W+sp/jQGwnOZEwabnBQMOIiIiIqqkDEfCUw7qm3zZXz1bEVWpUgUe7u7aJSKi8kFmivr34kXtEhERERERWdPJJzYC89rqStyj43aTbtludetql4iIyo9q1aqpPTuIiIiIiKjsVPigo56bGxw42woRlVN169Rh/SAiIiIiojJUoYOOunXrsgFBROWe9Dpz4ncVEREREVGZqJBBh8yw0qB+/WLPakBEVJbkO6tevXosmkxEREREVAYqXNBRzcVFDTmqVq2qrSEiqhhq1qyJ+vXqqQWUiYiIiIjIOipE0CE1OKpXr67OrFKnTh02EoiowpLhdvJdJqEHA1siIiIiotJXLoMOZ2dnuLq6qkX87vDwgHuDBqhdqxYDDiKyGTKMRXqnNbzjDrWGR03lO0+++4iIiIiIqGR06n+nHNQ3+bK/ejYvJycnOFatqvaqkF8f7e3ttWuIiIiIiIiIiKwv88YNXL9+HZnKkqEscj6vk09sBOa11eXbo0N6T9SvX1+dvlV6V8gvjQw5iIiIiIiIiKisOVSpotbsrFWrltozunbt2tDpDH038jIbdFSvVk39Q+nJQURERERERERUnkhuIWUuqjo4aGtuuiXoqKZsLMmITIdIRERERERERFQeyUiUBg0a3FLPM1eaIVdK0U8iIiIiIiIioopAJjIxlSvokCvzG+NCRERERERERFTeyMQpUlvUKCfocHR0VK8kIiIiIiIiIqpIalSvrp0zCToYchARERERERFRRWRaZ9QwTmXKQb3vtmfg4uysXiQqD7KyspCZmYkbN24gOztbvSwLERERERGZZ29vrzb45FRqMDo4OKjnqeLQ6/VFLilRnL+xRTvvWwLMa6u7OXSFPTqoHJBg48qVK/jnn39w8eJFXL16Fenp6bh+/TpDDiIiIiKiQhh/LJRjaDmWlmNqObaWY2xZT+VfcQILhhy55QQdTPnodpIv5MuXL6tLRkaGmkgSEREREVHJybG1HGPLsXZKSgp/QCxn5PUp7faPNfZZkdwcxEJ0G8iQFGPSzISZiIiIiMi6pKe0see0HIvT7WMMIqQ3Rmn3yDDur7KGHQw66LaRL1ZJlKVbHRERERERlR05BpfhLAw7bh9rDzexRoBSUTDooNtCustdunRJLTRKRERERERlT3pUy3AWDmUpW7ejl0Vl69nBoIPKnHyhSshhSXosCaRUinZ2dka1atVQo0aNnMXFxQWOjo65phEqa5V53BsRERFRZWYrx4H8AbJsyfvmdvSykNusTG0XBh1UpuTDJeMBC/uQSXFcCTPq1KmDmjVrqiGHhB0SbBgXCTqM29SqVUu93prM3efK2hWMiIiIqLLLexxYkRuRxmN0DmOxror8HqloDJ/OKQf19+0cpZ4lsibpGldQ0VH5B0MCDCcnp2KFCJJEy5c0E2kiIiIiKmvSkK3IP4RJT2r5kZGsw7L3h4Qhhm1qVHOAt2dVNKoFeNaxh1s1ZZ2jDlev65Fm54wzV+xw/GQKfj9yCZezHNS/UW5EGlWG85XQzvuWAPPaas8Agw4qA8a5vPMjH3r5Yq1SpYq2pnjkC+TatWulVuS0ov+DRURERERkqerVq6s/OlLpKkrIUd2lCh7s1ggDAxujTvZlpJw9j7TrWbhxIwvZ2XrUb9IA9Vs0BqpcR8KZOthwrQv+3LYef0b/jNQbchs3wxJzbLl9Yww6OHSFyoQxfMiPDFWR4SclDTmEfGjlC1p6hsjtlgRDDiIiIiKqTOSYvaTH0KXFy8sLr7zyCmbMmIFHHnmkVNoKt4MlbQrD1Tq0auaKT2bfj/Ej26GZhzP0uipIyQCuZ2YBNzJQu7Yj3DzrKjvNxN/nqmOd8xPIaNcF3i/PxdPP9kezWtKzXaf8L//XUO5LeXmNrYVBB5WJ1NTUAj9Mrq6uathRmiToKEndDoYcRERERFRcpd2QbNmypXbOuuR+y7H77Sa9Sp577jk0bNhQPa6/99570b17d+3asuXm5qaGLnJaHIWGHNArzzvge2d1vP2fDvCs74K/z9fF/qwHcN3hDtR2BKqgKm7U9cFlz4H40647jl5piy32fZFa0x36iym4dD0LFzs/jZED7kS7hsrrqPboqLxhh+EZ59AVsiKplyGVnPMjw1VkPGBhZHaVBg0aqIVJz549i7S0NO2a/MmHV267OFNmMeggIiIiopIorePJ9u3b49FHH8Wbb76prbE+KfhfVrMbSpjh7e2d6/akjXDPPfdolwwuXLiAAwcOaJcM/vnnH/z2228F1gEsKQ8PD/UHVGl/nDt3TltrmcLfAxI26ODpVgVvv9gCjZt7IiW1Bn6w64dDenfUOHcAra8fxr+N7kVyzeZIt3dStrZD5rXLuOFQFQ72yr7tdNBl3UCGnQvaHVmJxsc/x7wtmTh3Udm3hBn53L612zvSY3/IkCGoX78+fvjhB+zZs0e7xnpuW40O6W70wAMPqA+0ohSMlBe/SZMm+Ouvv7Q15ZcEAXfeeSfq1auHunXr4uLFizh58iQOHjyYU7Ni6NChag+KxYsXq5etTbq/5RdKSDorS0HkS693797w8fHJNV7wzJkz6odl8+bNBYYeEnLI81AU8qEXDDqIiIiIqLhKqyE5adIktGnTBrNmzcLx48e1tdYlDXv5gdHa7rrrLowcOVK7VDzSTgsLC9MulT6rBh3K9Q4OOrw17A74eNdHVcfqOKTzw+JzbZBy6TJcnZ3QsFULVHV1gv56BnTIhk5p3+js7FHFyRnIzkJ2RgZgXwV6pa2dfeIgeuyfj3PJ6Xh/+wVkZmXftqDjwQcfRM+ePdXzEkS98cYbVs8AjEGHYazAfS+92fjURvWsNUnI8eyzz6Jz586oWrUqjh49ql1TvjVv3hyNGzdWpzKVFLE8kudWxq09/vjjaNWqFRo1aqR2rfL09ETbtm1x//33q0ND5Eugb9++uOOOO7Bt2zbtr60rv+lk5UMlgUt+Hy75Mhk3bhyCg4PVx5F3TJ78bevWrdUPj3zh/P3339o1uRmT4aKmvLpBoVj3wWh0vvoVth7RVpahScu2YcbDDbDy293q5UcXrMMHozvj6ldbcRvuDhXinglhmPVUK5zbHI2z2rqycQ8mhM3CC34uWL/9oLbOPPU+vuAHl/XbUfCWREREVFpK2pCURvaTTz6pnpcf/fbu3auetzaZarYkw8At1aFDB7Ro0QKHDh1Se2skJCQUaZHeILVr11Z/SLcWaQdKD3TjDI9FVeB7QLnuQd/q6O9XF6lKc8XJpTY2Xm6HPy5XhWNWOmq710WdOi7ITk+Dg/T+UP5f1bk67JUzV/74DYk7fkDSvhhcPnUGSZczkXzdBS5n/0CLKilITsvC3ykFBwvWDDpkuI+0pYW8n3766SerT2F8qnF/YOeHM8qsRoc0NocPH64mdqdOncLWrVu1a8o/CQdSUlLUHhLt2rXT1pYfEmBICurv769eli+ITz75BG+//Tb++9//4vvvv1fTx169euGFF16waJhIaZHeFPm9maUnR34fLPkSl655EorJPnbs2IGpU6eqX/KySGC2bNkyNXiSwqMTJ05Ejx49tL++laOjo9mwhUqBVy+8POc9fLx8OZbLEjYHE/rehbz/LLp2H4E572nbKMt7M55Gh7wbWbQvV3QfMQfvGbdZ/h5mPN3hltszddeod7D84xAMtv6/1UXSN+RjLH/vZbTVLhMRERHlJb+KG3Xq1Elt1JcFOYYvzvDvojL+KCk90KWNWNRF6omUdq2/0mJJj4la1ezQu0N1ZGRmowr0uJjhiBPpNWF3PQ03lGbUhQuX8XvccaRfSVV7dDg5O+Pa8UM4umY5jm9YjRsnDsEp5Ryy/9gD3f5tuJqShuuNvND4Lj0eDnCFq0v+TX5rhhxC2nBxcXFqIPXZZ5+V6YiOMgk65M07YsQItYCOhBwff/wxMqR7TQUhH3AZ9yVhh4xVK29hx4ABA9Sk7MSJE3j33Xfxv//9T+0tk5ycrPZy+PHHH7FgwQL1DSapmiSSZSW/11k+9AVNWzV69Gi1F42MuXv99dexZMkS9fEZyX4ltZ0wYQK2bNmirpOwRx6fOfLlJ72IyHLdJy3Guq/m4FHtslnOvfB/E4Ph65aJI2vex7z3w7EzuSbaPTYRU5501zZSNrt3At565j7UvLwT4e/Pw9Ktx4HGPTDurRHIecUs2pcz7p3wFp65ryYu7wzH+/OWwrCrcXhrhPnXHmiL3q3ckHp8J76WEU53PYmQ997By7mHfJY958HwbeyAc7Fr2LuCiIjIRklDsiQ/tskPel27dlXPy1BsaVcZhwKUhYrUZiuPLAkS7mpYFQ3rOqrTx9ojG1ftauPfcxegz8yAg2tttQeHk7Oj8l5wUtedWr8KCWs+heuRX9E5+U+MG/kU3nr9VbRv3xb49yx0f/yMP5KrIlVXCy2Vfd95h6N2S2VP3j/h4eFqyYSyHs1h9aCjooccRuU17JAhKFKBWOpVyHObd8yYdDeTEES2i46OLvNeDfmldhI65PfBl14/Unjo+vXrmDdvnlpjxOixxx7Dhx9+qBa2EfK6SDq4a9cu9b0m9UfyI706LGXtdLMiqO3ujuqFhUM9/NDcRYKJN/Du5jj8EbcNy6YvRuxlBzRu11vrZeGOx/q1Q83LsVg8fRm2xf2BXV/Mwrytp5Dp5ovHjMWzLdmX+2Po164mLscuxvRl2xD3xy58MWsetp7KhJvvYzBbh7t7P7SqeRlHNm03XK7pAY+aLii7fk3muT/mi+Y4jtg1idoaIiIiskUlOa6UWUZk+LYU4pcGowgMDLxlSLe1lOUv8NK+KsrxekVgSdurbVMn2FexUwuMytbZemdc+ekL2B+MBJLPAmlX4ZR5Ff/8uhN/ffkpLuyNhl8nXwx7MBDtj+9D1qFYtXDr3a1a4uLZU3BI+wdJif8i6qg9XKrYo1Pzgrs0l3X7sKxYNeiwlZDDqDyGHQEBAeqpDE8x90UkAceoUaPURUKAsm7A5/fBKah7mRQeFevXr1cDnLykJ4i8t0x9/vnn6ntLanZIPQ9zynLITuWSicxU02Kwyer4Qhhrorj3QzsPZe3vuXsuJH5zBOfggsa+92prRMH7cu/XDh7Kut/X5NoTvjlyDnBpjFy7Ujlj8H3N4XIuFrn+5LZri8d8PW72MiEiIqJKSQILGY4ivTSCgoLUHsoyJHvmzJn44IMP1HVCauvFxsaqswnKD5nyw98777yjDu0eM2YMnnrqKfTr1w/33XefWrOitJRFI/jKlStqO0uO42WYfXFDnLIa0lMUlrS9mtZzUA51s5GddQPO1arj0L44tG3eGC1qVoH9vs1wOfA90ravQ/KeKOD6DTg4OaOrTxts2/8bkrJ1SPvjoKFUQFYmrqvPpR7VHLIQfbYaPt5TE/a6/HvRC1v9gddqQYc0RKUmh4QcUrBFhhlIA1R6FxS23C7SS6CwRYZ9SA8DKWwpYYcU+rydpHCP3Jc///xTW5Pbv//+q34xmlvKgnxpmZM3qDDl6+urnkZFKR/mPNasWaPOpy2Py5R8Qcr4L2H8+7xKZ+xeJzz+5jKs23Tzedy0bhnmjO6OBtoWRs37TcXir9bdfM43rcOyqYY+B3c/+qZ63SbjddvWYeWC0creLdB9PN7/alPOftctm4p+eW680+NvYtm6m9uotz1nNLrn2q4TRs8xfSybsG7xJHR/dAHWKZdfal8dqN4eL6nXrcOCRwH3J2fg4+UfI6Svlgxv3orfL7ug3WP/h753Keuc3XHviHHwc7uM37d+A7UNrzToayIV547k6bmQdhyXUwGXmo0Nly3Yl69HTSD1HG7d1WXlFlxg3FUO98fgq3ylHI9dg0S1aOdyLB/dTtlSuZ3RhhofYRMMY1jc7x2BkHfCbtYHWR6GORN63Rxao3Du8LS6jeF6ZQl7By/nN527cweMmPOxst17ePnePEl63l4mkMcagnfCZHvjvudgQq88w3Gc70LfCXMQZtzm4/cQMtjcfO7OuKvvBMyRx6tu+zHeCxmM4s38TkRERNYiP1RKw/6JJ55A//791Z7a0r6QdpMMWxFSa096ZktjNjIyUl0nP+DJxAMy26IxKBk8eLD6I+jly5fVbUpDfsfypUkem8wmI8PsZei6PJ7ikNBHJjEoqJ1R1iwJitxcq+BGth7VnO1wOUWPmAMX8PzLL+P+lg2hy7iGqkobxl6nh4NzNUjlw6qOjvjzowX49fvNqKK0TfVVDT8CHz54GHr7KvKiwS7zurK9I46l1kbk3zeHk5tjzTBL2s8SXoWEhKBLly7a2rJhtVlXnn76aTWVEzJMQarpypvWkkUaXbeDn58f3N3dC11kCldjo1kKasqXUFJSknq5rD300EPq9K3mQgEhU8rKFFTmlrIg980c6ZVhLq2VKawGDRqkFhX68ssvtbU3yRe4LPHx8bfsW14b+YdBhu/s379fW5ub7Ndi3r3xROc6uPircdaVTpi0bAaGtKuOf4/+gC8//grfHU2De9N2aN/5XnRqcBTf7jbM/NLg0QV4/+UuqJN2CnvWr8DK9QeRUv0ONKh6Gt/+eARdnx6BzjiOXVvX4Kv1e/C3c0v4+nZG+0YHsO7n8+o+uj78NFoo2xhnXfHu/QQ616mO5gFKy/3AeixfuQeX6zVFixat0dn7OsK/O6Ru12nSMswY0g7V/z2KH778GF99dxRp7k3Rrn1n3NupAY4q+5N7+eiCMDzt64zEqBVYFP4djqa5o2ljZ/y1bAW2xu/FxXq+8HY+jrXvfIy1P/+MPXGnca1ZD/RoXgOXD3+PqD+lB9FZ/LI7Fa1690C3Hv3wSL8H4NvYCWe3zsPczf+o9wedemJQcwec3fk9fskVUJxFU79H0NwtVZuppPB9deo5CM0dzmLn978g966awu+R5nBLPYfN0TfnPGk7fDh6u51D9PuROHzjX5w48jv2XnCDbxsXHF8TiqUbdmLn3j9x8eoNtH7kMfjiT0R/vxZrNsXglENzdPbtilY1Y/DjgauS8mDa5AfgmXEEa5cux4aYU0DjdvDI2AyZ7KShfz/l9bmIvepj8cKT0/6DHp6p+H3pa1i4y7TbhjMGPxWMNvZHEL7iFxjmcWqNRx7zBf6Mxvdr12CTsm+H5p3h27UVasb8CLl5qPucjIEtHXBu5xp8Hr4Jv2d4wueBrvCUfwCvHs+ZdcXryWmYPLAlHM7txJrPw7Hp9wx4+jyArp7KdvZXcZyzrhAREZUb0oP58OHD6o91xppy27dvx0cffYQNGzbgm2++yem5LXUOpD6dXC/Hu+3bt8/5G2kPyBSrpd2DXto71iZD1mUEgAQ90s6S3iuWktkljbPDyAw10hYo7ZkySzLrSmE9Jvr6VIOTvQ7n02ojbOs1pN9whM+djXH8mzXIuHIVl2o3gF1WNvRK012nz0aGnR0anTmCJhlXcPe996PpkGdw7PwFrPxsJeyrOMC+aVvlaPM69Deuo6qdHroqVXH+jHLcmg9r9uiQYVYdO3ZU234Syklx0go/68qePXtyEkBpXBqn/7FkuV2kK5ili3GqUnmMRZ1LuTTJl0JRimxK2idDQwqaoaQ05ffByS9pNY7Ly288oKTb3t7eZh+zMcSw1ti+BuNHoE/jqkj8aTqGjVuAr5R/YLZ/tQDjhk3HrsSqaNzjaTyubvk4Xh/ZHtX//RUfjhuNN5dtUv4x+goLp47AiKnr1C3WTR2Gx0dPxQL1uk1YNnUZDvyrtKWbG4bt5Kt6Hfy7dRRGvLkMm5R9Lhg3G78qLf6qjTobioY2GI8RfRqjauJPmD5sHBZ8pdxHdbthmL4rEVUb98DThjuJ5rWrA/8ewOI5X6n/WH61YByGTXoHu8//ht3K5cTrstV1JMrj3L4bv50HEr+YjheGv4BZm7WGu/O9mPBWMFrhFH5aOg/zpDjokcvw6D0NM5407Y1wGcmGDjf5s3Rfl5NR2K4M7kHvVjVNhoekITHhD/yRbPjsZiYr5//4AwmJhsfyywdT8eqsJfhiW5yyPg7blnyO2GTlH8zm2melsQfcHDJxfOu72Byn/K1aQ2QS5n1juPomL/T6v3Ho3TgVv3/+Bt7NFXIonB9Bu+Z5i5D+gg+mvopZS75Qa5jIvpd8HotkeMB48+gbjB6NgXM/hWr1SaTWydt4dV4MLucaldUXwYYNEarVRPlj1xd4+9V5iMm9IREREZUT8iPk9OnTc4ZtS20OqVknQ+bzNgzlh0zxzDPPqD+4SntE6ndIL05rNyKtSR6rcHV1VU+LS3oRVCT1fHrgbI17sWxfHZw+n4Zrly/i16WL8evPu+BWzRlZ0uFCeV2z0q8pjaRMVLGvikO1GsO3XVuccHTF11HReHf+e8hKuwZ9/Wawa+4D/fU0VKliD52ybZbyNwWxZo8OKaBrJAFRWfQQMrJa0CENCJn+Ux6MJDgSfEi1VUuW20WmZbVkkWJAkjTKF4lMg5R3GEVZkllJJGW19AMt3cFkmlkfHx9tjXXlF3Tk9yaXIShCvuCKWlNDuu+J0uyuZ6p/cxkXcQy75+Sdu3wvFseraQM691MuPtoZjaoqW+5eiE2GzhlmNEe/8XPwvvIZ+WrdJmza9Do619GuKtApHF9outPfcOD8VaB6bWWPiv7Nod7L3XOUe5Xb3sXxSERVNFLvpPIP6kXl7+p0xqvvT8Kjd2tjWs6fR7532Yzu44LRrmYydoZOx4pdEhzswhdvv4Fv1JlQgk2mc3WBS3695jIzIV+/Fu9Leb/nvyuTL/LuPdDcxXR4SGFccU/fUfi/GXPUISQffzwFfqZjPU6dQ3KmA1o9MgMjerVVthZpSMuTY7SaMA7BrYAj4e/j3e2Gf7BNuT/WDo0zzRQhdb0HfUf9H2bMeQdhHyu3P8Uv11CTXu0awyHzFHauyBMGJ/yOc6YdlXop+3fIxKmdK5B7ywT8nmtDIiIiKk+kTSFDOIzDsR999FF1KEZe0rv8jTfeUE/lhz6ZddFaPeLLsn6Dsf5hSXrKy4+l0vO7Itl55CrWxlyFnUMVVLO/geRLl3HhyCF0bNUcdu4Ncf2f89BVq45a7TvCoa4bdFcvI6l6fSy45IDP4o5hw7ffI/1iMvSu9WDXqS90NT1wMV2PKwmHkZV2FZlpt+/4T4YlSd1FeU9LXZmyqPliZNUBTFI3QsIOeUAy7uzuu+/Wrqm4pDEtPQrE77//rvbuuJ2M0/RItyBLGAOOspreJ7+6GPmlzdJQNSbZbdq0UU8tZXxsx44dU09LW+1qVYGr13IPmdCcv652fwCko0nz2qiOq7h2Kr/I4FHM+WoJXunfHg1wDcd/3YWtK2Zjl7kd53X1IgocdFS7mnIXlNs2fydhuJeG3jDrJs3GUunl4d0HL4X+D5tWLsDo3EU8CtEB7TxcgOQj2JSrRZ2GzcfPAQ6N0Sqn45CZ+hnK37vVVE7UHhpF2JdLTTXMyaWDGwy7Mvb1KGoR0nvw8nsLMfqxdnBzuIzjMTvxzefzsNO0s1biF5i3eBOOXHbDfcETsXD5e5jx9D1a4KFxaIX72in3RG53m7neafkUIb3nZby3cDQea+cGh8vHEbPzG3w+bydMb97NxUH5gKQiWbucLzeZUSYTqYVuSEREROWNDDt5//33c4ZhS5iRl/ReNvZ6mDNnjjrsxVpKp8ZdwerXr48BAwaow9PF3r15f66zjPzdwoULkZxcsQ6CIjb/gazrmci8eAFpF/+BXlcF/9RqgNp3NMSvSVdg79kEjYa9iPoDgtAo+HnUuedeXL+UhKzUq3Cy06NaNSfc8GwDuweGw75mfeizbkDf5G5cOvMXLh7ei6Q/b++A5Z07d6o9jsq63Wz1Si2mYYckkhU57ChvIYfYvXu3Gg74+/sXOguMPPcy7k26u8l0rGUhvxQ4v6Ep4ueff1ZPpVaHpSmy1HaR3ipSrEl63ZiT69f+YrgmKUH1amZ7EzRQh9Jcx3XpnWXYENXy63Ywujc617mOY2ufw+MjxmGq8g/Uwq9KqVdQQbfdoKoacVxX76TYi6/eHIFHe43CO1/uQmL19hj06psYbXHW4YCCO90o10v6EHtOaZy7wK1VnoKczq3UoCP5nIzBtGxfseeUf7hc3HDrriToSJZ8wSBXEVIL9O2NdjUzcSR8El6d+jaWrFiBzbsuy83mkhb3Nd6eOgYvvSbDajLh0WM0po0yKUiceQRrZNpcjx4YN6F77hBE3FKE1KBv73aoqfxt+KRXMfXtJVixYjPM3LyywkENdHIz98Rpz30eBT7FREREVG4Ya04cOaIWilMnQejcubN6/vTp0+oxrzBuZy1l0aNDfqyUIqoytF3aKMXtkfHVV18hMdGiI79yJSUpEclHD+DCH78hK+uGWmz0mN4BHx06idRWAajWYyjSrqQhKzUT9jVrwP3hR1Dr8Zehu+8JZPsNgj7wOVTtOQxVaroh+0YmsrOzYF/HE9nVayFD2d+1zLIbLlKeWD3oEMawQ1TUsKM8hhxCxrJJQiY9JGRaqW7dut2SvErRT/lifPLJJ9XtyjJRy296KKktkl/Xpa1bt6pDWKRgjUyJa0qGQEVEROSM4ROSdL/44ovq+W+//Vbdtzn5rbfU2iPSU6QFuk7NWwm6E0Z7uwP/Hsd2ab+uPQJ1y65Tzc+iIj1DcB3XEk16fHQahOb5BSNFUcBtdxrtDXf8i+PqnTR1HFuXvYkRu04BVd3RvKu2ulC/49S5TOXD0Qr9ck0O4o4nW3kop+dw/Cfl5I+dOKU02j3aBeeawcQr2BeNkYzjO/9QLlm2rz92nsJleKBdcK49Idi3MZB8HOquFG0f84VHqnK5oLlbTVv9NR2Ui5nIvGyyvVc/tMpnmpK0RBlWswZHUpW77JE7YLz8xTyE/nQKLu2ewVsT7sXNw4/8e5nUlJQnMxO5b75VrqErP2k9W3x75T6gce51H5qb1gj76bjybDmgsW8vk9tWOPfCfbk2JCIiovJIGvzNmjVTz0uo8fjjj2PevHl46aWXMGPGDLXXs5QJEHfddZd6ai3Fneq1OOQ4XgqvVjZXUy7jctJ52FdR2nD2VVDl7p7q7CkOjdvA8Y47kZJ4AcdOXkLCgT9wfN03+OU/o3H6fx9C16ID7FveA3s3TyDruhpy6O2UfWRnKftxgK56XVzP0uO6vuyGH5kj7yFjiYGyZGgRW2HWlbxkzJlMyyrVhKXngVTCPX++KNUAbp/yGnIYyXMpVYql6rLcT6k87OXlhTvuuEOdauqRRx5RwyUZw7dq1aoyHbcmX9TGgkl5SUFRc93hpLfH33//ja5du6rTEzdq1EjtpSHrjVWpjdWkpYrvlClT1NlapIjTJ598YnZYjIQqUgCnSOPC8sy6ci3mPBp0D4CPTw/07nwHqqZVRT2/wZgwZTh83dNwYPk0LD5yTTbE+QbdEeDjgx69O+OOqmmoWs8Pg8dOwIju9vg2pib639sMDZu3R72063ALeBZTRnqj5nVnZZ83Z1kxP+vKRfz61VYYsn0Ddb1y+8dXfovd+d32hCkY7uuOtAPLMW3xEch8NZOWrcOILu5wznJGvTY98cIDndGw6lnsXrQJe5UN3LsPQkCzhmjUPAvX2z+Gh922I6HTDLw7MRjtM39A1J9pOPxvQ9zXtSVadb0PrWTq8vp+6PfMMHRr7ITLv3+F97edxg0o78/avuimfO79fN2QeTlV7QnxXA9PZPwejtD1ss0Ny/Z14RRq+3ZTvkP84OuWicupHugx+jn08MzA7+GhWH9aegp1x/Bn/OByahM+3PWXcjmP6u3R475m8PRwU76XPNC7R3XE/e6GHl0bw6NZc2Ql/4vq7R7B6OfawSXTCU6p2mwm97yMd17pAQ+kIt2hJlr1Hoiurerg6pFvsG3vBZNZV37Gbwdi8G/z+9C1XVfc1zwZO6KV++4ejKcea46rez/GesM0Kje164GujT3QTHmuk/+tjnaPKM9POxdkOjkh9fh6dVaXq0ft0KqHL1r53od2NbNwJb0m2vV7BiMfkCBIuZ/GWVeuHoVdqx7wbeWrDqPJupKOmu364ZmRDyj3XWY84qwrRERE5Vnz5s1zJg6QmSvl+N54zFyzZk31GFlOpZ6d/JAXExOjXmcNUuw0v0kESos8XllkuI60AYrKOOuKNWfuLMmsK6LAnjHKdXqdHao5O8FOacdUu/t+ZHboB4embaBzdMaN86dg//2nyPhqITJ/iECHKs5or7+B5Oq1kVarPnSZ6crfK+8P5XXSKU0dXfYNuFSvhion9+HCubPIts+/T6+0jazZa0d63E+cOFH9MV56JR06ZJgl0pqMs66UWdAhjGGHNMjljVxRxk/JB0fCDik8Wt5CDiMpSipFXmS8Xu3atdWplZo2baqelw+jTNH0+eefl/kMMcagI7+AIb8ZUuR+ymOSL3cJOuQLTKaPlS9BmbZYppF9+OGH1SJN8qUjIcf8+fNzuvHlJV9K+QUu5qgfeu8+eaaX/Ru7Y/5G9UbNlX9wOqJLjwAE+LaA8/UT2PXRm5j27Wn1b8Xfu2Pwd3XZriV8uvRAQIAvGldPw+mYjdj69Y9Ia9QJ7VvfhbZdAtClZVX89d27iK/9QK5go1hBh3LZcNuN0Fz5R7GjdtstnK/jxK6P8Oa0b2G8l426DELnzu3RJUB5HF3aoqY8jqVv4r9xhml7/zqYBe+uvrirdWf1Pp7/cR321sgzveyFvdh5JBONW7ZBm3a+8G3XHJ5S42Ln55i3ZI8aqIirB2Nw1KE52rXxhd9998G3uT0uxq7F4oXbkVNuyqJ9XcXBmKNwaN4ObXz9cN99vmhufxGxaxdj4XZtT70exzO+Djj8+RL8Ym5msX8OIdXDF21atYGfXxs4nPsJP275CedrKvts0xK+fvfBr7kDTn2zGEfcuqG58hqoAYLyevr5Kferc1fldpXH0Fh5DAfW4uMP90AGA+WeXvYGTkfvxuXmXeEnYUfjZBxp1g39Pc4hKnQzDucZuXXh9/Oo2U553C3l+fFDc4dT+GbxEbh1k/E3hqADNxKw60gqmivPTyvl+ZHtWtVJxd7lG5Dp44sGxkBGue2EXUeQ2ryl8hjbGR5PqzpI3bscGzJ94NsglUEHERFRGSlOQ7JLly45terkOFeO5VevXq0uDRs2VNslxqL9Enhs3rxZPV/a5Dhefky0NmPQIY1gWws6jK99Qe8BeY9kKUsVh6qo1dAT3VrWUNoKPrisNF3s7XTQQY/sL99BjSv/wL/bIHi4N4WLsja9WnWc92iBKllZ6v712VmoYq9HehVX9HZNgD5+G/5MVq6TGyng9q0ZdMjsQfIDvJAf4WUKZGvPvGIMOgyPaspB/X07R6lny4K8EfNrkJZX0uVG3tgVhaSvEnJI1eKiNPCtQb4MzN0H+VDLfSyoS5x025MhORJumCP7lUq+GzduzPf1kduRmViK8voV5x8lKg+cMThkIfq57MRrU1dYVp+jTLTFy+9NRKtzn2PM25bOAkNEREQVXXGOKf/zn/+ovbGlQbh9+3asW7cO164Zfz4y9PKQ4SzGQqUyA4sMcSlt0mYri6BDfu3v37+/2ku9OL0lpNeAHOdPmzZNW1P65EdkYxu2qD8cF/YeMF4vvXbu7OqPZxvpcal+K+y6ow+OJpyHs2sNZOzdiju+/Qj3deyNbH0m7m/vgXWOjbC15t2ogSx1ClrH6i5wcq4Gn4w4dPrna7zz9XGcvZgtN5Bv0GHtNo/UkZS6i0Kmmp07d656m9a0874lwLy22qMq46CDKhf5kjadQ9mUJKOSRBfG09NTHfYkvTskUZUpfqX2i/RiMQ5jyY8M2ZGlKKz9oScrcX8ac+beh9RN4zGroPocZa37/yHsGQ8cCX0FH7ArBREREeVDjj9lGk7pBf/ZZ5/lW1xTGsV9+vRRAwKpX/fjjz9q15Qe+UHS3DDz0iZhyqhRo9Te28Ulz4HU8rMWawYdKi2M8PCohxFt6qJOlUyk3R2AY549EHNOh0s3AOfIleh35ih69b0Hzi7ApKutcKFOEzhmpsHZqQoaOabCP2s/ml3bjXc3nMKBv64XGHKIsmjzSA8lGXXwyy+/lMnoCAYdVKakuGh+gYSLi4u6WIOMW5TeHMX5ADPsICIiIqLiKs6xZK1atdQezfJjniXkB0Mp4F/cKVnzI8PL5cdFMpC2ijwf0qYp6g+ooijvhQbVqmBoF0/Uan0Pkqs3REZaIvZlt8MJfX00PRKNZ+qnYoe+AXbU8ka1tPOAnT3sqtfBnVf3oE3SNnyz5x+cuJChDnlRblXb661sta3DoIPKVEG9OoQkuZKSliYpSiq3KR9iIiIiIqKyVJEbklI40tpFSCsbS94Pxm0cHXSo2bEPcGdXdK8Sjbt1h3DsRlOctGuClCtZSrvJDi4Z/+CPGv6wr9MEaUmnkPpbJP7d9xPs1ZdN2j+2F2JYgkEHlbn8anUYSXIsgUdpfKlKTw5JXEsaclTkf6CIiIiI6PaoyMeQZVWbo7IxtksKf1/cDCnsqtWCs+ddCGiQiPbuV1FVaSZVdaqKzGup2HyjB45mNMSN478i7a9DyM4w1HGprD05jBh0UJmTD1VhRUEl5JAxXMWds1tuw1iTo7Q+wLb+ZUBEREREJOQYXIbD8NjXOm53u0JuX1SGoIP9kajMyAdKQoyCihoZh5tIb4zMzExtbeHk7yTckL+VIkGl+eE17sv4xUBEREREZE5FPl6UHxwZcliXPLe3+z1SWV5fBh1UpuQLVAr5FPQBk+ukcKn0/jAGF/l9IUjvEBkS8++//6pBhwQeRERERERlxfQ4taI2IuV+M+QoG/Ic366wozK9vgw6qMxJlzipKG3J8BQpYirzhv/zzz9ITk6+ZZEpigqq+1Ga+MVPRERERHlV9GNE6W1dVlPJkoHxPVORewCVdww66LaQL1JJjatWraqtISIiIiKisiTH4vIDJGdYsU0SpFTWMIXvaLptJMmUmh3Vq1dnbwkiIiIiojIix95yDC7H4jwOv32s2bPDuM/K+voy6KDbzsnJSZ2rW6aXZfctIiIiIiLrkGNtOeaWY285BqfywRphhOyzModYDDqoXJAPoRQpla5z0oWuMn8oiYiIiIhKkxxbG4epFDYxAJEtYNBB5YqDg4Paha5u3brql7AkzlK0VMYN8guZiIiIiKhgcsws9fDkGFqOpeWYWo6t5RhbjrWpYjLt+c5e8IUztBynHNTft3OUepaIiIiIiIiIqKLZed8SYF5bHXt0EBEREREREZHNYNBBRERERERERDaDQQcRERERERER2QwGHURERERERERkMxh0EBEREREREZHNYNBBRERERERERDaDQQcRERERERER2Qyd+t8pB/UPxE1QzxIRERERERERVTQ/dHgXmNdWlxN06Oe2Uc8SEREREREREVU0utcOqUEHh64QERERERERkc1g0EFERERERERENoNBBxERERERERHZDAYdRERERERERGQzGHQQERERERERkc1g0EFERERERERENoNBBxERERERERHZDAYdRERERERERGQzGHQQERERERERkc1g0EFERERERERENoNBBxERERERERHZDAYdRERERERERGQzGHQQERERERERkc1g0EFERERERERENoNBBxERERERERHZDAYdRERERERERGQzGHQQERERERERkc1g0EFERERERERENoNBBxERERERERHZDJ363ykH9fq5bdSzRERERESUv5V79Fgbp0fsKeBiqraSyrXaLoBvY2BQBx2GdTE0gUoq+tdYxB04iJNnziI1NU1bS7bCxcUZTTwbokP7tvDv7KutpfJO99ohYF5bHYMOIiIiIiIL/HYWGP+VHvtO6rU1VBF1bKLDwsd1uLuhtqKIzvydiC8jvkW1as5KA7gjWng1QfVq1bRryVZcvXYNxxJOIvrXfbh2LQ1PBA2E5x3u2rVUXhmDDg5dISIiIiIqhIQcAxZlM+SwAfIaymspr2lRScjxwcfL4d+5A0Y/Nww+7Voz5LBR8rrK6yuvs7ze8rrL608VA4MOIiIiIqJCSE8ODlOxHfJaymtaVNKTY+CDD+DeLp21NVQZyOstr7u8/lQxMOggIiIiIiqA1ORgTw7bI6+pvLaWkpocMlyFIUflJK+7vP7yPqDyj0EHEREREVEBpPAo2aaivLZSeFRqclDlJa+/vA+o/GPQQURERERUAJldhWxTUV5bmV1FCo9S5SWvv7wPqPxj0EFEREREVADW5rBdRXltZQpZFh6t3OT151TCFQODDiIiIiIiIiKyGQw6iIiIiIiIiMhm6NT/Tjmo189to54lIiIiIqKbXMdna+cor8Z1gNce1GGon6FZYQ2n/gVO/qvH6FV69XxpS1lo2W+/L09+Ax/Mf0u7RJUV3wflm+61Q8C8tjr26KDya89s6HQ66GZGayuovEj8Ikh9bYK+SNTWEBERUWVzfwsdDk63U0MOCSCstUiYIre1+WU79ZSIqDAMOoiIiKjckkbO6HA9+n2QrZ4novJjykOG01UxerSdkW3VZe53ejXwMN4mEVFBGHRUJGfCESQ9HEprYU+JSif9rzisXR6CsUN6omc7j1zvB492yrreIzHpnWVYuycel9K1PyIiuk0k2JAGjjSifj4G9DUTdsjln4/J9XptDRGVFWPvCgkjrUk+56t+MdxGkzrs0UFEhWPQQWTzLuHEd6EY2s4Dzs18EfTcbIStiUTkwdzDThIPKuu2LUPo5JEI8m+N2s4emL1Xu5KIqIwZQw5xfwvkdI03DTuM2/T7QHp86NVAhMovtbGqvEZ8nWyL8fNobXI7skivDqqc/r14CX8eP1GihSoPFiO1NVLXwj8EeGwVzq0Ohru2ukIyPpa3dkM/zV9bSUXy11pMem4MQn+SUMMd3gOCMGb4UAT6e6OZey04GbbSpOPSpXM4ER2NyA2rELZ4M0ZE6/F6F+1qE1KjwyN4LQaFn0PEkxX6XUZE5ZAxwBAScmx62fC7jPxqLI1kaejIWP2f/9Tn+iV5cbB1CyJSyUhBTzWw+keP++7UqQUsjUoj/Ghc92YPg9LGYqTmSRFP08+rtUk9EPn8l/brwWKk5d93237CZmUpqTq1a2H8qOfU0+Li+6B8YzFSIht3YsNYdG0WpIYczR5bgB9Pn8DhbxdhzKP+8L4l5BBOqFWrGTo8FIyJH25CQto5jFAaGLYk/dhmhL7UDyPXsIgqUXmVX8ghjEGGbKP27LioXUHlngwtktdTXsPge3KHEXO/NwRWJV2kV0+F5qbDrwvs8MNA7bKiSbAdTs/QYXZTbUUpWDTVDinKPp9WzjfpqMPPE3V4zM1wHVF5FLM3Tg05JJzw69Sh2MudzZupvUL+t3qdtmeyZQw6iGzQiTUj0XNgGKLhjzHhh3F49UQEet4abRTIyR3uNnbgc+nXZZi0eDMu3tBWEFU4erwzPhtPbSmjBt3BbDwwLRtrzmqXraygkMPINOyQ4oS26uQ65bkP1eOkdrnM/KHc7uRsfPyHdrmUSF2Fk/Kafa/HzuPaSs3Qe3R47aGSL/LeqMiadNPhLgfltTd57l/wBGoq/2Zt/UtbUVoygBXKyUnlNKOuDmEv6NDbcE2ZkF4Z7H1FlvozwfAB6NurB54a8miJFglL/vmXKXllwKCDyMak75mNoUOW4QT8MevnzVj0pLeZ3htERIU7+SfwSwpQvwxCT0tCDiPbH6Kix47flOe+CmBR5+rzejw1Plvtzl/Y8m2y9jf5OHlYud1M4K5S7EEgpGErQ1Ua1wbua244b2S8rqRLRX9PvHqX8p+zerxlDDrcdAjwAA4cVt4P2qpSd1CPB8L1OFlHh9nB2royIENQ5DWrnJKwZcEbeHnBDrB/adGUZLiJMP699Oog28egg8iWXI1EyKMhiIY7gsNX4fX7SvYPAhFVZnr8Eq+cNNShlaNhjbUUJeQwsumwQ2nsfqs8J0jQo5GZsEKWEdtMerPUA8Jm6nC6gGVZQ2U7Z6BJgaGV0qDer5woL8WAyeZv13VZ8XvRyOtlXCgP5Tnp0wDYuuNmL57eA3RonwUcOKXDY53zX7rleU3btzW/nXG5nKZsZI+b65T3xQfK+2n1n4bL7Q27ISq2lMOb8O7cb3BIu2wtMqRFFiJzGHQQ2Yx0RP93EkITAfdXV2HZk8209URU4fxmpoGpLnrMVK7+drPezHXKMkeP84Y9lFyKchCp7KzbnYDS/rKa4oQcRrYadhzYoTR4lcbnD2YCi9OPGbZp5WHyuO10qOlawFId+Ouc8jreVXAjNv03PT6+BCx4ycztTtXhBWWbbnUM21LpmtZVhwbn9fggRlvhpsNkb+XUAXj6KR2WFbBMamv4E6PnB5rfzri8LL11lP2brlvUV4dp2vnnDbshKrbUvxNw4mI6rD1SWGptyCKFSonyYtBBuVw6Eonwd8YiqHdXeOl00KmLB1oH9sTIycuw+UgJu3olx2Pz8kkYmWv/XujaeyRmfxGNxHRtuxKw+mMor46twqw3JNUehNBxgbdluEr6mWjDc+/vpT3vOni064mgl8Kw+Vgxn3flPRP5RRgmPdcTPdt55OzXyz8IY99Zi7hCumETVUjeZhqa2vKqcvXA7uavOz2+FEOJv/RYr5w81sF6QUJJQg4j07BD6j/IPis0pbH7jtLYHdhDh3vMhBaXkgybtW9sOLXIn8prqTzNQ1prl83SY8NG5ea9dHj8rltvt2aaHjKi4p7G7I1R6pTP8wtNgcspyBmi8vIQ5fVXTt+ZmQ3XdXpcVs6vMBduKsuA7eqf5HJZec3NbSvLJHkhU/QYYeY6WcYadkFUbtTVhpzUrVNbPTWSmhtCCpUy7KC8GHSQwV+bMXuIF2p798TQyWFYuy0R7r0CEaguzZD+UySWvTMS/bxrwyNwEtYWuSjWJUS/EwSveq3R77lQLNt2Ak49tP33cMKJbcsQEtwVHs16ImRbMRvEVn8M+ZO6GF2lAe4/G3FFCGuK+3fmxK0Lw2bltMP8EAR7GtaVmRsnsHZCTzRr1FV97ndfbaY97/5wPhiJtYvHot+d3ug5YTMsncH8ksyQEtwaHsp7pmfwWIQuj8SJ6q2194w30vasRdjkIPjW64qxG8zvVabBNQYjaugSvFZdvzb4ZmBycwlC+Bn1aqLbz8FMQ1NdZH4khQvMXKcs1UqvEXrgsNLodVYa1KVcq8GoNEIOI2PYIftUZ2OpsGGHHlu/1OPbasCrvcy9lnr8cUo5aaBDe+W9YKkDccBvymk37/zfH+kxekw9D0x7WHkfaetMXVZuVxrh7ZsYLhdHP+W1kddcTmUWFhI6fN0zz3OuvJfH3QX8EavHTCuE+dJrR3qKcHL4CuDGRexd9wlmz3hLndL05clvYfKCT7Bmv/liminHd2Hp+3MwQdv29Q+34NCV37BULv9P+VLPw7D9fEyYItsrS8h8vP2/XTghw5tMHPifXP8lDmiXb9LqjRj3fWEHZiv7mb1VEtnDhtvN57aLQmZMmfHahFtqdMh6hh2UHwYdhEvbQtC1WT+ErElD4POLsCn+ItL0Cdi99Uf8qC67kaDXI+3Ebiz9TyDwUyiC/Hti9k4LA4mr8Vj2tDe6Tl6LEy0GYcHmw7iYeQ6HI7X9Rx7Gucw0JEQuwgjvw5jd2xcj11jaHDaw+mMohFOXiQid1gHYE4Ixiy0cK5geh9D/SD0Nf8z6YCI6lKgLRhwiw+V2O2BoL+V+lKUbJxD+XFcE/fcEus7fhMNJepz73fR5T8O5yAUY1CIRkf/th6Ezo1FoprM3FL539sOkL+Lh/NgsrIpOQFqmHgnR2n7V98xFxIaPUZ69aIQN7IpJ28zstboxcNGWtobDOve2JutylmaoVUW9moiUBnXU/sKHOhSXacghhShLEnIYSdghgUlFDjtObtFjTAIwTXksTXdmY/CHevxh2uDIAHYo13fzLkLPnWzttWyrQ0B+4Uia0qD+EmjSWYchZoMtPfZLvRaljdG+mIVpjcHGZuW1vu9OHXYeUy+qVsXo1fdDSRcJUCra6/7yWB16OwK/GAMNNx02SNh0Xo/Xv8wdBtUy1tQwWfLW58iP1O0YeKd2Qdn3ZWcdpPapSqa1/W/uaW2pHEg7jM/n/hefx1yE89098UzwYDwT1A0tcQ5R4f/F2z9o3bs0aQe/xKyPtuDwdS/0CVK2De6nfOaPYtm7G3FU28ZUYuRivKlu3xh9HpXtB+PRjrWRcnAL3p3/JQ7kCTssUrM1HpH9tK2uXGiEALnPsgQUpQvarSTgyK8QKcMOyg+DjkpOehT07T0b0e6BeH1rPH78eAz6tqpldtiDU1N/jHj3R8RvfR2BiETI/X0xe29hTValEfxSIEauTIT/yxFIiI/AxIe8b21QVnFCsx5jsFRpGK8aloZl40Kw1sKsw/qPwRJO8J+8ABOVdnT0hBAsMzmAy0/c4jEI2QP4zwnDxE4lSjmAY7HYLAXkfIYi0MewqmxcRPTcoRi6LRBL4w8j4tW+8L7loMsJ7j0mIuLXH/G6ct+i3xiD0D2FPOc30tVQbFH0RSSsfh3BXZrB6Zb3TC10eHIRNm+eCHckIvTpWYjMs1v3AQu0wMWwrJraVV3fdeqqXOsNywL05c9bVO7o8cHUbLyzL59fvzP0WLGw9KcClWErW5WD3Kdzjf3X48A6pfG9pmS/xJuGHOJ+pdFbWhrXNeyrIoYd6b9lY8RmIKCvDq8qjVJ4KA3Rc3p0npaND7TX/3KM8n5QTnu3tvw5S1f+9n3ltXzBT76NzcjWY80Hyn6dgdDHdOa3yQCijgDdfHQoQYcOlQRbMvOKqVPaj9PyepVkkelrZf8VRe9gO0y7E9ixJRtHsrSVyr9D7srneubHymdQW2U00KSmhnFZ8IB2ZR41lc9VykK7nOXn53UI66O9bw5IP1ugSU/DRSl6elemcj92Gy6Xlvtb5L4PpouQ18rcdTIji/xt5XYDByK+wd5rHuj/ymRMePRedPK5G538umHkpMl4pq0Tzmz9GpEypklkHMaqNYeRdkdPTJ7wBPr4Kdv6dESfp17G5Htr45bM4sIOLPv+HKrc/QRmTzJufzcCH30es1/pBvdryv42mItHCuFYD22U/bS+Q/lCQQ20lPssS2MJPqyHYQeZw6CjMjuzFiPUGTr8MWvdJszqZdkMHbV6zcKmNa+jg/KXIS+HoaD+CydWTsLQlYlwH7YKq94fhGaF/WJepRmCP1yLWU3DMWbCIm1lAcrgMViseiBmrZBG92aMnBpe8JRh+0OVxxcNdJmFsP90MH9gWQSJcZGIlDO9OkBql5WVS+tCMOYNKM/9MoxoVcijqBWISW+NUZ6fOISsiFQPsvLlOQiH4yIwpkvhr2eth0IQNlw5kzgba4s77ImovJLA4Zpy6pjPQb+j0vg9B6yIyxM+FGG6UdfltwYX5/8wDFMIuNv0dnVoqjRQt+5W7lMJPmoSQAhrNkhNe3ZUDHr8dtDwi72xMSoN1dlv6PC18qX+/go9BizLxsdy7K48bwNzfoovjB6rNyuvp/I3Q3K9liaU1/KvG8Cyl+3QPp/ZdaRI6QrlqXzsnuI3PqXhKkGEhFxSS8U07JBpRqVxa67RW5RF9lGhyOf3Tz3G/qhdFgf16DxDjw/MDFkxV6Oj85falXnkrtGhzeJj/Dgo+/5L+V5p5aW8nlrR05Px1hkmkzeMMi5GBV1XqWUcQPRv6XD27Yk+t/wI44RO3TvCFefw6z4tJfzzN7UHRvsHusE9z8fAPfDeW3rmnYiJUY5TPfDggNYyGVNu7t0QqHzHpMX+ZvVZU0y9/9FywzCXYi5SlNRIwo4/jxetdzjZHgYdlVY6Ij8cg3ClNe7/bhhe71K0prbTfSFY8KryzbtnEmZ9kU+TPnkzQievVb4wx2DZu8GweA6Q6v54ffECeCQWNrt4GTyGInLqFYJlo5V9rpmIWRvyawmcwLKpkwzhTImHrBicO6bGHAi8s1mJQ5OiiFyzFk5FeO5r9RqEEfIP9uJIxBbUqcPTG94Wh/+1EPjoGPVc2M+xhQ+LIapAjIHDPcYu57fQIcAH+G2/HgdM2/S1gFef1mGDJUsP7W9y6BGjNLrRWge/PA3fmgFK41tZ9/FPxe/V0URpdEs9jcVDi99oLsyUhww1O0qzt4h16XBPsB2+fipPjwoHHXqPsMMPjyqNjt+AmUoj8OlulveqkLob8jfSI+N8ft3Q6+jw6lQ7POahXb6FFpY01uFhmaK2BCSIMC62OFtOUW1dno07F92cTrZ06OB+S8tV+ewq6xIvGT+3ekSdBxrcAcx+QnnvZevx8Ybif6bzI8OVTIcWmS5CQg1z18lS6Wu4XL6Kf5STum71DJfz8vRQj6vPXDAMX0lMlNN6aFRfvZib3a2/MqYo+4ddPTQwV5AHVdCsUW0gOwlnrBB+mfPvRcMxs3GISnEXIlMMOiqr5M0In6s07t2VBvnzxanp4ITAF2ahr3Ju7fJNZgtMntgQhjDlJvq+NRF9izqm12cQxjyknc9PGTyGoquFvlPDEOyeiDBl35HKvyN5SS+Xkd+V0pAVTXqaIahxr2Xm6MaqRmDSsCI8906+6Kr2LIxE3BF1Tamo1a4rBsmZY4k4p64hsgX5Bw6m2isfwbuVRqwMLcjhqEP7jjp0s2RpmqfBmaLs6xTwgrd8S+Zhp8PArkoDLUqPHUrjuTikHofU07A2uY2yuJ2y0MRfhz7y9V4NeD7Awsek1d1AQ+Ax5f0x9IPiTT1sDEtmP2S+SCmVHXM1OnqbKX3g6ABcygk1zHtH+b5Ir6PDy3cCvyifZ3M9SOj2c5AXswDODqYhhhOci3IY6FhFatIWoAqcC/i3pzRJSDHuxeFqwdHiLsahK0LO39nc4p9YyUYx6KikLkVHYply6v5SEAKLO2yuRSAG9VJOt4Uj8paaFCcQ+YXMAdIXg3oU54umGQIfDdTOm2f9x1BMnoMQ+n4w3BNDMWl+nsKbf4Vj0tNrS23IikEiTmgNnNaNbunfaF2PBaJrkUKsWvBQ72Mc0kuz64W7u6HH0LoTBQ8ZIqpIzuqx4hTwqq+ZwMHUXTq8UAd4f5e+VHo0Xd6vx8fKaW8f8w3qJkpD++lsYE10Jf/Ftczo8Uu4HjPTgGlP6NDekiM3Y90N5WzYC3YIewpooLyfpm4p4mt2To8xEpa01uH5AqempbJgrkbH7Pu0K01Ij45LMuTNhKxLNE26/tLjvHSsUF5jqQ1D5UzN6qirnCSe/dtwOa8z59Qf6NzdDV04HNReGxfxj7nJWDLScEM7a+Sq7B9p53DGWOMjlxs4cVrZkXM9uNcwrGlQX8aa3UBq3oA7+xxOX9DO30YyTEWGvggJOaRmBxGDjkopHbE/h6nnhnYpyRdBM/j2kEZrJOLi8wzTSIxD5DbltNcgBLYwrCoqj6YF3bcyeAwl4P7YLIQ+pjTnZ05EaE6x00SsfWMi1pbikJXbrl2zIk9P59HUUBA09kQpRhJOzshT246owjuwA9iqNE4GdizsF3wdHu4GnD+ox4bi/GSfiza7hpcOfvnN0FELeKwtsGJHaXe5p1vpceBLPYbuB+7prMPL+dXZMJWtx45lSuP1LDBtuA69ldfLSXkPvXs3sOZ7PdZY2u0tTY93PlC2V96Dq57Op0hpEclwBJlhRU5Zi6HozNboCNeuNApQjkGUk/NnlPdLX0OvjxeU10/KupzMmRtUh0VBOjSRAqgNlO1MfrBYMNYOC3IVIabbwrE9OrWWOhk/Yssth0vp2Lt9H1LsWiKgk+GXvrqtvFAXV5Vj7315Co/ewInvo26ptdGsY3tl+3P4fsPhWwuVJu5A5B/KPu/xQ0ttVd3aMoTmKA78ljtOT9v3m5kpZ40uIrEUewrlV3ODIQflh0FHpXQOiWrvhUHwvbNkhy7GRuvuY3m+fP6Kh/pvb5fWhl/ai8GpRkFN1zJ4DCXSDMHzVyn37max00sbZmGMzD5TikNWbrdBLW5Dt8Crl5B4JBqR34Uj7J0QjB3SE13v7IoQ7Woim3BOaWTGAAN7WPYLfk0/pbGibLdwcwl7dWQAWw8DLyjHiTnDFJQG7+VkPX7ZpzR612Rj5kI9FvyprFcaqt8q25KVaIHF4GigiY8OG5+yIGzI1OPbD/UYcBB4NViHV3OCEakBorxHlHNTV1owhOVfPWbOUZbrwP+UN9Y9RekOnw8JNkav0mPncWDed3r8/Gfu3iUSgJR0qfR1HRTdmutQU/nM7vhVD3dvbWaWjsDJg8p3itro1GHRVB2ergOs+Ez5XGcCDz96M0BzcgUet3R4FJVMxjkc3v8b9uZZDiVK/4sq6PT4E2jvfA4b35uPd9ftMlwfswNLF8zH58pnvP1Tg9HJOLTkjp54zFf5hvhjPaa/vwmR6r52Yc2id7H0ikdOYJHjjj4Y1dsDab99idcXfIktMYbbjlz3CV5/bwcSlf2Neuhm4R6Hu+9Bp2rAoYjFWPrDPm3bxZi1qwraS9eTPNw9G8FZOVb/ceMOZdt9WBNZjBlcTEihUQkz8oYdDDmoIAw6KqVEnFALEzeTHv8l4t7MVz2Nu5r70DrxRKx6Gmi1oRTWfwwl1jQYCz7uqxY7DflvGGa9EIbEUh2yYlQL7k0N50q1l0Q5kX4mDmuXS6DRFV46HXQ1asPDuyt69h2KsZNnI2xNJBLd/IsdqBGVR5f/0aOWcoz5ai8LGxzOOgwJUBoobQsZ5lKA9HN6rFhiGO6wY5vSWJ6s/Wo8RY9GM/V44Avlegk4lIPa5x9XGtG1gK/2s2FpFcl6zJyuvAa/AX166rBxuAUhh/zNW3o8ddwQckzLW+xTeY+MexA4f1Zp8Ebl87pl6/HHlmwMUF7vFcrFDVPtMDDfIqVFc/JfvVqIVuqmBN+jy5lSVsgsLKPDS770+6Cyvx91eNpT+Syfh/o5fj30Zs+Pdp/ocdJNh/9NM4Qc336TjbEHlffMfqBBax2Wqb04dGjiqhxhKa8VlYHLh7Eu/Gt8nmf55qD24XBujZGTRyPYtwb+2bfFcP26HTjj0hHPTJ6MkW1NvxWqoM0TEzBhQGvUvbjPsN+vf8Hphg9iQvDdt86sonB/YDTefPZetEQCtkQYbnvjbzfQrN+zmD0uz+wtji3xzLjB8L8jDYe3rsfnX36DqH+V+/diTzSy17Yx1epBPONfDzeO/KjsdxP2p5VCWmqGcaYVhhxkjuFfwSkH9fq5bdSzVMHtmQ2dfwjw2CqcWx2cz7CCaMzWyS/gs7Bb/zr8tbXFYry9t3ZDP+3mnhK/CIJH8FoMCj+HiCeLmUTks28D6z+G0hGHUH9fTNoj5/0x69dIvG6F3hxxcz3gOzURHd6NRex/rP9FX5LX1+K/TYxE6LiRmLTGmN43g3+vZmjt0xcdOnjDu5lyvlUzuNeS59Oy90OpvC+JbiulkTpejwN9lQaLNg1pqdmXjTu/Uo5PlePRuxoDLT11uMsNaHqn0hBSGslOearWHfgyG/fHAD+E2uGeYvxsIr++S8NUnYGllIqGSmNXftnf9LJOnc60wknWY8VqpfH5h3JeaXDOeVqHxwqbOUbCiW16jNkMnFT+JnSUHQbmNzuKsu0HIXq8nq28bjOU1834a7Cy/vw+5Xa/BVakAAOV1yTsCR1qluLPYfJ6S48Oeb13/qnHfcrjkmllhfT2WPVLyRvXMmWttWZzkbDAmhZNtcPTyufbdY6Z56G7Dqcf1WG9ch/GaqvMadLXDr/2AX7bnI0HtmgrNe0DlO+MgTo0uQF8vCYbk/ZpV5j08NihvO/82gIbPszGCHkPWkCm9TXOnlIUxs9nUXvhyIw9MjV1ab8e8jgsIdOYfjD/Le1SBZH9G5ZO+RpH/Z7F/CAvbWXFIoFGzN44tWCpaZFRWSeFTItSeHT63HfVWV5K8jpWyPdBJaJ77RAwr62OPTqIrKoDAgdpwYNPIAJblX7IITxaGAq3xv15DqVXaeT2ObFhLLp69MSkNcCgt1bhx/iLSNMnYPfWH7F0/kSMebIvArt4ayEHEZWKjnb4c74dNigN4AUj7PBCH8OsLE1cbw05RPvWQO9WOjTI1FZQySnP5S9ngHFP6LBXeR0KDTmEciR3OQlodZ/hb/INOYSd0qB9UDlI76HDXaavqbKPmCggzUuHn5V9/C+4dEMOIQ1bmVJYwgjp0WEMOYQ0XOVySZfKPmVtU0flvXBOj5l5Qg6VM5CerMekBaYhh9Bj7Md6bL0CdGur/P0ferxlYchREhJwcKhRGTmaABk4YixcakukFwdnV6H8MOio1G4pP1QBle/HkL53NsZMjoN7i2Zw3z8bE/+bZxaWUuLeIRBq1LE4ErHWuIEyJM/Z0IFhiO7yOjadS0DEtGAEtqpVysN9iCoqHV5dqDRES7s3R3HcbYevX9ShSRlNP1gpeOiwaI4dXvYvStCgwz1P2WHRY5b9Tc0AO8xW3j+5t9Vh4EQ7LBuuQ/ta2iorkLBDwojKHkiYM3ZOtvneHGK7Ho0K6c0hdqzLxp3z9NihXTZ1YIsenZXrPjZXHDJZj8EzDENc7vyQRYZtSnYStnwfizSTwqVElQWDjkrJHe4ypSriceKMuqLYjLU4OlTP0wytYri8tlQLfJoqg8dQUulxCH05BNHuY7AsejfChrkj+o2JCN1jhSSihS/6+siZVYiMrshJRyLWzleeM3TAgsWz0LcIo0tsIbYjopI59Q9/ISaiyigJWxZ9gCVfbtEKkf6G6B++xruzP8DGv53Q8uE+NwuXVkB3ehmK0ckQlpIsxmErrOdROTDoqJQ80ExtFK/F4b/UFcV24thu9bRrntk33BtpE+7/eU5puhaPMYAwz/qPoWTSEf3OGITscUfw+yHo6+aOQW+FGmZh+U8ooq9qm5WaDhg0rq9ymojZi9cW+zm/7c5EImKNctprDAapr6+F/joBmRGTiCoO+XVfhixITY1+H2SXeJEaAT8fMwyDqJD1OYioUPL5JnNqo1nr2rh8fB82akVNwyOPIq2uH4LHjcPL/jI9bMUlwUTfXj3UkELqchR3kb+Xmh5+HYtykEkVFYOOSskJrTsMUs9tjpaJT4srDrvXSpN6ELp2yNPXtVUHjJHTlbtxuFgdDNJxOG6tdt6cMngMJZC+JxQT34iG+7BQzHpM65aQMwtLiFWGsDQbMAZj5KbWTMSCbRW0V8eZE1BfdZ9mKEqh/0u/7zb8HRFVKGrNBqXhIgFFSRcpiCj7kn0SUdmQOhvyuZMaKdZmLFos4SjlVQUtA5/C/70+Fe/Of0stlPnBnKl4/aV+8Pe0jSErD/XqgRmvTVALkpZkkX2wrkflYPjG4KwrtsOiWVcUyWsxsl4Qlrm/jh9PzEJgcUZt7A+Fb4dJiDN7W4kIH+KBoWvc8XrkCczqUcQbSI9ESLOemC0ZRH6zoVj9MRTT1WiE3N8Vs/cPwqoTEQjWpn41MM7C4o9Z0ZF4vUvpDpc58Uk/eL2wGXCfiB//XIBAK/3bZrVZV4o1A84lrH2uNoLUadQ56wpRRSQhRWngr71kLdaedaWiks+czIQiSutzbI7pZ1tmayrtQqY2PesKlTq+D8o3zrpS2bn1RfBrSkMvcTZCVxanjsYlbP54gdJsd8fE5weZCQjc0ffJEcpp8YZSnFgZagg5CmL1x1Ac6YiePwaz9wODVizIE3KIDhjzwSylIW6dISzNnl+EVcPkOQnF0IGzrTBEpowUZcjT/mVY8J17Kb1+RHQ7SCOmNBYiKlvGqWWNPTustcjtyGKNkIOIbBODjkrLCYEvhSFYaR1ufmEoZhexQOaJL8ZgxOJEdWjGmF7meyXUenQMFnRRzqyZiIlfFCGI+Csck16IxZjREpQUxPqPoajSt4Vg0Mw44KGlWDDMfLc4p04TETqtg5WGsDRD8IdrMUt53hN/Uu7LwBBEmquwXl7lDHnajN2W3O+r0Zg9ehJqvzULhb1bVFqR3EtXWbqUiIioNBgDCOn1Yq1FwhRjoEJEZAkGHZWZ5yCEfjhCaRpHI+TRfpi985J2RcFOrBuLocHhSHQPRuhbwcrf50dptP5Xei8kIjx4KEK2Fb7/9CPLMNR/KHYPC8XEYAvGz1n9MRTB1UiEPB2qPNq+WPq+3Kf8OMF/8gJMdId1ZmGp7o/XN/yI19WwYzZ6tuuJSV/Ew7Jn5qZLxzYj+ph2oazUCsQg6aWDZZj1fiEh0NV4LHtpEEKwALOebw1nbXVB3O/0Vd6VQGR0XJGfDyIiIiIiqhgYdFRy7o8uxY+rlUZ5otJIv98bPV8Iw+Yj5pqA6bh0ZDNCh3jBa1AYoluMwKroVWaGZuTm1OV1rJL9Ixqzeyv7nxCOuORbm6/pyfHY/E4QWnuPRKT3LKz9MBjNqmhXFsLaj8Eyl7B58lCEJgJ9P16EES201fmpHoiQj8fA3VqzsLgFYta2w1j1sj+gPC+hwa1R+85+GPtOOCKPJOKSmdtLv3QJJ/ZvRvgHkzC0nYe6fdn3BnFC4IRlalHVuJldEThO3i/aVUY3LiH+u1AEdWiNkX8GYdMXE9XwwiI+gRgqvYyWz0LImty9jNLPxOME0w8iIiIiogqPQQeh2WNLEfv7KkzsAUR+Mhb9vGtDp/NA68Ce6NlbWQJbw0PnjNre/TBpTRq8n1yE2F+XWhwQqPv/dREGtUhE5H+HwreeM3R3djXsW1lae+jgXK81+k2OQ4f5PyJu6+vwL2IRTWs/hsIkrjEMg0EX6V1gWf+QWgNCECb1NKw0CwuqeyP4/d04F70UEx9S7tOxzQibPBQ9vT1Qu4ZOeX5yL861a8OrQz8MHReK8IPO8B8+C/6e2r7KkltfLIqOwJguQPQH8n7RwaOdyevoUBut+05CXAflNfxuEfoW6TU09jKKQ9gQr5v7becB50YhFbemCRERWVVtF+0M2ZyivLYuLs64eu2adokqI3n95X1A5R9nXSET6UjcvxmbwjcjfO9uHP4pXisI2Qz+vQLRdUAggh4dpDR+i1nPQn6J37YKYcvXIvLnSMSrO9f2/eQgjBjQF95u6pYlYOXHUIGln4nD5m2R2P3zZsT9ehiRBw3PjHBvG4jWHs3QoZc/ut7fFYE+3qh1u5+iG4mIXrMKq9ZFYPOaaKj9L1r4Y1CvIAQ9PRTBXWSIS/Gk/7UZYW+FYtl3hvdhsy6D0Dd4DEKeD4R75XtrEBFRIR5dnI0fj2gXyKb0bAWsG23Zb78fLl2Brn6d4NOutbaGKpv9vx/G7pi9eGnk09oaKm+Ms64w6CAiIiIiKsDKPXqM+YKFMG1R2JM6DOtiaBIVJvrXWKWhewijnxumraHKZvGnK+HTrg38O/tqa6i84fSyREREREQWkIZwxyaWNYap4pDX1NKQQ0jj9tq1NOza86u2hioTed3l9WfIUTEw6CAiIiIiKsTCx3Ws1WFD5LWU17SonggaiG+//4FhRyUjr7e87vL6U8XAoStERERERBb47Sww/is99p3kMJaKTHpySMhxd0NtRRGd+TsRX0Z8i2rVnOHfuSNaeDVB9WrVtGvJVkjh0WMJJxH96z61J4eEHJ53FL9GHJUN1uggIiIiIioGqdmxNk6P2FPAxVRtJZVr0oPDtzEwqEPRhqsURGp2xB04iJNnziI1NU1bS7ZCZldp4tkQHdq35XCVCoRBBxERERERERHZDBYjJSIiIiIiIiKbw6CDiIiIiIiIiGwGgw4iIiIiIiIishkMOoiIiIiIiIjIZjDoICIiIiIiIiKbwaCDiIiIiIiIiGwGgw4iIiIiIiIishkMOoiIiIiIiIjIZjDoICIiIiIiIiKbwaCDiIiIiIiIiGwGgw4iIiIiIiIishkMOoiIiIiIiIjIZjDoICIiIiIiIiKbwaCDiIiIiIiIiGwGgw4iIiIiIiIishkMOoiIiIiIiIjIZjDoICIiIiIiIiKbwaCDiIiIiIiIiGwGgw4iIiIiIiIishkMOoiIiIiIiIjIZjDoICIiIiIiIiKboVP/O+WgPvqRa+pZIiIiIiIiIqKKxv+basC8trqcoEM/t416loiIiIiIiIiootG9dkgNOjh0hYiIiIiIiIhsBoMOIiIiIiIiIrIZDDqIiIiIiIiIyGYw6CAiIiIiIiIim8Ggg4iIiIiIiIhsBoMOIiIiIiIiIrIZDDqIiIiIiIiIyGYw6CAiIiIiIiIim8Ggg4iIiIiIiIhsBoMOIiIiIiIiIrIZDDqIiIiIiIiIyGYw6CAiIiIiIiIim8Ggg4iIiIiIiIhsBoMOIiIiIiIiIrIZDDqIiIiIiIiIyGYw6CAiIiIiIiIim8Ggg4iIiIiIiIhsBoMOIiIiIiIiIrIZDDqIiIiIiIiIyGYw6CAiIiIiIiIim8Ggg4iIiIiIiIhsBoMOIiIiIiIiIrIZDDqIiIiIiIiIyGYw6CAiIiIiIiIim8Ggg4iIiIiIiIhsBoMOIiIiIiIiIrIZDDqIiIiIiIiIyGYw6CAiIiIiIiIim8Ggg4iIiIiIiIhsBoMOIiIiIiIiIrIZDDqIiIiIiIiIyGYw6CAiIiIiIiIim8Ggg4iIiIiIiIhsBoMOIiIiIiIiIrIZOvW/Uw7q9XPbqGepIrqCLSFPYkVGLzz8UG/4d/FGIxftqsok/iN0e3ghTru4oY1Xf0z8bDK6u2rXWSorGdGLXsWKOtPw3jAvOGqrzTobgaE9piHW3Rst3Pzy3N4ZbFkYgYPaJYu0DsLEXp7ahQIkbcQrw7ah5uAAPBiovN5eNbQrRAJWj3oVP7n3R4+ALvC/V3kvFPggSkliBJ4LmIZo9bmohyELlkB5+oCUeKx+dwkOtRuPqUGFPJ9EREREREQloHvtEDCvrY5Bhy3I2o85HYOxNNVwceDCGLz3kGnjtxyS+9wjBNFuzeHbzQtdHxmPPk2064pLa2xvl/MBMxGzNAj11CsskHUFh75bjDkzP0P0RVnhiO5zN+DToAKCB9Pb6zITO1YEoZF6hVAeX0vlNdEuWWRkOBIm+2gX8pcRNQveyrYqlyAsjpqJPsaAJWUbXuk0Ht+qFxwxJCwK83qVwXsh1+0G49PfQ9Dd8QxWDx+AKbsy1LUthi3BqqkBqGevXiQiIiIiIipVxqCDQ1dsQXwMtmghB9ALgV3Kecghjir3OTEBhw5uw8qwBGQUteeF2mNiIUJNl0+24bh2LY5vw6I816/cd0VpkO/HyvCNiE1IRkZWBpISYrB6/ij4dfTDgAnGkENkYPvMcEQb2ujm1fNEC+0sqgJO2lkDR9RsqJ0tVRmIjtRCDkWfWZNvhhyKjP0xWtigeGgmppZFyCFc66G+dlaeDFe164Ynhizdhk/Vrh3AsZWj8NyKBPU8ERERERGRtbBHhw04FNYbAxae0S5Zwnxvhdj5rTG4SF0QbmoxMhwbJvtYPDTh2Mog9J4Zb7jQfyH2v9sLRcs6it5jovvcKHx6746bvTDMckS9wFF4e3IwuucaEmKOyX24pQdJMlaPDMCUKDn/LL4+Ohm+6vo8THuFWNKj42Q4BveahVg57xKMVTEh8M950q9gywQ/jN5ouDRsaRxmBJTVYBHT1yPP4806g9VjgrG+0/tYPNwHruzRQUREREREVsChK7YiIwbT/YZjZU6PDgvdMtSiZEEHGo7Hhp9ehEXvoqx4hD0QhNCz2mVL+IRg6xfBaJHTSC7doMPRPQBDRgVj2EMBaFFbW3mLK4gN/xQ/JWkXcRbRYRsNoUPDAAx7xFsLa1pjyPgOiLZC0GEaajUaH4EdY7zV86oCQ5Ci2o+lg2ZivXapcBk4fTABKer5GmjR1rPA0KvN8x9h3kNu2iUiIiIiIqKSY9BhI5IiRsHvNbU1naexfauU/RFYuSvZcGH4ciS85mc4rzm9bSFWH9YuFMqkka9wVBrp8RbUlxAZu2bBZ3i40jQuigDMi1qCIe7aRRMZJ+OxZddhNH8kCG1yirBKKLEBZ+7qAn9vL9Qzrs+KwRzv4YaApGF/zJg2HN07eaGRYaxFIUx7aRREgo3ncCxn216YujzYfAh0cQfmTPgMysex8KDDNBS55fnIQOz8ARi8VOvZ490fYwILGjtzBcd2xMGwdWuM/Wgm+uQqaFKMGiNFoIZOQQw6iIiIiIio9DDosAUZSmP0QaUxqvWMKLjxmIHtb3bAc1p5h+7zlW0fKUFDM1fxyaIMk7iCb8f74ZXvDJda9HoWfVrm83dnYhC2fr/hvMuL+Hr/+Ft7RZj0aPF9cyu+DjYOx4lHWA+t14hLED6NmqnNiFLQcJPCFDfosFCBQYe8fl2U10+Lh4KXIP7NgJu9JnKFIEVlLkRi0EFERERERBULi5HagEOfheSEHGj4LMb2L6jhmIBDO7Sz8EaPu0vWyMxV9BL90dXHkpBD+bt9ixGqhRwyvGLGu5Mxcfx4s8vT95r0TQlsfbPwpylHH/R4xHA29pNNOJRlOI+DUVitPjeOGDi3GNPMmuWGIUsPI+Gotkh4ol2jhhTG9fkNUymBjH0LMccYcggXV5OhIVewZf6sYoYclpAgxORxm12iMC9A29yC7RlyEBERERGRtTDoqKgSwjE91DiDhdKYnzwavgVlDWcPY7cxFHHxQ5sSTeWae+YPPBQAf0uChKwErH77M5zWLnafNqrAGhLH4m92h2jToXk+Q3Ic4evXXzmtgRZN05FyTdYp92/dEsPtNByF53vf7llopIeH+QZ/rrAkP6n7Efr6ZzimXcwrI2ohXtmohSAuwfh0/2HEzM1JHdTeE2ZvO2cxPySIiIiIiIioImLQURFlKA3fl7SikwrHwJl4/aGCG/NJe7YhWjuPR7qgTUlmvkiJwjcmOcfAB7tZNGPK6Yj5mK6NRIHXeEwscOhMPGK3amfhiO7tDFOUGh1bORwDBo3H9IUL8clhN4x8MRh9fIDdy2Uq2WkIXWlo+NdrmoTvFy3EnFeV7YeH5w4LzExBe+uyLSeYKb6ziN0Vg2hzy97jyKltao7MWDJhOJbmNyvrxW34v3HGeifK8/TmKHTPqVNSEp5ocTMrsYAbGjXXziIKx4yhmri4H6sj9uO0SYcUIiIiIiIia2GNjoom6wqiQ5/EUGPL1yUA732/BAPdgZTvpmHwek/MmPYs/BuadpXIXRejpNOOng4PRrc3jbUzLJzdI/4j9H54oRY0eGHkFxGY2rGAP0oIx4AHZxmKdJq5jeLNECM9K3rj+yLVnrg5Y4qEK/9ZJ/OKeMK3mxdcU+Lx7cooQxDi0x9jWmdg+29S3tMVQ+a9A8f5Ja3RIQVGg5THaSblkG0numH1mAGYEqklCAEzseOjIDSyz12ktnj1MEzrkeRfCNZU7MIOGBxmuC8jVxzG1C7qWeV9ORk+42XO2xrwH/8RFo/xsSgYIyIiIiIiKgrW6KiQlIavacghgcGyhWrIgbMReOW1CByLXIihPbpgQEg4YhMNWyFxK74xqYvxoF/xQw7pTbLyE2O3DKDF6KDCQ47U/ZjzH2PIofzNyFmYWFDIoTi2K8IQcigcg3oVPCynjKSci8Ghg/HKsg0rwz5CmDHkEPs3Iix8m3Z9DE5f0daXQMbBzzA957V2RPfA3F0sUnZ8hOnGkMMlAPNmGEKOvI5vW2Kmp4phmRO+X+sNUpAYhL4YhAGDzC2zsN0wpywaNbk5i8+xs9rsPvKejZGQQ1yBYz03hhxERERERGRVDDoqkIyT27A60qThO3dJTq+IlMQUuDYxpgEZOLR6FgYH+GF0eDxiv4vIKVRZ0tDg9PolNwuguvTHxCHe2oV8SH2JJ02GXni9iHnjfZR7X4CseGz5NF674Ighgbdu7zvZTK0J03oXMn1u3uulZ0ZKEi5om6izrhivK9XCoo5wzBU4FK9Gh2PbYDz/kOF8i5HLsfj53MN3XANDsGqkrFPeC9NCMCSf2WRPR4YjTIIZM8vSyOPQcoo8zuBYTm+UDCTFS4BjbjmDFC0pqdfUO+d12n5cm+b24jZ8ZRzm5KI8noeNs+IQERERERFZB4OOCsSxSX/M2xSFVWP80GdaBBYH3Ww0unYcjvfWRmHrkvHwr62tlNk43gzC4Lk5hTEwdrDfLaGBxRI3Yvqcm2MxWowejj45t2VeRuJxHEs06XWwbHyhQUvGrggsyplNZhSGdCnGPbbP529SU2427Fs2L8LUsreGK1un3Qx5fKdtNLkuDhPzmyW2SGqg+4P91Rosy5Qd3vqIHOE7/h28Nzc813uhSKoU+92g8YKn8Uls2Bz+2lkcNdQeObYxHFsMayzr/UNERERERFRCDDoqGns3+I9fjsXDvG5t+NrXQIvAF7Hqp42YN+Tmr+s5HhqFYYV0wMiXFMV8cxq2p2qXFafjDuO0cTrXfDh6BWGx3J8gP3WYTX69DnLIzCyLjMU1Ad/n+5ktnJoRv/HWoRifbMNx7XrsDb/l+pX7SmE8SY4MnDlu7HUCxIaG53pugHTgunYW+7Eiz33JWUzvsxmuvWdif5j5ISkqR28MDDLzWpsocNaVJf0tCHvy9kgxnUrWRL3W6NFWOx8Vj0NJUVgZagzZemFsYb1/iIiIiIiISgGDDlvk4oUhsyLw9UTToQ5emDiqf7HrI5z+ZtbNehCajMhpGKE0ZAut8SD3Z+7ygouPapI2zMccY9vYJRhjHzHfUyHl8MZbh2LkrZmR5/qf/lLuaZZEFKUhAYd2aGdFajimL4wx2Xcyju3RzmI/vs1zX3IW0/tsjn3eYTBlxHSIzy3O4PRe7ayL6WvqhTY5vW+isGjcfKzUwp8WE0dhYCG9f4iIiIiIiEoDgw5blbof69fdnK1DCoCOLOYP6hn75mPEa1E5jfgW9/qhhXb+2NLhGB2h1WMoqbMR+L83b96O78Tg/KdKLW7jP/F4zjS7bTxKUBYzPgqrTadQVZxePqr0novbzXSIT1vPWwKyDGPvlU6eaKSdFW3uDdJ6l5xB7D7t/WdJLRciIiIiIqJSwqDDFt1SAPRZzBtbSAHQfEjIMeDJz3JmTIHXePx36XL8N6e3SAa2vzYKoftL2E8i6wxWTjcZGqPczozg3MU3TdV7ZInJUApl+T7k1qKhyuNetffmNjLFasoF42wgyj5cih90HIqMyOmJ0SgwQLttw3MxZ588Fz6Yqt3u12OMz7wjxqxW1pkUIM01rCTX1LKlJ79ZV+a8OhwDZkaZL0Z69nhOAVvUd0VN7awq6czN94NnvVwhiGOnXhiSK5xyRPc3Jxday4WIiIiIiKi0MOiwNUlRmPPkcITFa8GDWgB0Mnzz6xlRgKSoWXlCjmfx9doX1ZoZbUYuManTkICwKQsRm6tGRRFI/Y8xAzA9p86pFyb+13A7FkmJwZyXZiFWu6hycYRjwmcYOmQavj2prVMcO7pNOwe0aOqmnSui1Cis/sTYc8MTQ8YvwYyc4CcBS58Mwpw9xnogMsTFGAL1Qtv8sxuryW/WlaXrY3DoZJLJcJubTpvUH3H09sxVxyNp17acEKSRR73cAVrymdxDcQJCMGNAMZ9nIiIiIiKiYmDQYUNS9n+Ewb1GYWlOyOGNMZYUAM0r6wpiPwpGwMhwk5AjCItNAxN7pYE/w2Rq1ITP8J9cNSoslJqAlWMGYEpO/Q/DtLljLB3pICHHEEPvlUbDn8UQbTWCFxqmXk2IwCu9/DA0LAZJWaahQwDaNtbOFtGhlTdrT8DnWQxU7qsa/ARqTX6vADx4dw3D+YPbsPSg4SweCoB/QZ1ICinsWnYycPxwjHYe6NPSFd+Obw0vv/4Y8KAf/CbfDIu6e5skN/JajMhdsBbVHFHTNLBK3IaVkTd71RAREREREZU2Bh22ICUeq0OC4DfEpFeFSwBmrA7HRAsKgOaSGIOwkQ9gsEmRUUfvF7Fq9Uz0yRuYNAzCjFk3p984vXwaQvcUIeo4uRFTngwyKXLqiO55ps0tSMbRcIzupQ3R8XoW/x3f22QYhSt8JxrDhyuIPZ4CxJuEDm0D0Looc8saJYRjeqhxTJAjBg4fYKhRIcHPu8sx0tukB430VHlvodbDwRFD+ncrsBhs9PwO8Bs1Cyv3lG4QUOCsK0uDbp11JSseu7/RzsMbHe/yUqe5xcUEHEowmbnGazyG3Ku9v5KiMF0LnHL57n0sMn1PnI3D9FEB8BnyEWKL8FYhIiIiIiKyFIOOikxpeG4PGwW/gCBMWR1/M5jo+CJWbVuCYS2LEHJkJSM6bDh8AoYjdNfNxmyLoPnYunZ8vj0RGgWNx83JXc5g6WsLEV3YEJasKzgUMQ29e03GamPvE9RAn7kb8Km5aXNvkYFjq8fDr/8sbLmoXMxveI6ED2EbMO8hP0wd2wWHvl6SM6zCd3BATkFVi6Xuzz1ExudVjO2t9dwQLj6Yun6JoQeN8nxunzMKU4zDcbxGYVigyba3SMbp4xlIigzH9KU7kKStvR0y9my82WOlYW/4Kq+va3NvtMl5fmvA9+EQfL3aMLzI2JNopTHkqN0L8+a/qBUpVd4To8bnFG5N+suwUcr+OJwxWxyEiIiIiIioZBh0VERJMQh7NRg+fv3x3MIoJOX04vDGkLkRiPnfePgXobdCxsHlGNwxAEMXxtwsTCn7encrts7tj0YF1cqw98bI2c/enHnj7GeY/kk+U85mZeD0ro/wXI8ADHgt4uawGBcfTFz9g8U9OaR3hKN9hnYbXhhpHJ6TkXLr7UrYsXA5hmWEY0648dpeePqhAm5LuZ+3OoNvJ5j2WPDCxBnBaGHmuck4G4PQp3rhuZyWf/41R5JStWc8KwlJxw1n8xb4LFtXsGV1eM7z2GhwANrImZbDsWG/sSdIDL5+Jxi+1QzhWIBpT6LavfDeWuX1eGQUZgRrkVVqFKYMGo6wiHCEfqIlPw07oHlxetQQEREREREVgkFHRVTPDwO7uJo06h3RZshMbIiKwLwgb7gWFEyY4dh2MJ431pcw3Vd/y4IHx46jMbW/9vcu3vD1zNtMz8DpbfMxtGsHdBu+ENsTjffceFvhGONTUG+HWzV6ZDzGenlhyMIlmGocnnMx6WYhzMSkm6GN9MT4z8KcYKXRyOEFzwJy/IyZHhWeGDh/CaTsh9zvW+qIZCWrM7HMkWEZPZRGvTrzivDCsKWf5Vtz5FDosxgwKAgDegQjVOv1cEuBT6NM7dSKMvYtRuh32gX4YGR/83c8IyEcz3XNHY45ej+LTzcuxEB1iJPyHE1eiGHGXiAXYxD62iys1rIfx4f8DAEKERERERFRKWPQUUE1CpJimz7wDQ7B11Fx2DArCG2K3Q2gBvrMWo6JvYIxb31UMfal/P3z49A9J2zJO/zEEY1aN4ejSUcJR++gYt6Wxt4bYzZtxLz8emak3OzdkXLyOFIcjUFMMGYUc6pduPph6rL5GDk5/NbeJ/ZucL1oKLSZ8zBr98KMjRGYEZBn1hEX15s9NlKTcehgPA7lhD9eGBJgPlxIOpvTncRqHH2CMVF5/VQPBePhJoazeTl6BWGscTvl2WwzfAmi1k5Gd9NeGlInZv1MdM87pEim3h1snal0iYiIiIiIGHRUWI7wVRrcX78ZDF93bVVJuPhgTFgIhngXrWdFDu/h+LSg0KJhEBa/H4wWgc9i3hdRiFcawMW+LaO8PVfsXVG/rTfayOJ+8464Sqiydhs+HdkLE5e9aqbhXQQN+2PqSG+zQYkhfPKCo3sARr4bgf27F5qvk+Kq3I8lz6JPW6+bgYeLG9rcG4wZq/Pv/XHL47UGe08MnLUE7z3kg4mj+hcwhEZ5/01UtgvWwrHXAlDP3P1rEoRPty3H1Id9DPuq7YeJK97HsJy6LkRERERERKVLp/53ykG9fi47khMRERERERFRxaR77RAwr62OPTqIiIiIiIiIyGYw6CAiIiIiIiIim8Ggg4iIiIiIiIhsBoMOIiIiIiIiIrIZDDqIiIiIiIiIyGYw6CAiIiIiIiIim8Ggg4iIiIiIiIhsBoMOIiIiIiIiIrIZDDqIiIiIiIiIyGYw6CAiIiIiIiIim8Ggg4iIiIiIiIhsBoMOIiIiIiIiIrIZDDqIiIiIiIiIyGYw6CAiIiIiIiIim8Ggg4iIiIiIiIhsBoMOIiIiIiIiIrIZDDqIiIiIiIiIyGYw6CAiIiIiIiIim8Ggg4iIiIiIiIhsBoMOIiIiIiIiIrIZDDqIiIiIiIiIyGYw6CAiIiIiIiIim8Ggg4iIiIiIiIhshk7975SDev3cNupZKr/2xPyinSMiIiIiIqLboYvfPdo5Km90rx0C5rXVMeggIiIiIiIiogrPGHRw6AoRERERERER2QwGHURERERERERkMxh0EBEREREREZHNYNBBRERERERERDaDQQcRERERERER2QwGHURERERERERkMxh0EBEREREREZHNYNBBRERERERERDaDQQcRERERERER2QwGHURERERERERkMxh0EBEREREREZHNYNBBRERERERERDaDQQcRERERERER2QwGHURERERERERkMxh0EBEREREREZHNYNBBRERERERERDaDQQcRERERERER2QwGHURERERERERkMxh0EBEREREREZHN0Kn/nXJQr5/bRj1LRJXXlWupuJaajozrmcjOztbWEhERERFVHnZ2dnCs6oBqLk6oUc1FW0sVge61Q8C8tjoGHUSE65k3kPzvJfVLXb7MnZyqwl45T0RERERU2WRlZyM9/br6I6D8+OdWpxaqOlTRrqXyzBh0sCVDVMlJyHHuwj+oXs0F7vXqqMk1Qw4iIiIiqqzkWFiOieXYWI6R5VhZjpmp4mBrhqiSk54ctWvWgGt1dssjIiIiIjIlx8hyrCzHzFRxMOggqsSkO54MV2HIQURERERknhwryzGzHDtTxcCgg6gSk8KjLLBERERERFQwOWaWY2eqGBh0EFViMruKFB4lIiIiIqL8yTGzHDtTxcCgg6gSkyrSLDxKRERERFQwOWaWY2eqGNjCISIiIiIiIiKbwaCDiIiIiIiIiGwGgw4iIiIiIiIishkMOoiIiIiIiIjIZjDoICIiIiIiIiKbwaCDiGxfajyWjuqP3g8qy6jlOJSqrSciIiIiIpvDoIOIbF7sJzOB8Rux9XtlGZWC/3yyX7uGiIiIiIhsDYMOIipl8Vj6sB8GrEzQLhfBwY8weNRHiE3RLlsqIwbTA/pj6KvzsXLjfhxLytCusEBWBlIuXrllycjSrrdQ7PzW8HkzCkW962YlRuC5lqOwOlG7XCQZ2D4zGHMik7XLRERERESVC4OOiiwjSmncBSN01xVtRSlICMfQ4UpD86J22YQ05LxazkesdpnIPG/43nsdh3bEIUlbY6nYzUsQ+wfgWE1bYakqPhj54WQ8fNd17P5kHAbc2wHeymfjlYURiFXuhO/z04CF2tCVJa747/M+2h8qkjbiFT8/+ORZvL3l/S5Lf8zZV1hwkoxjR4EUF1e4amtul9MR4zF6ZQpSMtK1NYVLSYhC2HA/5bEWN1y5KWl/OKYP7w8f9blrDZ8Hx2POxgQUIXoiIiIiIioRBh0VWMbeKKVRkgynOjW0NSWUFIXpL81CrKMb6pViay3pu2kYMGj5zYBE/bW6tdJ41C6TzWlzbxAco6IQbSYwy1dGDNaHZ8D3+X5oY6+ts5S9Ixq1DcCQkSFYvD4K8b9HYcOb/VEzPgLR55XrXbwxcok2dGXJcLRxMfyZyj0Inx49jIS8S/xWzHtI+Wy5OMIx87q2cX5SkPEv0L25p3b59jitfNZGvBYD/7lLlPte2H3JwOmo5XhliB98Bi3E7vSa2vriOx0xCgFDZmE9AjB1yXKsWjITw1qfwcoJ/TFg/n6GHURERERUJhh0VFgZiI2MUP57BqEPG395zrP4LLS890XqfswZNgor8SxWvRuERkVtaBYkNQmHDhb1t32qMPIO/TgZj9ishuiObfhm4XKELlyIOa8Ox4BB/eEzamO+vTwyYrZhZaoPHr63ZGHBoY+GY8q2dLQIDMaMJeEY01a7oihS4xH21ABM2dEBM1aHY2KXgsPEjItncOwg4HjxMKI3hiuPeRZGDwqC36iIfB6v8nkz95k1LgHTsB1RmBKQ97r8e1Rl7JuPEeMjgJHLsTjIkufQESnHY4De72NHTATeG+ylrS+mixsx57UoIHgJYpZPxpBAP/gHBmHiu+H4dLgnji2dj9UntW2JiIiIiKyIQUdFdXEbVqzMQJ+5W7E/JibPEoGpHZVtujRHI8PWBUuJwZxBwViKYHy6cjJ8TX/tJirMjRiE5gz5CECvcSGY895GnPGqge3hG3H6BlC/y3BMnTgLX8/shXran+V2Bdu/CQceCsbDTbRVxRH/Ef4Tuh8XStJ1QPk8hD4ZjNCL/bF40xIMa+moXZGbYSiXYfH2k5DQEbEbFmJOhPRcaIgeYyfj02n983m8Pph4y+fWZFkfAn/4Ycb6vNeNh6+2h1zORmD0iM+AYUuwaqKPck8s02b4Erw30g+NLP2DAqT8cRwpXt4Y+3hAntt3hH+PB5TT/dh3uBSH2RERERER5YNBR4WUgdhP3seWhs/i+f6ecK1dI/fikoTT+4BGHZrn08gycXIjpgwZjqXSk2N1CLoX+gdEeTgGYEbOkI84xKyPwIa1sryDYS4JqNl5FEYGBcD/Xh+0qJdPi/riDnyzUWmnB/UqUY2L2K1LcOyhmXjPoh4NZpzdZvJ5mIk+DbX1ZviO1cKHvXFIWPGssuZJvCePe/l8TB0/XO3R0KZh/gmCY97Pba7FEer/zKy/xdmNGD1oGmK7zceyqQGoV5q9sYrAtct4rPo+AmO8tRUmMq4bhv7UVx4DEREREZG1MeioiOI/w5SlSRg4eTR8zbWjEuKxXWkk9elkpsVhIilqPgY8PBmrE4Duzz8H/9tdRZFsi0sAhk30xso5n+FQITOYJEVuxBaXYDzol38wYJGMEnTlOBmB0YPG4/u7QrDhi/GFfx5ctPDB1RHH/oxRe1B5FjdkSIxB2BitgKdPAAa/GYHj2lUFkro6IyZje4eZ2PBu/9IdclZqpLdOhHLaC23vMqwhIiIiIrImBh0VjdTS+M9CnA6cidd7n0HYkOEI25N7Gslje7fiNILQNb/aBFnJ2D43CAEjv4DjQ/3RRlttmQjMeXUhVu87U+TpN6nyaRE8CzNcF2J6eEFTzZ7B919FodHzQfAvYc7RpuezaPTdEiwqdJaU3DJkWtuHZyGpfwimtt6P6YNkBhIZluKH3sMnY2mk8n7Xtr3VFRyPi4djR+NQsWRsCQnCAKnR4XNzeIssZgvwpkZh+oPDsd59FL6OikHM2lnw/Xe/8hkuRMZ+hA4bhdVNZ2JrWCnX1SlFpyNexSsbge5zX8XA2tpKIiIiIiIrYtBRkWSdweoJWrf6d2Xsfz34dgM+eboXBoRE4FiqbBSPLZ/GA/39zPb2SImPwJR+AXjuG1dMXB2Fr8f7FT68JZfmcLwSgelP9oZ3R2U/8yMQW8h0lOlZShPRpYQtWKqY7L0w7L8z4Ro6Lv8pWk9GYf1+bwzzSUHYqAB4t+wAv1HLcUh9PxcuJelm3QfHjuMxI/gslo4Yj9VntZVCeQ+eTjAfVqTsWYjBT0nh3hrISExARsNgzPjsB8OwlG2fYWynJCwa1RsDZsYgRfub3I7jYCTQp2Vz7bIjmvefjKkTJ2Px2iittoZhmWgyq61Ryo6NWFl7PP47tT9auNdAPa8ATJ0gQ2ESkFTQrDUXj+NQAvDwkPLakwM4vXoUer8WhUYWF0glIiIiIio5Bh0VSMbJ/Yi93AvvLdMKhtq7wX/MckStfxWe26ahd4/xWPrRciw664hhQQG5ax2kxGN1SBD8Hp6FQ53mY8fu5RjpU5zx8j6YuCQK8TEb8enYLkiJmIbBAR0wYMJyROcTeCT9FQN08rSgMGoGoqV4JXuKVExZycrrNwujH5awQuvF4BOAASExaPGQ663hg+bQ958hVnntV8+fj9O9PkJU1EI8/Mc7mP7NGW2LgiRg/Yt+GBxu3NYR3Scr7233KEz5TziOae+ljF3voPeD72BLnuAgKWoWBj/9EY55v4hV30dhQ1gIhvX3UQMHdVhKE28MVD5jMV88C6wchdBdZqKShMPYnuqHrncbP0810KKLH/zv9YOvl5tJfY0acDQTSGRkpACNlO1Mr3OQ/5zBvsO5e2vl4t4fY0d6YfWEYMyJKmC72yIDhz4KRm/ltW8zMQIbJlteIJWIiIiIqKQYdFQgjl79Me+L+RiYp0Ciq3cwFm8Lx0SvKMwJ3YiMhqMwpEueZkWVJBw62hoz1iuNuVml8AtwbS90HzkfX++Owtdv9gci38HQAD9MjyrBrAoJEQh9cxpW/pr/IAEqp6SIp/QU+ioFHZ//CFu1Hgwxa9/HxP4NceH4ccMQjcVRuXtFZMVj+5eGkKL7G+GYF+SNeu4BePAhIDZqf56pWZPx7Zuz8G2CyfsjwzCtq6+XSW8BFx9MXTYT3Y/OwktL49VVjvf2xzCXbVjxnWl4koELR8/AdfgSRP1vPPzdtdVmOHYMxsguGVi5y7A/U0lxUTjUsAvaFFC4tCD1OgTAd89yLI3UwoqMBKz+5Av1bPSZgsIeR/hOjsCG0Y5YObIfRkdYEgyVhQzELgzG4NAUPLxwA75+0ZshBxERERGVKQYdtsLVB0MG+ylnHDFwcjDa5A0yXAIwY/VMDPEu5VkP7N3gGzwTG6IiMKN/EHp0yrv/ZJyR8gzNPQsZIqM0Yue/g1ifVzGkM5tFFcsVbFk0Gas9Z2Lr2vkY2d8bjbQeDPW8fNA9aDzeWx2D/evDsWFqnp5G8VFqLw/fae9jasebr3uj5gHAhRRc1i4bnMGf34Rjn2l7Pj4OqxGAtsZRI0YNgzB1og+OhS7Bt9KLw94HDz/vidhvokxqXziizcgl+Pq1AOW9eQWxS8ejt5/0RJGhM/Px7VHTwM0JqKqdzUX5u11RcHzIr4i1bkw0CcbipQGInRBg6AXTrj/mOD6LkV2U58XDTdsoP8pjeHE5NkzrgO2vDcBzKxNwu2PC0xHjMTQsA0OWfoZ5D3G4ChERERGVPQYdtuJsBP5vptLgCgzBxN63YQpHV28Me3cyusuQmlyScPoPoI1nwTHH6YgQ/F9kQ0ycEYwW5bTeAOXnOPZFZGDY0wX3FHL19kGLXO+PDESvW4LTLsEYG+SlrTNwdHEFDp7J3fsj6QwOpXqjhefNQOTY71HIaBuA1mbeXi0eHo6B2IZvdhh6SrTp8gAc90eZHWKV8l0IBi9SHsOyKOyPCsfE2lF4Zch4fGvcNusMju1V9uGRZyqWjDjs3ggM6VLwDEeFqRcwGRv2xRlqeew/jP1zOyBlj/IY3C2poOOIFsOWYOssP0TPDMLQj+JvW9iRsW8+RrwWA/+5SzAjoLCQhoiIiIjIOhh02AIZNjBiGrYjAG+/Wc5mX0iIw/dnHeHfOndD1lTG0XBMnxkF/1lLMKZk7UW6jS5fu66ds1DGfnwfkaHOtpI3IHOtL43k60gxHaUSv195j3dAo5whIgmIXhePRn06oIW2JhdXb3TtAkSf1LqA3NkBfRCF3XG3Dq86dngbEDwKw9q6wdXdG0NmvYOJ7lH4vxX7gawriA4NwdLUAAzrlft9nBEThZXoj64+xvAlASsHtcacPdrForB3NNTycMlA7KL5WF3E6XYbDTGEHYdCg29P2KG8note/wwZw5ew8CgRERER3VYMOio4CQlGDxqP1YkBmLdpCQYWUGfgdjj03Wc41HAUHjYz24RQ7/+QWYjuMhMz2DiqoJqjY5Ajvl24ENsLmYHHVEpkBFam+qhDXW7h3hz+iMNpY/HSrDNYvyIcjsN63ZyCNn4blh70xJB75e8zkJJ3SpSMszj0G9CijtYLQws+thw9brhsokWHIDiGz0foxnicvnhF2Zcn/B/1QsZ3MzGgqx+Ghjti5NJZGJLr85WB2B0RQIAffHM6eqTg9EHtbHFcjMfq14IweCkwctmrRZ5ut9GQhVg1xksNOyyp2ZFxdj+id8UYlqNSESUJx/Zql3ftx+kipCWnI+YjLMEL3ZWXI9a4zzxL7NnbPbCGiIiIiCoDnfrfKQf1+rnFHmFOt0PWFRz6KgRD39yGDO9nsXjpZHQv2jyxBokReC5gGjA3Cp8GFdzVPHZ+a6UB9iy+PjoZvtq6AiWEY/CD78BzYRTee8hkOI3xNoOCkPRdBI51mYmtYeWsJ0olceL0OTRr5KFdKgG1V9F4rE6ogRa9BqDPvT7o2sT0DVkPbe71MqnPcQXfjvfDK5iP/Qv7567boUrA0gf7I7TpeCwe1hDHwpdgzi5PvPf9zTAvZd9HeOXtqpi4ejjaIBmrR/bD6trBGPJQFzTCGfy0cj6W7mqOGd+HY5jWEePQN/MRW0fZJsDzlgKZpyPnY87Cjdgen6z1hlAeS9su8B8chGH9A9Ai753MiMF0v+E4Pc30s3MFW14LwCt/PYu3Xw9C94Y1tfUGjq5mZl5JjEf03jh8v3EJVktBUvf+mPrRNAwrdj2dDOWzKmHJWXSfu0G5b/kHiEkRo+D3WpR2Ka8AzItakifcyZ/h+0G7kI/uFnzPEBEREZVXpXbsTFaje+0QMK+tjkFHRZN1Bcd2hGP6awsRfbEG/Me/j/dG+aFecUMCawUdWsN3fdP5iFrSP3chUu02t0shxeEL8enkgOLffyqRUv2yzkpG7DcbsD5yI2J/T8ChRJNf72v3x+KN89HH+EbIiMfKCa/iUP8vMM80BDMhvX3+b+Q7ap2MeoFP4u3XJqN7E+3KW2Tg2HdLsGj1NmzflYAU5b1Vr2MvjP2/aRhWrGmULXByI155dRu6vr8wdxiQmoBvFy3EJ5F7cCgh9zCZYUvjMCMgd8SSsX8hBo+LgmdgEB4aHIA+3p5mp6EtkqwzWP3q+8gYNRPDWhaxWwgRERERmcWgo/xj0FFhya+1wzEntT+mjgqGb0mHqlgp6EjZ/xFGL6+BGXOD8xSgVKREYfqQJXCc/D6mBvLX3duJX9ZERERERJbhsXP5x6CDiPhlTURERERkIR47l3/GoIPFSImIiIiIiIjIZjDoICIiIiIiIiKbwaCDiIiIiIiIiGwGgw4iIiIiIiIishkMOoiIiIiIiIjIZjDoICIiIiIiIiKbwaCDqBKzs7NDVna2domIiIiIiMyRY2Y5dqaKga8UUSXmWNUB6enXtUtERERERGSOHDPLsTNVDAw6iCqxai5OuHItVbtERERERETmyDGzHDtTxcCgg6gSq1HNBdnZ2Ui5yrCDiIiIiMgcOVaWY2Y5dqaKgUEHUSXnVqcWLl6+wrCDiIiIiCgPOUaWY2U5ZqaKg0EHUSVX1aEKPOrXxdVrqUhM+hfXUtNZoJSIiIiIKi05FpZjYjk2lmNkOVaWY2aqOHTqf6cc1OvntlHPElHlJWMP5Us943qm2j2PiIiIiKiykdlVpPCo1OTgcJWKRffaIWBeWx2DDiIiIiIiIiKq8IxBB4euEBEREREREZHNYNBBRERERERERDaDQQcRERERERER2QwGHURERERERERkMxh0EBEREREREZHNYNBBRERERERERDaDQQcRERERERER2QwGHURERERERERkMxh0EBEREREREZHNYNBBRERERERERDaDQQcRERERERER2QwGHURERERERERkMxh0EBEREREREZHNYNBBRERERERERDaDQQcRERERERER2QwGHURERERERERkMxh0EBEREREREZHNYNBBRERERERERDaDQQcRERERERER2Qyd+t8pB/X6uW3Us0RUeV25loprqenIuJ6J7OxsbS0RERERUeVhZ2cHx6oOqObihBrVXLS1VBHoXjsEzGurY9BBRLieeQPJ/15Sv9Tly9zJqSrslfNERERERJVNVnY20tOvqz8Cyo9/bnVqoapDFe1aKs+MQQdbMkSVnIQc5y78g+rVXOBer46aXDPkICIiIqLKSo6F5ZhYjo3lGFmOleWYmSoOtmaIKjnpyVG7Zg24Vme3PCIiIiIiU3KMLMfKcsxMFQeDDqJKTLrjyXAVhhxERERERObJsbIcM8uxM1UMDDqIKjEpPMoCS0REREREBZNjZjl2poqBQQdRJSazq0jhUSIiIiIiyp8cM8uxM1UMDDqIKjGpIs3Co0REREREBZNjZjl2poqBLRwiIiIiIiIishkMOoiIiIiIiIjIZjDoICIiIiIiIiKbwaCDiIiIiIiIiGwGgw4iIiIiIqL/Z+9/AKOq7vz//xWpxuISSyUUl2SVEKghuARwCSwfA9oG5GNAa2hWQrHEwhcolKgUBAuigiCxtGbFFT+whCUlrtmkFZJWgSqQjwj5LSTZmj8fMUnRhJUlFJawpBkL3t+9MzfJZDJJ+JMguXk+2hvmnLnz5965Z7zv95xzLgDHINEBAAAAAAAcg0QHAAAAAOC6duzYMe3bt88utc5ax1oX3RuJDlzfLtr/evNXdyRFYYOTtbPGLgMAAABwjH/5l3/RfffdZ5daZ61jrYvuLcD9d2mxYayNdN/E9a0me66il+XZpebGr83Tlvg+KkgZoqmb7UofDev4sp435q0Y5WQmKtyua+Zohp7IkB57KlEjguy6tlx0qbb2C7vQvsCgXgrsYRe8+NveWW+W6pmRdqHB8WxNv69Ci44u0Qi7Cu37Y9XnGhB6u10CAAAAri9W74znn3++sUfHzJkz7Xv827p1q+688073ej/84Q/dtzsK587Xv4BlJdJLQwNIdHQx7sC/Yq4ql0TZNR5WcmPDwKZER8Ntb63VW9zPezRJlcui7ZrmqjISNS4/UUWpcbqUPEftO0sUlZxrl9rnN3lh8t1eaxve/Y65blRTIsWdJKnJ1uMxFVpgJzpctefksnp+9OyloED3avCDL2sAAABcz5KSktzJiysxfvx47d271y5dPc6dr38NiQ6GrnRFmxMVNnhIs8W3B8e+ZTHtruOtqiJP4yMG2iVfldqXVaYZCbFNSQ5/w0e8BPXtI8WsUv7RUlW2ueTppRj7QZejJldPREcrylwiIszti1mhfdqqqfa2Rtzjue+J3FP2A9Cp6qq177VkTY4Z7jneouM0/blsldTa9/uoLcvWymkxirDWjYrR1MVpOuhn2FFNUYZWJsUpyv25Dlf0Q8l67cClfKbntDPZesxcZZ6wq1pT/IbGDU5U+qd22XIiX6/Nb3jdaE2Yn6KdR132nR5W0s27fbVc2nptz/uLWJUvz7O6VPX+G5r3kL1PrNdMWq3MsnPue1t18ZQOpibq8ewrP85rDqVq6txstTbq61I/q1ZdPKeS7NWaah8bETGJemJzvmr8Dkszt8c8jiZEe/Zh1APJWpNbae8jAADQHV3KvBytYa6O7otER1c0K6NFwiBrln2fzRqi0t467uElZ86ZS5lKiqXQoEC7bPeGaFC8R5vPzFXCaE/XiBqrt8b8bFW1k+zoVP3itcV7+/JWabxmKsu7zlz89V5BRzulnU9N0Ly3XBqTnKrtaWnasiRGrrdXaHJCigrq7NVsriMpmvrQCh38ZpLWmetuXz1dgXkva/oMn3WLUhWTkKqSPvF6wVovbZVmh1RofVKsGdhX2yv55zr0uta/Yxfa5NLB32xU1aREPXSHXXU8W48/kKQNp2P0zEbzdTcma0T1m3oiIVmZx+11TOEPW+/J35Kq+VbvpKgYjQj2rNvCpzna9k6IFnwvWlarqnk7WeOe2i7X2GS9bj3HxiUaX5+tpQ9N05oj/sP8miMZWvpIrKa/VmTXXKYTRUpfHq+Yx95QwQW7zkeV1aPqodUquN3ns4pboV1n7JXa5FLB+mmavOyQgh9b5d4/6/4hUPtSkjR9fVHzBMbFamXON7dnU43GL9lorrtRi+6pVvpT8ZrXzucNAAAAtGQNXUGXcDJrjjFgXaFdanJkXYSRlFXT4ra3FvWH1xkDBkX4WaKMnze+RL3x4QtRRvz2KrtsqTf2rowyYjeW2mU/rOf+UZZx0i62rsZ460cRxouH7aIP3+21tsHvup9nGUmD1hlH7CIuTeVn/2nfuho1xoe/KzTOXrCLDT7aaMSYx1OzY+5CqbFhfIRx15O7jbN2lVvFdiPeXLfZMfXxbmPHMft2o1pjx0LzGB1mfta+r9fAeo2J5vE5MdY8lucYb31u1/tzOseYax7vz35Qb1fYzz9xo1Hs/fzn9xvPDvPzvv0p3WjEDoo1j9OG52ypeIP53r6/3fjMLp/8YLdxxPeJ7X3Voh0dM4/1e6Pc7TTuZ8vN495/e29dlfHWnHuNu8zH3TVlufG02f78ttXTu41kc5tjzfbXbEtO5rjrYza00f4buI+BKCP5d7V2hccn26aZ7/9Bw/spzuYsbFHX8F0zYNhi493TdhUAAOhW7rzzTmP8+PFGWlraZS3WY6zHdqSOOXdGZ7JyG1aKgx4dXVFHDV0ZucTT82FHskKHLtdudy+IDM1StEL72euc2aNt2bGaPSnErrAEanzSYoWsX6X0SrvqmirSGp9t8x264r1cTbd+XIo+GjMpSkG+k8kOjdZE8599FV6/xhflaMPxEC143GsYlCVssmbHSeX/mqcSu0qDYzWloZdFo14aExMj1VWqvJXhEyWbF2t9yHI9/3iYXdO6qncytKt/U28lnditt9+RJi5IVKT39vSMUcK8ELly9+hgK8NxPM5p58ZUlU9aqAUjW5kcxpWvzE3VmvjYZIXaVcFjY1tO8tsjwtyv5r95Fary1HicOqXqu6fplR15ylkd73/y4DadUs2x4Zrxi2zl/3qVEgbb1T5qD+3RzrpozZoe5e510ig4TrNnh6hqU44K2unVVfC7jaoy9+/sCb3sGo/wh5I0RZXKzCuza07p3bf3SJPmakaEXeVmftf8w1yF1uXqnUPtDOMBAACO1TC56OUsHTkJKboeEh1dkZ+hK9bSMExjxJKW91lLi6ErtprSQp0cN8QTMLlq5VKYwgMrdfCAGZBt2KhdZrBZvG215j0Sr8kPRHsSCAkZqgmr0JoNe9Rm3NcRvBI7nmRNlJ7xs30NS9GbyzX/uQwV2WWGr3xFLnoGJgR6Rcklh39vHl/f1Yhmwayll4aMjpaOF6qinfkf6u3nvdnPVXqsYTFPrg/RS8/HK9zP/c1cLNPOTUUaMfvBxqRGbWG+9ila9w1vHphbIod91/y7R8VtJfeKM7T+nRAtmt36pL21ezKUrkQ9FtvyNXx5JtT1SZiMnKPdry3RlIj2H+9flOa/m6pn4iJaJqe8uOqslh2h8P6esre+/cKkujKVN8xBcjRNk6OGa/LmhsSFpUwH3zE/qwlRzZNGlqAI/f1oqaqwwjM3SG2hPsyTxoyNarnfBke5E2a7jlZ4ygAAAEA7SHR0e+dUcCBPCcPtyPN4tQpGD1TwiT1asypDJUGxmj85WiPvidVjL6Rq+5u/V1lZqSrzc5Wz4x+V8P7LSi/2PLSFL1w6ac/50fpSI1d7V6H1Suy0lqzx5jqWp9cOX85siegUZUXapUAl3NOQ1XCp5vNqaWiIgv0E2KF/Y61Xo7Nt/nB/ToUH8t3zXwz3nf+irkjrf/amQtYuV4Kf4NyX61C2Nhw3j2uv3konT1nB9EBZc+m2EDpQY8xtqK31P2eGuzfHplRVxcxRwlC7qoVq7di2R6Gz4zWmlQ4fjS6WqWC3FBg/Wl/dNbHKVO41L0kDT7IpvynR4Y+rRifNx0aG+JuoJESh1sd9slZnreKpGll7Pryfn3V79Ff4aPPpzlhJWAAAAKB9JDq6MOvSqw09Hdpa2hy64SrUh7lx+vsoT9RV+3GRSiKsIGSOct5N1fPJyVo0K17jx0ZrjBmgBvXupcCGIDUwWot2bPTpau7l0GpNtq+M0voSr5WH7PU7khkwtfaLOq6BuiKt+WmqTt6/XLMahoXonE5ao1i+GahbPRXN3Wj9KVNVG5NcVmUv1tPvhGnW0/GNwz7crIksn0pS+p3L9fzD3sOsWnNOuzIzpBmJmtjbrjLVfm71SLjJ/yWJzePeqq6qaSUTU5ahDe8EakZSnFqbg1TFv9XmoijNimut0TSwJvFcrPVnYvT8454JS6+14HtiNEL52rzdZ9JQ87NN35JvF2yDk5RTVKicWV7bdabGPeQmuKf/luj+Himu9vQIO1PtHrIUeIu/Lb3Z+kik6prO7z0GAAAARyDR0YUFx2+0ezpY82p4XXHEugKJ16Vd2xq64crPU/roaA1xxyJmcJWfqylRQ9z3WVxnfK7A0sC+YktgSFjr3d877fKyp5Q5y39Sx1qil+U1G+6y5oj9MFwbn+Zq6SOJSu+drKxfxCu0tePjclw8p4I3EjVhWbUeSt2oZ5rNf2ElBeZq6bFp2n6pr+dz1ZOr59LBrI0q957vowU/V3jx52K1di6L19SMIC36Veol9U7pFHfE65lZYSrfnKSpT6Uq8/187ctO0eMPzFH5nVajDdGtPT2rAgAAANcTEh1OcKJC5fbNy3NOu7IzFH42W08uz1bJiXztfTtGf984P0GR1kdHKyKiZTIhLGK4oqIXa8dXMkKkjxI2+0uaeJb8tWYQ5jXc5RnrUp+4JqpyV2jyQytUck+Kdv9qjiJ9AuGbv2bf8MN13hrDFK3wholwG9QWafOs72rqlkAtynxTLzWbGNfq5ZGs6Rkheumfl2jEJQbeJblbVRA1U1N8h5h4Tyjiq87lnk8ivL+fxKErX++muxT5eGzL+SgaWBP7pkszEnwmYvXmThJN1tOlw/XKjgzNH9oxaZgrE6gRi95Uztp4BR7eqqVzkzQvtUihyW/qlZnWRK9hCm1r+psebb13l2qtSwlbw+Ssorlu62vXynXa/GdgSOs9ZQAAAAAvJDq6qhPZerwh6eB7xRGrnLdC0Q3lwSkqsB/ma0jsRv0yM0Nbpkubps1V+tg43dcs0IzRS3ktkwmeXiRfsdp8rZ+2RDv9zCGAa+ziOR1MjdeE5RUav3GPclbH+elZ0UchVnzsexUR28kTfubH+DRb82ITldlviXbvTdOsKN8JOIuUvixPrro8Lb2v4Xj3LO6ePTLrY3zagJ+rnjQIDYk2/1b6n3vipDW8IkKhfe2yl9r3c5WuKCXEtH6llxZXePFReyjVnSQqv3+j8n69ys8VZ74CPXopMn65svIK3e2+LC9Dz8eH6eQn+VL/4RrYVuYhOMQ9wXGzq+40qtFJa1LXsGC5d2e/EI0x/yk/5meY3cUaVRW3NtcHAAAA0BKJjq6qX7y2NCQdrMvDjl6l/Q1ln6ErlUeXaIT9sOZ6KTwuRpFm3BUUZAZax62rG6Tp8bV5qmnnspHXVIurrtiCopUwtVZP/8gMYq1fh/GVKdk8TdPTgvX8bzO0aHTrP/OH3x1n/s1XSYsrl5xT6SEzeI6JcB+Pbmf26Akz8K+Iz3D3Kgj321tjoBLS0rTdz/JKkjVfRIRm/cIqT228DGtbVz0JHjJcocpTydGW016W/MfvpZ7RimyRgDing3typaFxGtNacsLPFV6aKXtDUx/bquAVOcpKjvY7Wet1w9yWXVvKFPqo+d1hV/k3UCOtj/tQacseZ7Vl+vCQNP7uIZ6eHP2GaGR/ad9HpWqx5496JrUdM6T9ywUDAAAAFhIdDuC+POzQgS1+nb5k1kSOq1ardsVqvf5ahn55R7bmbfSZgPCr1MZVV0LjU/X66Dc1PTX/+nm/3c2ZXG1YX6mEX7Q/n0TQ2Fgl9CzT5rd8Pq/KHG3KDdSU+AmNwxNKMl7WzrDF+qdFUW0Ma+ilcGuiXH/LYOuZghV+j1UOs4eLtHPVk4hYzTDj6fRtuaryTvbV5Snz9WqFz5usEb5JCPeEvuaxOHF4YzLFl78rvDQ5p50bU1VuHcvxlzKR6lepYZLUOD2T0N6Eqr00ZlK8Aou3KvNQ89ZZviNNO3vG6R/ub0iKRWjidHPHZ2RoR7MeWi7te2ujqsLm6qEouwoAAABoB4mOru5imTI35SthbHtBh0dNne91CzwTOa7Ucv0y0frFNFDhianKmt9WcHmJOuLysj2DFflN+7ZpxIJ8mXGvl0CNX5Kn/CVfzZUpYPq4VLsUpsDaIh08kO9nKVJVQ5xrXa54RYxOps3V1KfMYNe835rgcvq01Sq5f7kWTWjoZVGtkvxq6Xbz1iF/z2kuR9u8Dq1/7V71JEwzXpyp8LwVmjwrxT0B58HcND0xLVnp/WbqJX+XGCorVKb5z/iI1noc+L/CS6OLpSp+RwrvWasCf9tpLgXHv4o03intfG6J1mfned5HboZWJsVoakag5v/zqubbcjRNk6OGa/Jm66o1TYLun6Pn76/R5rmJemJzrvk8ecpMSdLUVWUav2Jhs+cIT1ytWWF5WvpIkta4XzNXm59K1LyM/pplfiatzn0CAAAc79ixY9q6detlLdZj0H0FuP8uLTaMtW13Qsb1wbqkbHTFXFUusaJ9lwpS4jW9cq7yNnpd0tKav+OBai0oSnYPWXFfOUU12rE4TpnjcpVj/WRtuXhK+9bM1OMHYpT1a38TORZpzeBEeY8Wac6av2OjEnwnj7QcSVHYtK12oX2z3rz6SUM92ymVZ8/U1NMr7H2Etvyx6nMNCL3dLl0Z9zHpng+jNS2Pk5oDb+jZVVu0q/KcAvtFaeJjyfpZkveQjfaOPZPV06eNz9jzvuT12i4dXDVa00+tUlFqXJuXH64ty9b6F1KVeeSUXL3DNDF+rhYtiPM7fMbzOi69tDfNf4+WTzM0NXar7vv1bs33nfzUYrVX9zw7rRu/Nq+Vqyd59lN5q/e3ryBliKYeXaX8zfE+k31aV7pZrpXb81RywmxZ5n4YExOvBYuSNMa3zVuJjoR/lBZkNL/ErMX8njm4cZVWbtuj8jOBCh4Zq9nJSzTL3xCn2jJl/mKV1r9dpJq6XgqPNV8vOVlTBpPGBACgu3r++ef13HPP2aXLk5aWppkzZ9qlq9cR587oXAHLSswAYGgAiY4uxjvRUXsoRVOfO6dF1q+r3gGWO8kgZbnn5rAuxRqjpWYcGtgvTuveTNGUhnVr87Umeb/uS12iMX6jPiuI2qhwv8kMz31DD2zUFD9zBNa8bb7P3Fg/wZMvz/srn3f1iY6ClOGautnlDpwX/DJN85tdghT+dKsv6zO5mhe9Qn3TDun5sdfu2Ch5bYIm75+p/ZmJVz68DAAAoBvbt6+tn4T8u/POO91LRyLRcf0j0eEU1jwCdOnGFepOX9ZVGYkat2mccn4/59oNg3Dla2V0kk6uztfrcS0nPwUAAEDXQaLj+teQ6GCOjq6OJAdwSUITM1S59xomOSyB0Xq+qJQkBwAAAHANkegAAAAAAACOQaIDAAAAAAA4BokOAAAAAADgGCQ6AAAAAACAY5DoAAAAAAAAjkGiA+jGbrjhBl388ku7BAAAAMAf65zZOndG18AnBXRjgTfdqPr6L+wSAAAAAH+sc2br3BldA4kOoBu7pefNOne+zi4BAAAA8Mc6Z7bOndE1kOgAurFet/TUl19+qdr/IdkBAAAA+GOdK1vnzNa5M7oGEh1AN9fnm9/QmbPnSHYAAAAAPqxzZOtc2TpnRtdBogPo5m668Wu6ve9t+p/zdTpRc1rn6+qZoBQAAADdlnUubJ0TW+fG1jmyda5snTOj6whw/11abBhrI903AXRf1thD60vd9cVf3N3zAAAAgO7GurqKNfGoNScHw1W6loBlJdJLQwNIdAAAAAAAgC6vIdHB0BUAAAAAAOAYJDoAAAAAAIBjkOgAAAAAAACOQaIDAAAAAAA4BokOAAAAAADgGCQ6AAAAAACAY5DoAAAAAAAAjkGiAwAAAAAAOAaJDgAAAAAA4BgkOgAAAAAAgGOQ6AAAAAAAAI5BogMAAAAAADgGiQ4AAAAAAOAYJDoAAAAAAIBjkOgAAAAAAACOQaIDAAAAAAA4BokOAAAAAADgGCQ6AAAAAACAY5DoAAAAAAAAjkGiAwAAAAAAOEaA++/SYsNYG+m+CaD7One+Tufr6uX64i/68ssv7VoAAACg+7jhhhsUeNONuqXnzep1S0+7Fl1BwLIS6aWhASQ6AOiLv1zQqdP/7f5St77Mb775JvUwbwMAAADdzcUvv1R9/RfuHwGtH//6fPMbuunGr9n34nrWkOggkgG6OSvJ8fnJP+mvbumpfsHfdGeuSXIAAACgu7LOha1zYuvc2DpHts6VrXNmdB1EM0A3Z/Xk6H1rLwX9Fd3yAAAAAG/WObJ1rmydM6PrINEBdGNWdzxruApJDgAAAMA/61zZOme2zp3RNZDoALoxa+JRJlgCAAAA2madM1vnzugaSHQA3Zh1dRVr4lEAAAAArbPOma1zZ3QNJDqAbsyaRZqJRwEAAIC2WefM1rkzugYiHAAAAAAA4BgkOgAAAAAAgGOQ6AAAAAAAAI5BogMAAAAAADgGiQ4AAAAAAOAYJDoAAAAAANe1Y8eOad++fXapddY61rro3kh0AAAAAACua//yL/+i++67zy61zlrHWhfdG4mOrupMrpYmpepgjV32UbI5UdPTyuSyy13WRftfb/7qjqQobHCydrayPwAAAAB0PVbvjKSkpMbeHNbtthbL1q1b9fzzz9OzoxsLcP9dWmwYayPdN9E1lLwRp6mfL1HRczEKtOsaXSzTa99NVfCbG5XQz66zWAmCHp6bzdSdU+1lZ0TO6mRtsMLvaPHqHhddqq39wi60LzColwL9vLea7LmKXpZnlzxmvVmqZ0bahQbHszX9vgotOrpEI+wqtO+PVZ9rQOjtdgkAAAC4vljJCytxcSXGjx+vvXv32qWrx7nz9S9gWYn00tAAenR0NVay4swebdoyRK8kW0mOc9q1fK5eO3LOc7+pdneaNhzP09KYIQob7LWMXKFdtfZKXgo2RCsq+nKXCZoQG6/NR+0n8VG7e4Wfx7S+rC+yH+jPrAxVHi11L1mz7DorkXLmnHtx2Qkc75SLq9Zz3+UncHBF6qq177VkTY4Z7jnWouM0/blslfg53iy1ZdlaOS1GEda6UTGaujjNb++kmqIMrUyKU5T7GB6u6IeS9dqBU/a9bTmnncnWY+Yq84Rd1ZriNzRucKLSP7XLlhP5em1+w+tGa8L8FO082vxgKkix7mtraeu1Pe8vYlW+3evKpar339C8h+x9Yr1m0mplljW1a78untLB1EQ9nn0p+8S/mkOpmjo3W611hrrUz6o1re6nWX5es7ZMmc8lKjrKWsf8vKct0eZDV75tAACg67uUeTlaQ4+O7s7q0YHrX8UWI37ORmPDT0cZSb+pseu2G/HD5hhvVXuKxvlDxovj7zV+XmiXbZ9sm2bctXK/UW+Xr8ZnOcuN2EEPGs++Z78Hfw6vMwb8KMs4aRdbV2O89aMI48XDdtHHyaw5xoB1TRtzZJ297udZRtKgCGNAO0tSVhvvEUblZ/9p37oaNcaOORHGXffOMV7M2m98+MEhY2/WOvO4ND+DieuMI+ft1Wz15rERa342sT/eYuww1/0wZ6OROMrPuoWvGHcNGmXE/9Re74McY9OPHzQ/1yjzc62yV/Kv/uA6I8Z9DJht43O70q9648MXoowBC3OMs3aNUW0eW+Z7v+vRdcZb75mv+9524+kp5jre7cx09mPrPflbdhs/f9R87e9vNz65YK/s65jZbgfFGhs+8hRP/sY8zofdayStyzL2Ws/xXpbx4qPma5rt7MXD/lvtycP2+7rS4/zzQmPbzx4x97H5Xltpq5+Z7e8uc3/HPenzWY1abrx72l6pTZ5jY8DCLS33U2FV8++jhv0+ZbGxKcdaJ8fYMHOUuX2jjKd319orAQCA7ubOO+80zIj1ihbrsR2pY86d0Zms3Ib52dtIdHQR9UbxxmnGXWPWGR+6I4Ra490nvZIe5v1H1j1oxE4xgxfvwOX8fuPZYdOMbRV2+UpdqDH2rjGfe9RCY9vH7aRMOjvR4cud+DADZbuIS9NRiY4Pf1donPUN6j/a6E42NAvCL5QaG8abweyTu5sSCxYrYWclPzaW2hWmj3cbO47ZtxvVGjsWmoHzMPOzbi2JYL3GxCgjdmJs+4mO0znGXDOQf/aDhuPZfv6JG41i7+d3tyE/79uf0o1G7KDYVhMUluIN5nv7/nbjM7t88oPdxhHfJ7b3VYt2dMw81u+1EhxRRtzPlrsTfpeX6Kgy3ppzrzvBcdeU5cbTZvvz21ZP7zaSzW2ONdtfsy05meOuj9ng9Vm1ytO+vduwf9Z3mblNvsku8ztnh1U/3ufzAAAA3YaVrBg/fryRlpZ2WYv1GBId3U9DooOhK11KoCLnpGn7w3l6PDlbJe+n6onaJXp+ch/zPpcKrC7slUn651+/rGdqV+vp7Gp3/cHU1TqYtEQJYe4nuSJW9/WlD8boiaNx2r4nVTMGtzI3B7qhPhozKUpBvnOsDI3WRPOffRXWcWgrytGG4yFa8Hisguwqt7DJmh0nlf9rnkrsKg2O1ZQ77NuNemlMTIxUV6nyVoZPlGxerPUhy/X84+0f8FXvZGhX/7lKGG0fzyd26+13pIkLEhXpvT09Y5QwL0Su3D062MpwHI9z2rkxVeWTFmrByFbaiCtfmZuqNfGxyQq1q4LHxmpEsx1i6hFh7lfz37wKVXlqPE6dUvXd0/TKjjzlrI5XuF196U6p5thwzfhFtvJ/vUoJg+1qH7WH9mhnXbRmTY9qPg9QcJxmzw5R1aYcFfibGLiZGtVUSJG3+26cj9pDeifXpTGPJ2pET7vO0qOPpjw+V6HHN2pHW8PbAACAo915552aOXPmZS3WY9B9kejocgI1YtFGPa/Vmjy3Ws8/H+8JluqOq+TMBG35hVnuEaYZv1wupSzRmrXJenz/d/XSbJ9g5ZKcU0FGqtY8Fa/oaRnS7FzlpyW1DMiuuSKt8R3vH7NC+7RVU33rzeVq5i/AVbjomX0i0OvAKzn8e7n0XY2IsCsa9dKQ0dHS8UJVtDP/Q739vDf7mbzWdSRFT64P0Utmuwj3c38zF8u0c1ORRsx+sDGpUVuYbx5H0bpveC9PhZfIYd81/+5RcaWn7Fdxhta/E6JFs+OaJ3K81O7JULoS9Vhsy9fw5Z5/pqdPyx05R7tfW6IpEe0/3r8ozX83Vc/ERbRMTnlx1VkZnQiF9/eUvfXtF2Z+55SpvGEOkqNpmhw1XJM3l9kVDVw6e1wK7tnOl4b5WtarRQ4M8ZS99emjgebzlHgnzAAAAIA2kOjoinoEKzysv8avXq6E/tVKn5ao9JowzXhuTtOvof3j9fySIG1OK1XCM/Oa/0p6yVwqf/8N7TKDsqy8bL0UH3YFyZIOsDmxMWkxdbNVEaVn7MlJ/S1Fby7X/OcyVGSXt8RbPV5wzZUVmcdOoBLuachquFTzuRmsDg1RsJ8AO/RvrPVqdLbN+TfPqfBAvnkIxGh4sF3VoK5I63/2pkLWWu3CrmuD61C2NhyP1WOTmoLrk6cqzL8D1dffIRM6UGPMbahtdYbbc9q5KVVVMXOUMNSuaqFaO7btUejseI1przFdLFPBbikwfrS+umtilan8uH3TiyfZlN+U6GiNnZTatyzGbsOeiV0zi/wnH/0mMy5aR4508BgJSwAAAFwaEh1dkOtQqpZWJun5eDNAuxisMQ8HaXOu9y+pLpVnr9CPVknzl4zTwVnTtDS7TLXtdjP3b+DYcYq8kl4cX7h00r4ySutLjVztXYXW31VX2uA6lqfXDl/GZSHQ8eqKtOanqTp5/3LNahgWonM6acWx3wzUrZ6K5m60/pSp6oy75FdV9mI9/U6YZj1t92RqcLFamU8lKf3O5Xr+YT+9Alo4p12ZGdKMRE3sbVeZaj+32tFNCvKXhOjhubJPVU0rmZiyDG14J1AzkuLkm4NpVPxbbS6K0qy4Fl1afLhUsH6x1p+J0fOPR38lCcbge2I0QvnavL3InWhoZH626Vvy7YJtcJJyigqVM8tnuy701wNpadpuL688N1khH72ppQmxetw9tM7WL1r3RUkHt2SooM6uczP3w/Y0HbRLAAAAwKUg0dGVHElRVEyMoh7bqvL3V2hcxBBFPZioJ7OqdXZTtg5a0Yh1WcykGE3O6qPn92zUolmrlJObqLMp8Yp+ZIUyi9u5XGVHOrRak/1cSrb5Eq+Vh+z1O1K/4FaHDqCTfZqrpY8kKr13srLcQ6ns+qtx8ZwK3kjUhGXVeih1o55pNv+FlRSYq6XHpmn7pb7epzna9k6IFnyvo5IILh3M2qhy7/k+WjDX+c1GVU1K1EMt5h7xcrFaO5fFa2pGkBb9KvWSeqd0ijvi9cysMJVvTtLUp1KV+X6+9mWn6PEH5qj8zhhzhRDd2l5PscAQjRgbrTH2MiVxubbszdFL91u9PF7WzsakVogSnp6p8Mqtmj5tidZn5+ng+9laMzdWj1eGaLy5RuitX0W6BwAAAF0RiY6uZGiistJ/q/wiq3dDnl4yY42EF7OV82tz2RihD5+KV8QDKaqK26r8Xz2uSDsuCBycqNc/zNOWCdVa80i0IpKym09u2FliVinf7onR+uLZjstzSpmzms/D4b1EL8trNtxlzRH7Yeh0VbkrNPmhFSq5J0W7fzVHkT6B8M1fs2/44Tpvde2JVng/T7lRbZE2z/qupm4J1KLMN/WS11ATS1V2sqZnhOilf15yyUO0SnK3qiBqpqb4DjHxnlDEV51LVj+h8P5+xrW48vVuukuRj8c2n8TU25k92pYuzUjwmYjVmztJNFlPlw7XKzsyNH/oVxncW/MBvamctfEKPLxVS+cmaV5qkUKT39QrM62JXsMUeiWjwnqEKGHBXIVqj4581NRXJHDkEmXtWKWEnoe0edlcTX8qVQX9kpWVkuSecHXgt1rtJwMAAAA0Q6KjKwkMUXhQjUoqm49Vry3eo5o74/XYgtXKO2LNpREh14FUTY+N0eOv5avGGrLSo4/GzE9T0eFcZT0X17zbf5fTRwmb/SVNPEv+2phmw12eGWk/DJ3n4jkdTI3XhOUVGr9xj3JWm8dYi4C/j0Ks+Nj3KiK2kyf8zI/xabbmxSYqs98S7d6bpllRvhNwFil9WZ5cdXlaep+fhJfM+hirnKICzwPcSQnfq540CA2JNv9W+p974mS1ShSh0L522Uvt+7lKV5QSYlq/0kuLK7z4qD2U6k4Sld+/UXm/XuXnijNfgR69FBm/XFl5he62VJaXoefjw3Tyk3yp/3ANvNLcg3uC0ZbDgIIi4vX8m3kqs9puUZ75XRWv8FMVOqgQjfw2c+0AAADg0pDo6GoqszQ9q7TZmPnA00V6MrtMwRERjZM8BscsV44ZlMy+kKqYv0/S5iI7oAgKU+QdDukCXpuv9dOWaKefyRJxbZVsnqbpacF6/rcZWjS69YA0/O4482++SlpcueScSg+ZwXNMRGNPJKsHxBNm4F8Rn+HuVRDut7fGQCV4zQHhvbySZM0XEaFZv7DKUxsvw9rWVU+ChwxXqPJUcrTZrBRuJf/xe6lntNl+7IpG53RwT640NE5jWktO+LnCSzNlb2jqY1sVvCJHWcnRfidrvW6Y27JrS5lCH4258klSj1vJi0CF39l+8qLkna0q6R+v8e1NawIAAADYSHR0MVUVZe5LMHqnKgKjojU8ywzO7HKjwBCNSc5Q/htxCvraTXZlF9Tiqiu2oGglTK3V0z9K8ZnAENfUmVxtWF+phF+0P59E0NhYJfQs0+a38psl61SZo025gZoSP6FxIs+SjJe1M2yx/mlRW5dG7qVwrzkgmi2DrWcKVvg9VjnMHi7SzlVPImI1I0xK35arKu/Je+vylPl6tcLnTdYI3ySEq1Af5kqhE4c3JlN8+bvCS5Nz2rkxVeXxqXrdmmD4utYwSWqcnkm4wsyDNXHspjfl6j9ND7R6dRoP9+WCU2s0ZUniV3jlGQAAAHQ1JDq6FJcqSos0ZohP9/iggRrZ+5BKrJ4NF80gcnGKMg9UqsaOJIOi4pXwlY71v0ptXHUl1AoOR7+p6ak+gTOunY9LtUthCqwt0sED+X6WIlU1fDhBsZq/IkYn0+Zq6lNp2mneb01wOX3aapXcv1yLJjT0sqhWSX61dLt565C/5zSXo1cwsW67Vz0J04wXZyo8b4UmzzLb0fvm6+Sm6YlpyUrvN1MvzfDzuLJCZZr/jI9obdiK/yu8NLpYquJ3pPCetSrwt53mUnD8qzi6T2nnc/bEoNb7yM3QyqQYTc0I1Px/XtV8W46maXLUcE3e7H31J1PRG3r8uTTPfjSfY192qp54ZLKWvt9fs36erBFeX0s1uav1RGq29rm3OVfpzyUpetqbCpyfpnWTWva+AQAA3cexY8e0devWy1qsx6C7W1psoAuo3288O2iVsbfeKtQYb/0ownjxsPse47PCQ8Zn580bF2qM4pztxrNz7jXuGjTKiP/pFmNvRa1npcvmeY2krBq7fBkOrzMGzNhuFJ+uNc62uZQa22Y0bYevk79bbsRtKrRLpvO1Rv0F+3YDs+6sV93JrDnGgHVej0GrKj/7T/vWlXPv70ERbSxzjLc+t1e2nfxgozF34ij3/XfdO81I3nTIONnscy00XmzxPD5LO5+x5315v3a98eELUcaAhTnGWbumNWdLs4xnH7XakPk6ox405q7LMT6x2pcfnteZabxVbVf4OrbdiB8Ua2z4yC77+jzLSPLdNp+l9Tbo2U9X1EZtR9aZr/GjLOOkXW5SaxzZuNCIu9fcZ9b7MPdDovl98qHPZ+n28RYjbliU2VZL7QrbsRwjeeaDxrCGbWnjOc4eNo+JKfY+N7+7YmcuNjZ9cOXbBQAAnOG5554zzIj1ipa0tDT7WTpGR5w7o3NZuQ3zs1eA9ced6FhLx+Dr3sVzKvmoRuFRYQpUkdYMTpTebGOyzTOV2pe9URs25ar8jkQ982yyEoa2/cuo60SZCipqFXj7QAWfydbKH6VKz+Vpy8OXORHgkRSFTdtqF9o3q63tuESuM+fcvTrKs2dq6ukVqlwS5bkDrfpj1ecaEHq7XXK4M7maF71CfdMO6fmx166HU8lrEzR5/0ztz0zs4pMAAwAAfDX27dtn37p0d955p3vpSN3q3LmLClhWIr00NIBER5dVpPVRSdLWQi1qL563EiRvp2jpjgj907Z2gq0T2Xo8ZoXcXyU9+2jEw8l6aUlrE0G2rubtuYrOjVX+5vjGORf8sy4VG6PyeVef6ChIGa6pm10K7BelBb9M0/yRXXi4zjXSnb6sqzISNW7TOOX8fk7rl4DtaK58rYxO0snV+Xo9juEXAAAAXRmJjusfiQ4AfFkDAAAAl4hz5+tfQ6KDyUgBAAAAAIBjkOgAAAAAAACOQaIDAAAAAAA4BokOAAAAAADgGCQ6AAAAAACAY5DoAAAAAAAAjkGiA+jGbrjhBl388ku7BAAAAMAf65zZOndG18AnBXRjgTfdqPr6L+wSAAAAAH+sc2br3BldA4kOoBu7pefNOne+zi4BAAAA8Mc6Z7bOndE1kOgAurFet/TUl19+qdr/IdkBAAAA+GOdK1vnzNa5M7oGEh1AN9fnm9/QmbPnSHYAAAAAPqxzZOtc2TpnRtdBogPo5m668Wu6ve9t+p/zdTpRc1rn6+qZoBQAAADdlnUubJ0TW+fG1jmyda5snTOj6whw/11abBhrI903AXRf1thD60vd9cVf3N3zAAAAgO7GurqKNfGoNScHw1W6loBlJdJLQwNIdAAAAAAAgC6vIdHB0BUAAAAAAOAYJDoAAAAAAIBjkOgAAAAAAACOQaIDAAAAAAA4BokOAAAAAADgGCQ6AAAAAACAY5DoAAAAAAAAjkGiAwAAAAAAOAaJDgAAAAAA4BgkOgAAAAAAgGOQ6AAAAAAAAI5BogMAAAAAADgGiQ4AAAAAAOAYJDoAAAAAAIBjkOgAAAAAAACOQaIDAAAAAAA4BokOAAAAAADgGCQ6AAAAAACAY5DoAAAAAAAAjhHg/ru02DDWRrpvAui+zp2v0/m6erm++Iu+/PJLuxYAAADoPm644QYF3nSjbul5s3rd0tOuRVcQsKxEemloAIkOAPriLxd06vR/u7/UrS/zm2++ST3M2wAAAEB3c/HLL1Vf/4X7R0Drx78+3/yGbrrxa/a9uJ41JDqIZIBuzkpyfH7yT/qrW3qqX/A33ZlrkhwAAADorqxzYeuc2Do3ts6RrXNl65wZXQfRDNDNWT05et/aS0F/Rbc8AAAAwJt1jmydK1vnzOg6SHQA3ZjVHc8arkKSAwAAAPDPOle2zpmtc2d0DSQ6gG7MmniUCZYAAACAtlnnzNa5M7oGEh1AN2ZdXcWaeBQAAABA66xzZuvcGV0DiQ6gG7NmkWbiUQAAAKBt1jmzde6MroEIBwAAAAAAOAaJDgAAAAAA4BgkOgAAAAAAgGOQ6AAAAAAAAI5BogMAAAAAADgGiQ4AAAAAAOAYJDoAAAAAAIBjkOhAu1xnzqm2tcVlrwQAAAAAwHWARIfD1Balac3blXbJdrFI6x+Yq81F5+wKLxddcl20b3tx1dk3ZD42OlpRrSxP5J6y1wPacSJbjw+eq8wTdrlbOqXMWUP0eHb3bjcFKUMUllJkl7op2oOJ9gAAADoHiY6u5kiKwgabQUKzJUUF9t1B/YJV/txypX9qV1jK8rXTNVxj7u5lVzRxHXhZERG+zzdEEQuzVWOvI8XopbxSVR5tvmTNsu8GGriDtyFac8QuXy+s9xWdqHSfHGDn8ARv118gX6Q1UTFamecn4dkJ3MmMWd7fI9eHgpThil6Vp1q73Kmu0/ZQkz1XUdMyVG6XO9d12h6u6XcCAAC41kh0dCUXXaoNS26RcCg7PE+RDb0y+sVp0exTWrMtX55RJS4d/M1GBc9+UJE93BXNBN5ykxSzSvnez/nmTPte4ErEKLy/ffOaOqd9z0Vrsr/I5XiF9p0JUd8+dtkPK/jzThperfEDQ+xb11Z5eqIinsuz27+XExUqr7tZfYNbJjwbdXRgPniggu2b11RlhqZGrda+FjvhlMqPunRz32AF2TUtFWmNuQ86rpfBV9QeavO0MjrebyBfVZGn2tuD1dcu++OM9nB13wnXbeIWAAC0i0RHV1KTqyeihzfreeHufXFPtOa9bZ6U28NQIhMztHtJtAKtx1Rma/370/RMvHmS2cowFeC6Yh6nNZVF2pedpjWLkzT5gWj7WI/WhKTVSi9qLQDtpeDbb1VJRXWLIL+mygx0+g9USOvR7SWo1s7kGE2/Rj8Bu05UquD9bG1eu0TTH4lTlN3eox5I0sqMItW00pb79gmR6w/VqrLLjU5U66CirjrorspNVvRjGSq/Bt8lrtpqlRzIVXrqas17JF7RUfZ3Xky85r2Wp6rGIXY++gQrpK5QVcftciNzvxyWhv/N1QXdriNvaHLMau1r7fU7kuucqorztTMjVSvnx5uva/83ICpGk+e/oX2ftjJRUlCw+vYsU3m17/2nVG0ewqHfDmkj2XMpukJ76OzvhGvbHgAAwKUj0dGV9IvXFu+eF17Llvg+qnk72TMMJTpG4+72nASGPbBaBce3aqpVjhiu9d18WDyuU65K7dpsBrMPxZjH8HBFPzBHa94/rr6jk/TMz7NVlJ+voj1bteCeCq1PiNXj2dX2A5sLj4iR9pvB3cVTKshO1RNJnuA4ekmedHyLnkxaos0HrvSX+hBNjJ+ggvUbteuMXdWhXCp/J80dzFrvOSImTo+nmMF8cLRmL3pZOdY+yN+t7QtGqzw1UTHzs1XlJ7gK+naUIouLVHHmnMrfz3A/34Ros/0nvGG+wh49OyNZa3LLVHuFgVno/fF64A8va8PuzhkCU3skw53gst5zxD0TNHVZho7UhWnSohXa/q61D/KUszZet+5O1rhHUlTgL9kQNFAjh5bpyMfnVFuZp/Tnku2EWaJeM9fftXam5qXkquQKx68ERsUqoZ/5PtPL7JoOdqZI6VZAb73nu6M17geLta3QpfBJS/T81j3u9pD/65eV0Hu35sXGa80Rf8mOMEWOk/aVmQH9iSJlpprPZ7WvwTF64n0zQN+yWNMXp+ngFc8R0jXaQ+d+J3R+ewAAAFcmwP13abFhrI1030TXZXU1jq6Yq8olUXaNN2ucdIzK55XqmZF2lcWa82PaVrvgxRrOsjlewe5u3InabFf7Gr82z51kQdf0x6rPNSD0drt0hVo7htplzf2y0QwYrdtl2pywSsVj4/UPk8dpxB19FOhnqJWlyjzOJyyr1TN7MjTjDruygdXVPMYMfnubQceQRC2Kj9OYe1za8UiSSmanaXbQfq1ftVW1iRnKMduJu9eTzd1+loUp6+gSjbDrWrhYqfRpcdo8Llv750fYlZa220lbvNtQyeZErfw4WgkPT9Z994Qp2PsNejtubueDK1S7ZLeyEn16J1w038vIJGWaj3X1i9Wsx+L0wD0hKkmJ08qQFGXdXaMNG17WvjtXafdr8Qr13s/u/bdC4W/6fE/4sIbHTNgyTjm/n+M1JM7zHbPUjB8v26yMxu+t2ndWaGpuoGZMitf4+yMU2tNd3VKduZ2PJCp9bJqKVtg92LxYc3FMz77J3AlmQJ6UqIe/E62Q0pc1YU1/vfKrITr5+katORCil35rHoPNerl4Psvydr7bXHmrFTWrRuvyUzWlt11p6Yj2ULtHSxNyFfhYrBLGxiryjtYOBJe5nfGamjFa2/OXa4zPau5jOqVQQWesnn7JZtsarTH1OYpLKtPstCQF5aVqZVqtZryZbX7ezR/smPZwFd8JV9ceAABO1CHnzuhUActKpJeGevIc7kQHuobPs4ykQRHGAO9lXaH7rpNZcxpvt1RjvPWjCOPFw3axweF1xoAfZRkn7aJbs7pC48VBc4y3PncXmjmyLsJIyqqxS+iKKj/7T/vWVbhQb5w9XetZSrcbiYNmGttK7bL34ue++gv2c1yOC6XGhvERRty2CruiyWdmG7jLbBOJ3ve528wjRmNVtVkeFmUk/67WrvBwt59B64wjdrk1Z3MWGgOGrTI+rLcrbPWN21pqbJthvYfSxu1sWvzc5/M8l6p4Q6wx4HvbjU/scoN6s/3Gmvtg1Av7jbMN+/eC2Y6HRRjP7rdf7LxZnhhhxG4s9ZQb2N8vLb4nfJ3OMeYOijKe/aD5m68/27Ste18wv5us99CwnV5Li/vO209wmdyfxaBVxl7ffWhv34Ax5n1n7TrTkXVRxoCV+w3P6vVm+UFjwMSNRnGz49D6zruE7zb7OIzfXmVX2K51e3B/Fl6fbYMLVcZbc8zttV7Dqzm4j3Ov48bdZoYtNt49bVfYnNIeruY74WrbAwDAeTrk3BmdysptWCkOhq50Nf6Gr/jtwQFcIz0CFdS7l70Eyv2/xrLXUmfNETFQoWFNda312mhTD0+X/JIDpc2v6FGZoSeXVSs8IlAFnzeNSagtzNe+ntGKbOj90T9ei2YHa2dKhkrsqssRFBOnKXUZeuv95l3Vm7Y5WIE3meWewY3b2bS4VHVICr8jrKmutV+p2xF+d4xUnKdS751Ql6c1P3pTgRFhqvm0Rq6G/Xs0X7vqYhQ52H6xnlFasCBW5evTtOtKhm/0HqeH41xKz25+9ZLAIK9ttV4qMKip3Li4dPJTKfLOkKa61npttCNoiPm5KltHmo0gcWlfSpLSAyMUfqpaJxuHtpTp4Dsujb97iP2rfaBGzJ6riZWp2nQlww56RGj8oyEq2PTb5sfRtW4PvYfo74dKmYXNh9GUZyzR0mNmW+lZpKrGoSXnVHAgT4Gjhyjcrgl9OFkLeudqTeaVDcO5rtvDNfpOaK09AACArw6Jjq7GngXePf9Gw+J92b7Nic3va1yusEt5bY1OKki3XmEggm7mohVmtuWmKw5kmpiBpHU8XvB+pXPambpaNckvK+fZaVJGrg6673apID9XgYkTNMIriIy8P16hxw+ppMVklZcgaLTunyTtzC9sZVvrpS/sm60IvOWqd4Lnikmmeq95CUrSVit93CptfyNJ4/Oy9a59menyw7tVFROr+9zDhDzcAapydaTUrrgsvTTm/lgpN18FrXzg7U18HNzzKmeBtPQMVLD5KTR7reKtWpkRo3Vb39CsmDxlvm/P51JZqHePx+iBsV7DUdwBqvlZFl3RTlDkWOs42q2C1ubjvCbtIUiB3zRfx/uFzuRq/apTWvTzbD2fKKX/zr4Kl6tQH1rDgr7jlRy3EzZVB0pbTmB7Ka7b9nANvxMuoT0AAIBri0RHV9NGj47g+I2esnV52IZLxnrfNpe2xhn7da5WNWYwNO+elsmTqVcyABvOdqJCB+2bvlzn24l2rkbtIb3/ToRmTYqQoiZrQW8zyD9sRhyufO3NCFTCWO/5A0x9+mug8lXuNRFj8J1h7n/bvzJRLw0fGy29bQZFftc9pfJD9k1frtp2At+rUaZ9WdWaER+roH4T9PCkIu04YAX5lTr4mzKNuD+6+aVeg4Ld81+UH/eaiLHfQM8v/X9xl9oUNDxGY5StD4vtimZOqarCvtmCuQ9O2zc7QcmBbFUlxmti7z564OFYFbyd5w7gy836kijzPXsle9xX5bDmv6io9uodFKLwGOs4MAP09kREaaK53/cWtjKZ5VfUHmoP5WnX0JmaOFQa8b/nqm/2HncA7srPU3rPeN1n1nvr+y3z2D9U0ayHVJdvDx3wndBx7QEAAFxrJDog5a1QtHcSw3siPTNaOXh/SmOixHvJmmWvA7SiICNVB+3LX1ZVFEqjBzYPtq+IGTgdNf8JCW66PGZlqXYpWpFWbNYjQlNmRyg9NVsFe7Ldgd0D9/j8YhxsBrP2zeYqVdVsPIx/oYOjFFiXrxK7x0SbijK0/kC1J2D8tEIF5vsMbxZsX5maY1Y3ghD1bZgIs6ZCR443DE/ppYkJiSpJ2ap9h/Zoc3GUHhrre0nVEIXeY9/00Sz50Zr+AzWip0sHS1vrzuDlhPkesstUYx0KddUqMYPB8P4dMInxcSuREKHQxslAT6misLpxeEpQbKJmHH1Zm/PytWtLmUY8HKNQz4qNQkPMIN2Pg8cuYR/0GKih90v7Piq9pIC9U9rDxWqVH5Yib2/qIVN+dI/53PbwlKEPatZg8xjMLtKu7AwFxsdqhG9zCPUkNVrqwu2hw74TOqE9AACATkeio6uxZvT3TkpYy6zsZr/EuU/4Bl/GCbRXjw/3YvUCsZX8x+8VOXZIBwSn6JbOZGh67HD3cTphbZnCzWPJN9C8bJW7lZknTYke7g5m3S665PIKGkMnJWpi0cuavnyPQmfHt7gahfVLe7l9s5EZqIw3A7sa70tlVmZr6Wv5qvH9pTpsiPuXfOvype07p/SkCZ5LP8e9rJKw0Yq82sDuYqXefcvcCXHRTUGruQ+sS4qG2jshcHS8FvTO0Ly5G1Vl7o+HfK9QIzNAbjGczdOboeKU9zdKpTKXv6GDLQJeT5BfUljR/rwEPVw6sipe0dZlrqPmKrNnnEZ+277virm0L+dNufpP0AivOL3+glcSJTBaCbODlb5wrjYcj9Vjk3yTPVbCwXcn9FH4YPOfEzVe22UGsK+tUOZR33RGHw0cbj6ndflSu6ZNndAeXAdylV4XYgbuXjvB5dKYOxsSSSF66LFYFaQk6el3QrTgey2vUONJEvhwQHu46u+EzmoPAACg05Ho6Iq8ExN5q8yTUW8ulXyUpyl3D7TLbas9+4Ui7whufuIbNlXbF41T8MUy7ftXNT+BBtrS89ZmgduI+fkqMwOxrLQ0bf/1buXM8ukufrlq87Xmx6tVEJas2RN62ZW2qlNNAUbvOM2e38tsDXF6JrHla9YeztM+876Rg+wKS7+BiuxZrU+ONQVrNYV7lJlVpJO+k0Tawz6aB0ANAnWr9+VKo+aoyGyTu98090FatvbvuMpLUF48p4PrF2plUZgWzY5t6tXiZu6D8/bNHhFKSI6Vq66/Fs2N81nPVJyvXWYgN3KId88KM8i/O1BVH1c37csThXo3M1sFLX7Utod9HLPm8fFl7gPvFwyO0+tHCrX/19Y+yNDuvSma6H1J1itQlZmseRnSlCWJ8r04+skzTZ9hZMJCTaxzKXTR3OaXgbWY33EH3zGD4L9rnswNHWxGt4WVTXNWmOvt3ZStDytaDjdxD/s4XuPpreKrs9vDp9mat9DcCXGLNcPnqaq99kHQpCTN72m+QWs9n2ErVuLhYJ6VJBjevEeDE9rD1X4ndFh7AAAA1xqJDqc5k6e3347V/aN9gsAGtZUqqPQ6Ab5/uXJWxDQ/OewdpjERfVSVnar1A+co4SrPxdGN9O4j3xRbYHCYRoyN1pihIVd2VQmLGcyU5KZoakySNiter/+zT3BkBZTHS1XR8OtzbZ52pJ3SCDO4bRFQ1+Vrw/o9CkyM0/hmB77nF9mdeQ2TKla7fyUOnRrTIpC21r3vuVVaFO2vr1OwglvsBDNgGmnug7ERCvX9Jfky1Bbnas0PYjR9s5SQulHzvdtmzyCzHRep/DO7fLFSOzKs7VyiFvH0xWplvpKqqqiZmmj1XvASPtiaVDFPBfbVSqrez9a+/vEa77OeJfx/rdJLC0arr11uYgZ9vr/S9whU6FBrH0Qp/CqSHK7j+do8P07jlucrclGG1k3y/q7zJFgKK+0JSE3luRna1TNRz/hmAkzu77jjUZoV2/y+4G8Pd08yetAaImVyHbJ6Tfj/Xg0eHq/nfxHX4rh366z24KrWwc3JmhC7QgcjkpW1unmAH3hriKpKm3oW1O7P1eZTUXpmgW9izNq217X+nUDNeNjnvwNdvj10xHdCR7UHAADw1VhabF91Fte9w+uMAT/KMk7aRfd1/hvKF6qMt+ZEGbGvFBqNV/P3Xb/wFeMu73Ir6s3HxQ6aZmyrsCv8OLIuwkjKqrFL6Io6/FrgJ3OMpEGxxoaP7PKVOl9jfHL4kLE3a4vx7I8fNIYNijAGDLvXSNpwyDh5wV7H24VSY8P4CCN26XZjb85GI3FUhHHXnCzjM991P99vvDglyhgwaqGx43O7zkv9B6uMuwY9aDy9fb+x45Vpxl3D5vhdr201xo45EUbMhlK7fIUu1BsnKwqND9/LMjatXGjEmts0YFCUMWrORuNDv++p1tix0NzuR18xdry33Xja2s6J64wj5+27G5wtNbYtHGXuz0eMDYWN3xRN6g8Zzw5r2JevGPHDooyk31x+Oz/yivn6C3OMs3b5ipj74OyxUuPDD3KMbWsWG/H3ms9pHgvDvr/KeKu01l6pubM5C81tm2b8PGe/se1nj7g/zxcP+2znhVqjePtC87iKMuI2eH1fNqoytn3fa19ONPeH9/fqpeqg9lB/tsoo/uCQsWP7OiP50XvNbTKPhVHTjGezSo2z/trDRxuNmIbjeMNM93YmZVXZdzY5+d46I878rIeZn5O//yZ06fbQQd8JHdUeAADO0OHnzuhwVm7DznKYSHR0HVbiwjrJ9V5+ZJ682cHLXVNeaR7YWOt/b4tx5HStcfZ0jXFkg3myap6wt+WznOVGrHly++x+PydzZ2uMz6znOrbbeNY8iUz+nf9gA11Dx39ZW0FNlHkcLje2vVfqOVb8Le1EjO5gddSDRtzMxcaLm7KMvR9VGfX+Ajov9R9vN5KtQNg3IWIGtZ8czjE2/XSaO2FiBa8ftprpqzeKN80xRpmBzV33zjE2fXTZoa3byd/MMYPCR9wBYvExP9tvLe3thNM5xtxBo4zY7800ktdsMd6y9md7b+ekGbR9f5T5vTDKiF+ZZRQ3ZBnMIPGzj/Ybb63zbNuAicuNtz5u/cnqP9piJDXsy02llx/gm+oLXzG/R0YZiRtyjCMVNf73wel2ntkdrJrB7JRHjLkrXzG25RQan5y272vNhRpj7zrPZ+2bEKmvLjX2Zq3zbJsVwGdVtL5t1eZ3XOO+3N0yQL4kHdMeijfEmsfjI0bcj1cZP99u7c/2vnfrjU+2L248jjd84PVdfrrCOJKzxUh2b1uUEf9KK8lDt67dHjrmO8F8ng5oDwAAZyDRcf1rSHQENCY61rbsjIrrkDUZ6esDlb853jOm3FWtgjIpqGK1njwcq1+uiFd4T/eaHq4ivTZjjtYXWcNVAhU8Ml4v/Hy5JnqPmfZ2pkjrn0rVzcn/qPlRfoa/XCzSmpGJ2lxnPddc9xCCEd6vhy7lj1Wfa0Do7Xapg9RVa1/GP2pTziHz2Dxld3tvbnxKnrY83AFX3bgUZhtYk7BcJYNj9dCj05Uw8lq8rktV72dofXquDhaWqcbu9t6MdTWjjXHN5oboPKeUOfcRpfeYoIT4RD00LkxBVzMvwiWqKcrWpk0Z2ne4TOXek1o26DlHWUXJGmEXO1tN9lzFbQvUA/8QrxlxMQr3HcfRGa6z9uAy/xsy9WdlGjgpTo+Z+2FEB1zxpH3XWXv4Sr4TAABO0CnnzuhQActKpJeGBpDoALoxvqwBAACAS8O58/WvIdHBZKQAAAAAAMAxSHQAAAAAAADHINEBAAAAAAAcg0QHAAAAAABwDBIdAAAAAADAMUh0AAAAAAAAxyDRAQAAAAAAHINEBwAAAAAAcAwSHQAAAAAAwDFIdAAAAAAAAMcg0QEAAAAAAByDRAcAAAAAAHAMEh0Aro0T2Xp88FxlnrDL3dIpZc4aosezT9nl7qkgZYjCUorsUjdFezDRHgAAQOcg0QGg47iDtyFac8QuXy+s9xWdqPRKu9ypPMHb9RfIF2lNVIxW5p2zy53LncyYla0au3y9KEgZruhVeaq1y53qOm0PNdlzFTUtQ+V2uXNdp+3hmn4nAACAa41EB4AOFqPw/vbNa+qc9j0Xrcn+IpfjFdp3JkR9+9hlP6zgL2xwigrs8tUaPzDEvnVtlacnKuK5PLnscqMTFSqvu1l9g3vZFX50dGA+eKCC7ZvXVGWGpkat1r4WO+GUyo+6dHPfYAXZNS0VaY25Dzqul8FX1B5q87QyOt5vIF9Vkafa24PV1y7744z2cHXfCddt4hYAALSLRAeA68tFl2oqi7QvO01rFidp8gPRZsA1xFyiNSFptdKLWgtAeyn49ltVUlHdIsivqTIDnf4DFdJ6dHsJqrUzOUbTr9FPwK4TlSp4P1ub1y7R9EfiFOXeB0MU9UCSVmYUqeaivaKPvn1C5PpDtarscqMT1TqoqKsOuqtykxX9WIbKW3n9juSqrVbJgVylp67WvEfiFR3l2QcRMfGa91qeqursFX31CVZIXaGqjtvlRuZ+OSwN/5urC7pdR97Q5JjV2tfa63ck1zlVFedrZ0aqVs6PN193uKc9RMVo8vw3tO/TFtkcj6Bg9e1ZpvJq3/tPqdo8hEO/HdJGsudSdIX20NnfCde2PQAAgEtHogPAV89VqV2bzWD2oRhFRAxX9ANztOb94+o7OknP/DxbRfn5KtqzVQvuqdD6hFg9nl1tP7C58IgYab8Z3F08pYLsVD2R5AmOo5fkSce36MmkJdp84Ep/qQ/RxPgJKli/UbvO2FUdyqXyd9Lcwaz1niNi4vR4ihnMB0dr9qKXlWPtg/zd2r5gtMpTExUzP1tVfoKroG9HKbK4SBVnzqn8/Qz3802INoPChDfMV9ijZ2cka01umWqvMDALvT9eD/zhZW3Y3TlDYGqPZLgTXNZ7jrhngqYuy9CRujBNWrRC29+19kGectbG69bdyRr3SIoK/CUbggZq5NAyHfn4nGor85T+XLKdMEvUa+b6u9bO1LyUXJVc4fiVwKhYJfQz32d6mV3Twc4UKd0K6K33fHe0xv1gsbYVuhQ+aYme37rH3R7yf/2yEnrv1rzYeK054i/ZEabIcdK+MjOgP1GkzFTz+az2NThGT7xvBuhbFmv64jQdvOI5QrpGe+jc74TObw8AAODKBLj/Li02jLWR7psAuo8/Vn2uAaG326UrdCRFYdO22oXLEaOX8jaaAaN1u0ybE1apeGy8/mHyOI24o48Ce7hXaqEqe64mLKvVM3syNOMOu7KB1dU8xgx+e5tBx5BELYqP05h7XNrxSJJKZqdpdtB+rV+1VbWJGcpZEqVA+2EWq6t+9LIwZR1dohF2XQsXK5U+LU6bx2Vr//wIu9JiDXdI1Ga7dDnGr83TlnhP//mSzYla+XG0Eh6erPvuCVOw9xv0dtzczgdXqHbJbmUl+vROuGi+l5FJyjQf6+oXq1mPxemBe0JUkhKnlSEpyrq7Rhs2vKx9d67S7tfiFeq9n937b4XC3yzVMyPtOj+s4TETtoxTzu/nKLLx8dZcDDFaasaPl21WhirNz8NS+84KTc0N1IxJ8Rp/f4RCe7qrW6ozt/ORRKWPTVPRiuhmn6XFmotjevZN5k4wA/KkRD38nWiFlL6sCWv665VfDdHJ1zdqzYEQvfRb8xhs1svF81mWe30u/rjyVitqVo3W5adqSm+70tIR7aF2j5Ym5CrwsVgljI1V5B2tHQguczvjNTVjtLbnL9cYn9Xcx3RKoYLOSJGJyWbbGq0x9TmKSyrT7LQkBeWlamVarWa8mW1+3s0f7Jj2cBXfCVfXHgAATtQh587oVAHLSqSXhnryHO5EB4Bup/Kz/7RvXYUL9cbZ07WepXS7kThoprGt1C57L37uq79gP8fluFBqbBgfYcRtq7ArmnyWNce4a1CEkeh93+dZRtKgR4zGqmqzPCzKSP5drV3hcdJ87IBB64wjdrk1Z3MWGgOGrTI+rLcrbPWN21pqbJthvYfSxu1sWvzc5/M8l6p4Q6wx4HvbjU/scoP6w+uMWHMfjHphv3G2Yf9eKDReHBZhPLvffrHzZnlihBG7sdRTbuDeVxHGi4ftcmtO5xhzB0UZz37Q/M3Xn23a1r0vRBgDrPfQsJ1eS4v7zttPcJncn8WgVcZe331ob9+AMeZ9Z+0605F1UcaAlfsNz+r1ZvlBY8DEjUZxs+PQfKy5D5KyauxyK+zjMH57lV1hu9btwf1ZeH22DS5UGW/NMbfXeg2v5uA+zr2OG3ebGbbYePe0XWFzSnu4mu+Eq20PAADn6ZBzZ3QqK7dhpTgYugLg6vQIVFDvXvYSKPf/GsteS501R8RAhYY11bXWa6NNPTxd8ksOlDa/okdlhp5cVq3wiEAVfN40JqG2MF/7ekYrsqH3R/94LZodrJ0pGSqxqy5HUEycptRl6K33m3dVb9rmYAXeZJZ7BjduZ9PiUtUhKfyOsKa61n6lbkf43TFScZ5KvXdCXZ7W/OhNBUaEqebTGrka9u/RfO2qi1HkYPvFekZpwYJYla9P064rGb7Re5wejnMpPbv51UsCg7y21XqpwKCmcuPi0slPpcg7Q5rqWuu10Y6gIebnqmwdaTaCxKV9KUlKD4xQ+KlqnWwc2lKmg++4NP7uIfav9oEaMXuuJlamatOVDDvoEaHxj4aoYNNvmx9H17o99B6ivx8qZRY2H0ZTnrFES4+ZbaVnkaoah5acU8GBPAWOHqJwuyb04WQt6J2rNZlXNgznum4P1+g7obX2AAAAvjokOgB0nItWmNmWm644kGliBpJWYHzB+5XOaWfqatUkv6ycZ6dJGbk66L7bpYL8XAUmTtAIryAy8v54hR4/pJIWk1VegqDRun+StDO/sJVtrZe+sG+2IvCWq94J5nOY0aOp3mtegpK01Uoft0rb30jS+Lxsvfupp7788G5VxcTqPvcwIQ93gKpcHSm1Ky5LL425P1bKzVdBKx+4q505QIJ7XuUskJaegQo2P4Vmr1W8VSszYrRu6xuaFZOnzPft+VwqC/Xu8Rg9MNZrOIo7QDU/y6Ir2gmKHGsdR7tV0Np8nNekPQQp8Jvm63i/0JlcrV91Sot+nq3nE6X03+V73oerUB9aw4K+4xkm5GYnbKoOlLacwPZSXLft4Rp+J1xCewAAANcWiQ4AHedEhQ7aN325zrcT7VyN2kN6/50IzZoUIUVN1oLeZpB/2Iw4XPnamxGohLHe8weY+vTXQOWr3GsixuA7w9z/thegW0HN8LHR0ttmUOR33VMqP2Tf9OWqbSfwvRpl2pdVrRnxsQrqN0EPTyrSjgNWkF+pg78p04j7o5tf6jUo2D3/Rflxr4kY+w30/NL/F3epTUHDYzRG2fqw2K5o5pSqKuybLZj74LR9sxOUHMhWVWK8JvbuowcejlXB23nuAL7crC+JMt+zV7LHfVUOa/6Limqv3kEhCo+xjgMzQG9PRJQmmvt9b2Erk1l+Re2h9lCedg2dqYlDpRH/e676Zu9xB+Cu/Dyl94zXfWa9t77fMo/9QxXNekh1+fbQAd8JHdceAADAtUaiA0CnKchI1UH78pdVFYXS6IHNg+0rYgZOR81/QoKbLo9ZWapdilakFZv1iNCU2RFKT81WwZ5sd2D3wD0+vxgHm8GsfbO5SlU1Gw/jX+jgKAXW5avE7jHRpqIMrT9Q7QkYP61Qgfk+w5sF21em5pjVjSBEfRsmwqyp0JHjDcNTemliQqJKUrZq36E92lwcpYfG+l5SNUSh99g3fTRLfrSm/0CN6OnSwdLWujN4OWG+h+wy1ViHQl21SsxgMLx/6xN9XrLjViIhQqGNk4GeUkVhdePwlKDYRM04+rI25+Vr15YyjXg4RqGeFRuFhphBuh8Hj13CPugxUEPvl/Z9VHpJAXuntIeL1So/LEXe3tRDpvzoHvO57eEpQx/UrMHmMZhdpF3ZGQqMj9UI3+YQ6klqtNSF20OHfSd0QnsAAACdjkQHgM5zJkPTY4crbPAQTVhbpvCxQ1oEmpetcrcy86Qp0cPdwazbRZdcXkFj6KRETSx6WdOX71Ho7PgWV6Owfmkvt282MgOV8WZgV+N9qczKbC19LV81vr9Uhw1x/5JvXb60feeUnjRBERFDFBb3skrCRivyagO7i5V69y1zJ8RFNwWt5j6wLikaau+EwNHxWtA7Q/PmblSVuT8e8r1CjcwAucUVUjy9GSpONZvoQJnL39DBFgGvJ8gvKaxof16CHi4dWRWv6LvNfRA1V5k94zTy2/Z9V8ylfTlvytV/gkZ4xen1F7ySKIHRSpgdrPSFc7XheKwem+Sb7LESDr47oY/CB5v/nKjx2i4zgH1thTKP+qYz+mjgcPM5rcuX2jVt6oT24DqQq/S6EDNw99oJLpfG3NmQSArRQ4/FqiAlSU+/E6IF32t5hRpPksCHA9rDVX8ndFZ7AAAAnY5EB4CO0/PWZoHbiPn5KjMDsay0NG3/9W7lzPLpLn65avO15serVRCWrNkTetmVtqpTTQFG7zjNnt/LDE/j9Exiy9esPZynfeZ9IwfZFZZ+AxXZs1qfHGsK1moK9ygzq0gnfSeJtId9NA+AGgTqVu/LlUbNUdFHedr9prkP0rK1f8dVXoLy4jkdXL9QK4vCtGh2bFOvFjdzH5y3b/aIUEJyrFx1/bVobpzPeqbifO0yA7mRQ7x7VphB/t2Bqvq4umlfnijUu5nZKmjxo7Y97ONYjU7aNU3MfeD9gsFxev1Iofb/2toHGdq9N0UTvS/JegWqMpM1L0OasiRRvhdHP3mm6TOMTFioiXUuhS6a2/wysJaL1gSlZhD8d0Oa9awIHWxGt4WVTXNWmOvt3ZStDytaDjdxD/s4XuPpreKrs9vDp9mat9DcCXGLNcPnqaq99kHQpCTN72m+QWs9n2ErVuLhYJ6VJBjevEeDE9rD1X4ndFh7AAAA1xqJDgAdp3cfDbRvNggMDtOIsdEaMzTkyq4qYTGDmZLcFE2NSdJmxev1f/YJjqyA8nipKhp+fa7N0460UxphBrctAuq6fG1Yv0eBiXEa3ywq8vwiuzOvYVLFavevxKFTY1oE0ta69z23Soui/Q08CFZwi51gBkwjzX0wNkKhvr8kX4ba4lyt+UGMpm+WElI3ar53vNYzyAzyilT+mV2+WKkdGdZ2LlGLePpitTJfSVVV1ExNtHoveAkfbE2qmKcC+2olVe9na1//eI33Wc8S/r9W6aUFo9XXLjcxgz7fX+l7BCp0qLUPohR+FUkO1/F8bZ4fp3HL8xW5KEPrJnknvDwJlsJKewJSU3luhnb1TNQzvpkAU1V2qtYfj9Ks2Ob3BX97uHuS0YPWECmT65DVayJW94/2Sa6ZgofH6/lfxLU47t06qz24qnVwc7ImxK7QwYhkZa1uHuAH3hqiqtKmngW1+3O1+VSUnlngmxiztu11rX8nUDMejvG5r6u3h474Tuio9gAAAL4aS4vtq84C6E46/FrgJ3OMpEGxxoaP7PKVOl9jfHL4kLE3a4vx7I8fNIYNijAGDLvXSNpwyDh5wV7H24VSY8P4CCN26XZjb85GI3FUhHHXnCzjM991P99vvDglyhgwaqGx43O7zkv9B6uMuwY9aDy9fb+x45Vpxl3D5vhdr201xo45EUbMhlK7fIUu1BsnKwqND9/LMjatXGjEmts0YFCUMWrORuNDv++p1tix0NzuR18xdry33Xja2s6J64wj5+27G5wtNbYtHGXuz0eMDYX1dqWX+kPGs8Ma9uUrRvywKCPpNzX2nZfuyCvm6y/MMc7a5Sti7oOzx0qNDz/IMbatWWzE32s+p3ksDPv+KuOt0lp7pebO5iw0t22a8fOc/ca2nz3i/jxfPOyznRdqjeLtC83jKsqI21BotNwLVca273vty4nm/njF33rt6KD2UH+2yij+4JCxY/s6I/nRe81tMo+FUdOMZ7NKjbP+2sNHG42YhuN4w0z3diZlVdl3Njn53jojzvysh5mf00m7zluXbg8d9J3QUe0BAOAMHX7ujA5n5TbsLIeJRAfQLXX8l7UV1EQZd01Zbmx7r9T47HStcdbf0k7E6A5WRz1oxM1cbLy4KcvY+1GVUe8voPNS//F2I9kKhH0TImZQ+8nhHGPTT6e5EyZW8Pqhv6jOrd4o3jTHGGUGNnfdO8fY9NFlh7ZuJ38zxwwKH3EHiMXH/Gy/tbS3E07nGHMHjTJivzfTSF6zxXjL2p/tvZ2TZtD2/VFmADjKiF+ZZRQ3ZBnMIPGzj/Ybb63zbNuAicuNtz5u/cnqP9piJDXsy02llx/gm+oLXzFizfeRuCHHOFJR438fnG7nmd3BqhnMTnnEmLvyFWNbTqHxyWn7vtZcqDH2rvN81r4JkfrqUmNv1jrPtlkBfFZF69tWvdt4tnFf7m4ZIF+SjmkPxRtizePxESPux6uMn2+39qf/JE+TeuOT7Ysbj+MNH3gF5qcrjCM5W4xk97ZFGfGvtJI8dOva7aFjvhPM5+mA9gAAcAYSHde/hkRHQGOiY23LzqgAnO2PVZ9rQOjtdqmD1FVrX8Y/alPOIRWUnbK7vTc3PiVPWx7ugKtuXApXkdYkLFfJ4Fg99Oh0JYy8Fq/rUtX7GVqfnquDhWWqsbu9N3N/ivI3xjWbG6LznFLm3EeU3mOCEuIT9dC4MAVdzbwIl6imKFubNmVo3+EylXtPatmg5xxlFSVrhF3sbDXZcxW3LVAP/EO8ZsTFKNx3HEdnuM7ag+tIiqb+rEwDJ8XpMXM/jOiAK5607zprD1/JdwIAwAk65dwZHSpgWYn00tAAEh1AN8aXNQAAAHBpOHe+/jUkOpiMFAAAAAAAOAaJDgAAAAAA4BgkOgAAAAAAgGOQ6AAAAAAAAI5BogMAAAAAADgGiQ4AAAAAAOAYJDoAAAAAAIBjkOgAAAAAAACOQaIDAAAAAAA4BokOAAAAAADgGCQ6AAAAAACAY5DoAAAAAAAAjkGiA8C1cSJbjw+eq8wTdrlbOqXMWUP0ePYpu9w9FaQMUVhKkV3qpmgPJtoDAADoHCQ6AHQcd/A2RGuO2OXrhfW+ohOVXmmXO5UneLv+AvkirYmK0cq8c3a5c7mTGbOyVWOXrxcFKcMVvSpPtXa5U12n7aEme66ipmWo3C53ruu0PVzT7wQAAHCtkegA0MFiFN7fvnlNndO+56I12V/kcrxC+86EqG8fu+yHFfyFDU5RgV2+WuMHhti3rq3y9ERFPJcnl11udKJC5XU3q29wL7vCj44OzAcPVLB985qqzNDUqNXa12InnFL5UZdu7husILumpSKtMfdBx/Uy+IraQ22eVkbH+w3kqyryVHt7sPraZX+c0R6u7jvhuk3cAgCAdpHoAHB9uehSTWWR9mWnac3iJE1+INoMuIaYS7QmJK1WelFrAWgvBd9+q0oqqlsE+TVVZqDTf6BCWo9uL0G1dibHaPo1+gnYdaJSBe9na/PaJZr+SJyi3PtgiKIeSNLKjCLVXLRX9NG3T4hcf6hWlV1udKJaBxV11UF3VW6yoh/LUHkrr9+RXLXVKjmQq/TU1Zr3SLyiozz7ICImXvNey1NVnb2irz7BCqkrVNVxu9zI3C+HpeF/c3VBt+vIG5ocs1r7Wnv9juQ6p6rifO3MSNXK+fHm6w73tIeoGE2e/4b2fdoim+MRFKy+PctUXu17/ylVm4dw6LdD2kj2XIqu0B46+zvh2rYHAABw6Uh0APjquSq1a7MZzD4Uo4iI4Yp+YI7WvH9cfUcn6ZmfZ6soP19Fe7ZqwT0VWp8Qq8ezq+0HNhceESPtN4O7i6dUkJ2qJ5I8wXH0kjzp+BY9mbREmw9c6S/1IZoYP0EF6zdq1xm7qkO5VP5OmjuYtd5zREycHk8xg/ngaM1e9LJyrH2Qv1vbF4xWeWqiYuZnq8pPcBX07ShFFhep4sw5lb+f4X6+CdFmUJjwhvkKe/TsjGStyS1T7RUGZqH3x+uBP7ysDbs7ZwhM7ZEMd4LLes8R90zQ1GUZOlIXpkmLVmj7u9Y+yFPO2njdujtZ4x5JUYG/ZEPQQI0cWqYjH59TbWWe0p9LthNmiXrNXH/X2pmal5KrkiscvxIYFauEfub7TC+zazrYmSKlWwG99Z7vjta4HyzWtkKXwict0fNb97jbQ/6vX1ZC792aFxuvNUf8JTvCFDlO2ldmBvQnipSZaj6f1b4Gx+iJ980AfctiTV+cpoNXPEdI12gPnfud0PntAQAAXJkA99+lxYaxNtJ9E0D38ceqzzUg9Ha7dIWOpChs2la7cDli9FLeRjNgtG6XaXPCKhWPjdc/TB6nEXf0UWAP90otVGXP1YRltXpmT4Zm3GFXNrC6mseYwW9vM+gYkqhF8XEac49LOx5JUsnsNM0O2q/1q7aqNjFDOUuiFGg/zGJ11Y9eFqaso0s0wq5r4WKl0qfFafO4bO2fH2FXWqzhDonabJcux/i1edoS7+k/X7I5USs/jlbCw5N13z1hCvZ+g96Om9v54ArVLtmtrESf3gkXzfcyMkmZ5mNd/WI167E4PXBPiEpS4rQyJEVZd9dow4aXte/OVdr9WrxCvfeze/+tUPibpXpmpF3nhzU8ZsKWccr5/RxFNj7emoshRkvN+PGyzcpQpfl5WGrfWaGpuYGaMSle4++PUGhPd3VLdeZ2PpKo9LFpKloR3eyztFhzcUzPvsncCWZAnpSoh78TrZDSlzVhTX+98qshOvn6Rq05EKKXfmseg816uXg+y3Kvz8UfV95qRc2q0br8VE3pbVdaOqI91O7R0oRcBT4Wq4SxsYq8o7UDwWVuZ7ymZozW9vzlGuOzmvuYTilU0BkpMjHZbFujNaY+R3FJZZqdlqSgvFStTKvVjDezzc+7+YMd0x6u4jvh6toDAMCJOuTcGZ0qYFmJ9NJQT57DnegA0O1Ufvaf9q2rcKHeOHu61rOUbjcSB800tpXaZe/Fz331F+znuBwXSo0N4yOMuG0VdkWTz7LmGHcNijASve/7PMtIGvSI0VhVbZaHRRnJv6u1KzxOmo8dMGidccQut+ZszkJjwLBVxof1doWtvnFbS41tM6z3UNq4nU2Ln/t8nudSFW+INQZ8b7vxiV1uUH94nRFr7oNRL+w3zjbs3wuFxovDIoxn99svdt4sT4wwYjeWesoN3PsqwnjxsF1uzekcY+6gKOPZD5q/+fqzTdu694UIY4D1Hhq202tpcd95+wkuk/uzGLTK2Ou7D+3tGzDGvO+sXWc6si7KGLByv+FZvd4sP2gMmLjRKG52HJqPNfdBUlaNXW6FfRzGb6+yK2zXuj24Pwuvz7bBhSrjrTnm9lqv4dUc3Me513HjbjPDFhvvnrYrbE5pD1fznXC17QEA4Dwdcu6MTmXlNqwUB0NXAFydHoEK6t3LXgLl/l9j2Wups+aIGKjQsKa61npttKmHp0t+yYHS5lf0qMzQk8uqFR4RqILPm8Yk1Bbma1/PaEU29P7oH69Fs4O1MyVDJXbV5QiKidOUugy99X7zrupN2xyswJvMcs/gxu1sWlyqOiSF3xHWVNfar9TtCL87RirOU6n3TqjL05ofvanAiDDVfFojV8P+PZqvXXUxihxsv1jPKC1YEKvy9WnadSXDN3qP08NxLqVnN796SWCQ17ZaLxUY1FRuXFw6+akUeWdIU11rvTbaETTE/FyVrSPNRpC4tC8lSemBEQo/Va2TjUNbynTwHZfG3z3E/tU+UCNmz9XEylRtupJhBz0iNP7REBVs+m3z4+hat4feQ/T3Q6XMwubDaMozlmjpMbOt9CxSVePQknMqOJCnwNFDFG7XhD6crAW9c7Um88qG4VzX7eEafSe01h4AAMBXh0QHgI5z0Qoz23LTFQcyTcxA0gqML3i/0jntTF2tmuSXlfPsNCkjVwfdd7tUkJ+rwMQJGuEVREbeH6/Q44dU0mKyyksQNFr3T5J25he2sq310hf2zVYE3nLVO8F8DjN6NNV7zUtQkrZa6eNWafsbSRqfl613P/XUlx/eraqYWN3nHibk4Q5QlasjpXbFZemlMffHSrn5KmjlA3e1MwdIcM+rnAXS0jNQwean0Oy1irdqZUaM1m19Q7Ni8pT5vj2fS2Wh3j0eowfGeg1HcQeo5mdZdEU7QZFjreNotwpam4/zmrSHIAV+03wd7xc6k6v1q05p0c+z9XyilP67fM/7cBXqQ2tY0Hc8w4Tc7IRN1YHSlhPYXorrtj1cw++ES2gPAADg2iLRAaDjnKjQQfumL9f5dqKdq1F7SO+/E6FZkyKkqMla0NsM8g+bEYcrX3szApUw1nv+AFOf/hqofJV7TcQYfGeY+9/2AnQrqBk+Nlp62wyK/K57SuWH7Ju+XLXtBL5Xo0z7sqo1Iz5WQf0m6OFJRdpxwAryK3XwN2UacX9080u9BgW7578oP+41EWO/gZ5f+v/iLrUpaHiMxihbHxbbFc2cUlWFfbMFcx+ctm92gpID2apKjNfE3n30wMOxKng7zx3Al5v1JVHme/ZK9rivymHNf1FR7dU7KEThMdZxYAbo7YmI0kRzv+8tbGUyy6+oPdQeytOuoTM1cag04n/PVd/sPUW8yuQAAFGJSURBVO4A3JWfp/Se8brPrPfW91vmsX+oolkPqS7fHjrgO6Hj2gMAALjWSHQA6DQFGak6aF/+sqqiUBo9sHmwfUXMwOmo+U9IcNPlMStLtUvRirRisx4RmjI7Qump2SrYk+0O7B64x+cX42AzmLVvNlepqmbjYfwLHRylwLp8ldg9JtpUlKH1B6o9AeOnFSow32d4s2D7ytQcs7oRhKhvw0SYNRU6crxheEovTUxIVEnKVu07tEebi6P00FjfS6qGKPQe+6aPZsmP1vQfqBE9XTpY2lp3Bi8nzPeQXaYa61Coq1aJGQyG9299os9LdtxKJEQotHEy0FOqKKxuHJ4SFJuoGUdf1ua8fO3aUqYRD8co1LNio9AQM0j34+CxS9gHPQZq6P3Svo9KLylg75T2cLFa5YelyNubesiUH91jPrc9PGXog5o12DwGs4u0KztDgfGxGuHbHEI9SY2WunB76LDvhE5oDwAAoNOR6ADQec5kaHrscIUNHqIJa8sUPnZIi0DzslXuVmaeNCV6uDuYdbvokssraAydlKiJRS9r+vI9Cp0d3+JqFNYv7eX2zUZmoDLeDOxqvC+VWZmtpa/lq8b3l+qwIe5f8q3Ll7bvnNKTJigiYojC4l5WSdhoRV5tYHexUu++Ze6EuOimoNXcB9YlRUPtnRA4Ol4Lemdo3tyNqjL3x0O+V6iRGSC3uEKKpzdDxalmEx0oc/kbOtgi4PUE+SWFFe3PS9DDpSOr4hV9t7kPouYqs2ecRn7bvu+KubQv5025+k/QCK84vf6CVxIlMFoJs4OVvnCuNhyP1WOTfJM9VsLBdyf0Ufhg858TNV7bZQawr61Q5lHfdEYfDRxuPqd1+VK7pk2d0B5cB3KVXhdiBu5eO8Hl0pg7GxJJIXrosVgVpCTp6XdCtOB7La9Q40kS+HBAe7jq74TOag8AAKDTkegA0HF63toscBsxP19lZiCWlZam7b/erZxZPt3FL1dtvtb8eLUKwpI1e0Ivu9JWdaopwOgdp9nze5nhaZyeSWz5mrWH87TPvG/kILvC0m+gIntW65NjTcFaTeEeZWYV6aTvJJH2sI/mAVCDQN3qfbnSqDkq+ihPu98090FatvbvuMpLUF48p4PrF2plUZgWzY5t6tXiZu6D8/bNHhFKSI6Vq66/Fs2N81nPVJyvXWYgN3KId88KM8i/O1BVH1c37csThXo3M1sFLX7Utod9HKvRSbumibkPvF8wOE6vHynU/l9b+yBDu/emaKL3JVmvQFVmsuZlSFOWJMr34ugnzzR9hpEJCzWxzqXQRXObXwbWctGaoNQMgv9uSLOeFaGDzei2sLJpzgpzvb2bsvVhRcvhJu5hH8drPL1VfHV2e/g0W/MWmjshbrFm+DxVtdc+CJqUpPk9zTdoreczbMVKPBzMs5IEw5v3aHBCe7ja74QOaw8AAOBaI9EBoOP07qOB9s0GgcFhGjE2WmOGhlzZVSUsZjBTkpuiqTFJ2qx4vf7PPsGRFVAeL1VFw6/PtXnakXZKI8zgtkVAXZevDev3KDAxTuObRUWeX2R35jVMqljt/pU4dGpMi0DaWve+51ZpUbS/gQfBCm6xE8yAaaS5D8ZGKNT3l+TLUFucqzU/iNH0zVJC6kbN947XegaZQV6Ryj+zyxcrtSPD2s4lahFPX6xW5iupqoqaqYlW7wUv4YOtSRXzVGBfraTq/Wzt6x+v8T7rWcL/1yq9tGC0+trlJmbQ5/srfY9AhQ619kGUwq8iyeE6nq/N8+M0bnm+IhdlaN0k74SXJ8FSWGlPQGoqz83Qrp6JesY3E2Cqyk7V+uNRmhXb/L7gbw93TzJ60BoiZXIdsnpNxOr+0T7JNVPw8Hg9/4u4Fse9W2e1B1e1Dm5O1oTYFToYkays1c0D/MBbQ1RV2tSzoHZ/rjafitIzC3wTY9a2va717wRqxsMxPvd19fbQEd8JHdUeAADAV2NpsX3VWQDdSYdfC/xkjpE0KNbY8JFdvlLna4xPDh8y9mZtMZ798YPGsEERxoBh9xpJGw4ZJy/Y63i7UGpsGB9hxC7dbuzN2Wgkjoow7pqTZXzmu+7n+40Xp0QZA0YtNHZ8btd5qf9glXHXoAeNp7fvN3a8Ms24a9gcv+u1rcbYMSfCiNlQapev0IV642RFofHhe1nGppULjVhzmwYMijJGzdlofOj3PdUaOxaa2/3oK8aO97YbT1vbOXGdceS8fXeDs6XGtoWjzP35iLGhsN6u9FJ/yHh2WMO+fMWIHxZlJP2mxr7z0h15xXz9hTnGWbt8Rcx9cPZYqfHhBznGtjWLjfh7zec0j4Vh319lvFVaa6/U3Nmchea2TTN+nrPf2PazR9yf54uHfbbzQq1RvH2heVxFGXEbCo2We6HK2PZ9r3050dwfr/hbrx0d1B7qz1YZxR8cMnZsX2ckP3qvuU3msTBqmvFsVqlx1l97+GijEdNwHG+Y6d7OpKwq+84mJ99bZ8SZn/Uw83M6add569LtoYO+EzqqPQAAnKHDz53R4azchp3lMJHoALqljv+ytoKaKOOuKcuNbe+VGp+drjXO+lvaiRjdweqoB424mYuNFzdlGXs/qjLq/QV0Xuo/3m4kW4Gwb0LEDGo/OZxjbPrpNHfCxApeP/QX1bnVG8Wb5hijzMDmrnvnGJs+uuzQ1u3kb+aYQeEj7gCx+Jif7beW9nbC6Rxj7qBRRuz3ZhrJa7YYb1n7s723c9IM2r4/ygwARxnxK7OM4oYsgxkkfvbRfuOtdZ5tGzBxufHWx60/Wf1HW4ykhn25qfTyA3xTfeErRqz5PhI35BhHKmr874PT7TyzO1g1g9kpjxhzV75ibMspND45bd/Xmgs1xt51ns/aNyFSX11q7M1a59k2K4DPqmh926p3G8827svdLQPkS9Ix7aF4Q6x5PD5ixP14lfHz7db+9J/kaVJvfLJ9ceNxvOEDr8D8dIVxJGeLkezetigj/pVWkoduXbs9dMx3gvk8HdAeAADOQKLj+teQ6AhoTHSsbdkZFYCz/bHqcw0Ivd0udZC6au3L+EdtyjmkgrJTdrf35san5GnLwx1w1Y1L4SrSmoTlKhkcq4cena6EkdfidV2qej9D69NzdbCwTDV2t/dm7k9R/sa4ZnNDdJ5Typz7iNJ7TFBCfKIeGhemoKuZF+ES1RRla9OmDO07XKZy70ktG/Sco6yiZI2wi52tJnuu4rYF6oF/iNeMuBiF+47j6AzXWXtwHUnR1J+VaeCkOD1m7ocRHXDFk/ZdZ+3hK/lOAAA4QaecO6NDBSwrkV4aGkCiA+jG+LIGAAAALg3nzte/hkQHk5ECAAAAAADHINEBAAAAAAAcg0QHAAAAAABwDBIdAAAAAADAMUh0AAAAAAAAxyDRAQAAAAAAHINEBwAAAAAAcAwSHQAAAAAAwDFIdAAAAAAAAMcg0QEAAAAAAByDRAcAAAAAAHAMEh0AAAAAAMAxSHQAAAAAAADHINEBAAAAAAAcg0QHAAAAAABwDBIdAAAAAADAMUh0AAAAAAAAxyDRAQAAAAAAHINEBwAAAAAAcAwSHQAAAAAAwDFIdAAAAAAAAMcg0QEAAAAAAByDRAcAAAAAAHAMEh0AAAAAAMAxSHQAAAAAAADHINEBAAAAAAAcg0QHAAAAAABwDBIdAAAAAADAMUh0AAAAAAAAxyDRAQAAAAAAHINEBwAAAAAAcAwSHQAAAAAAwDFIdAAAAAAAAMcg0QEAAAAAAByDRAcAAAAAAHAMEh0AAAAAAMAxSHQAAAAAAADHINEBAAAAAAAcg0QHAAAAAABwDBIdAAAAAADAMUh0AAAAAAAAxyDRAQAAAAAAHINEBwAAAAAAcAwSHQAAAAAAwDFIdAAAAAAAAMcg0QEAAAAAAByDRAcAAAAAAHAMEh0AAAAAAMAxSHQAAAAAAADHINEBAAAAAAAcg0QHAAAAAABwDBIdAAAAAADAMUh0AAAAAAAAxyDRAQAAAAAAHINEBwAAAAAAcAwSHQAAAAAAwDFIdAAAAAAAAMcg0QEAAAAAAByDRAcAAAAAAHAMEh0AAAAAAMAxSHQAAAAAAADHINEBAAAAAICPOXPmuBd0PSQ6AAAAAADwQoKjayPRAQAAAACArSHJ8YMf/EBvvPGG+za6FhIdAAAAAACYvJMc9957r/s2uh4SHQAAAACAbo8kh3OQ6AC6sRtuuEEXv/zSLgEAAADdk78kh1XXUG+dM1vnzuga+KSAbizwphtVX/+FXQIAAAC6n9aSHN6sc2br3BldA4kOoBu7pefNOne+zi4BAAAA3UtbSQ6rrmEyUuuc2Tp3RtdAogPoxnrd0lNffvmlav+HZAcAAAC6l/aSHA111rmydc5snTujayDRAXRzfb75DZ05e45kBwAAALqVht4aDQkNi2+ddY5snStb58zoOgLcf5cWG8baSPdNAN3PF3+5oFOn/9s9wZKVqb755pvUg8mWAAAA0A1ZE49ac3JYw1WsnhxWkuOmG79m34vrWcCyEumloQEkOgA0sr7Mz9fVy/XFX9xf6gAAAEB3Y/34Z008as3JwXCVroVEBwAAAAAAcIyGRAd90wEAAAAAgGOQ6AAAAAAAAI5BogMAAAAAADgGiQ4AAAAAAOAYJDoAAAAAAIBjkOgAAAAAAACOQaIDAAAAAAA4BokOAAAAAADgGCQ6AAAAAACAY5DoAAAAAAAAjkGiAwAAAAAAOAaJDgAAAAAA4BgkOgAAAAAAgGOQ6AAAAAAAAI5BogMAAAAAADgGiQ4AAAAAAOAYJDoAAAAAAIBjkOgAAAAAAACOQaIDAAAAAAA4BokOAAAAAADgGCQ6AAAAAACAY5DoAAAAAAAAjkGiAwAAAAAAOAaJDgAAAAAA4BgkOgAAAAAAgGOQ6AAAAAAAAI5BogMAAAAAADgGiQ4AAAAAAOAYJDoAAAAAAIBjBLj/Li02jLWR7psAAAAdLf2QobQPDZV+LtV9YVcCaFfPm6Qht0tJfx+gGaM9p+6X4+C/F+jD/MP6zxP/pS+++ItdC6A9N910o/6637f099H3aMzfjbBrcb0LWFYivTQ0gEQHAADoNH84Ls3caujkuS9V++fLD9IAeAR93VDfXjdo68wA/W1/u7IN1f95QmnbM1V77pzq6112LYDLdfPNgQrq1UtJ0xMU8tf97FpcrxoSHQxdAQAAncJKckx45UuVnzRIcgBXyWpDVluy2pTVttpiJTl++U+bdLLmFEkO4CpZbchqS1abstoWugYSHQAAoFNYPTkYpgJ0LKtNWW2rLVZPDoapAB3LalNW20LXQKIDAAB0OGtODmu4CoCOZ7Utq435Y83JYQ1XAdDxrLZltTFc/0h0AACADmdNPMpwFaBzWG3LamP+WBOPMlwF6BxW27LaGK5/JDoAAECHs66uAqDztNbGrKurAOg8tLGugUQHAADocMzNAXSu1toYc3MAnYs21jWQ6AAAAAAAAI5BogMAAAAAADgGiQ4AAAAAAOAYJDoAAAAAAIBjkOgAAAAAAACOQaIDAAAAAAA4BokOAAAAAADgGCQ6AAAAHOInC25Q1YoA/X92WQpQzqob9O8/CLDLHWB8gKpSb9D/jfcUF5uvmTPRcxsAgOsBiQ4AAABHCNC4b0mBtdL/sWv0d9JdQdLZGsOu6Dj//SfPv2fPS9H/+wblfMdTBrqO7+iplc/q1acetsvXsXtnKiXlBf0swS4DaBOJDgAAACcYL0UHSXmHmpIaj40I0LdqDW3bZVd0gv+T9qVWfSKNiw3QT+w6oGuoUd2XX5N6fUMxdo1Txcx8Ur9YPU/ft8skTuB0JDoAAAAc4MVRAbr1uKFF+XZFnwA9NlD6r2rpz38XoO+3tgy1129gPm6Kv/UalvPSf5urfT2oqe5EvqFVe6UT5u0pgzxPA1z//qD/Omf+c0svhXgqOt5tY/WTFc/quR8/rJgOf5HeGvy34/T9H8zU08ue0S/WvKDnfjDYvq+5rwV+XTfe9DXdaJcBp/MM2FxabBhrI903AQAArlZQ8pf2LVwTQwP00ewAHfvNl5q8z1M1IekGZUV5brfpvwwFrfEa2mLNwfG9AN1qFy/X2U8MhW7o+KEyaKk2teVvlj9Z8qx9C5finplL9MMh0tHd+/XHW0MV8q3bdVvvXrrtlptV+4df6rl/PWOv2WCEZi2L07Avj+rVdf+qo3Ztq0JG6PsPjtOYgb1145f1OlH0nv7lX/NVbd/tbXDiTzTrr88ob8evlPuJXdnA6oExOUx1n5iPveFv9K0+vXVbr5t1o30I/OV8vWS+5xv/9AfzfWW1eF/3z3lG3xt4TgeXvKoMq8J+vrOHn9WLme5VcBleTXnBvoXrTcCyEumloQH06AAAAOjSArQhLkB3mLc+tZMc+naAXow0y0WGO+m07b88CQjrdovFO8nhZZu/dd2LoY/N+/9jn7/7viTJgeuY1QPibzXxoan64eOz9bOfLlHC4L8y6/9Kgyc8qIkjhyist1k885n+48h+7fp394N8FOhPf/6a+VS9dUk/E1cX6N/e+KVezDigo2e/pn4jHtTTz8/W9/z0fIrsG6yvm8ttpz3l2wYOMd/ro/rJwieVMilMX7fqBkVr2B291dN1Rn8szlfur7bquSXP6sWiM+7eGtX/7732ky9AN0CiAwAAoAu743sBSrjdLthefChA3/7C0P9J65ykw4k/SzdbURfQlUx+VD/5wVTFjRniThboyzOq/EOVas27/lyxSz955gUtefFVvfhPv9K/ZL+ngxW+vTk88k6Y9Tf0VshYsxAyWPfc96B+aA0f+ekSpax+Vq+u+YkSfRIZfyrapVfXvqp/K6hR7dkaHfXtsaHvaEAf859zNSpxT/Q7Qt9PfFRxY4dogPlWz576H/3FrD1x+Fnzfa7Rz37+ul791W+16w+V+pPCFHeX+SXwRZWKdvh/z0B3Q6IDAACgqxoaoCwz2PqvY2YgZFdNSLxBs/tL+98z9Kpd53ajms+1YS2+83O0xp63Y5i7YOjkeanfN5suWWtd1vZks8vaAtehD3dp4xu/1E+WvqCnVqboxV9s0sZ/LXUn7r7eK9heqTVWb5BoxcVP1ff7WVm+mzX4oRf06sIf6IeTojXsrr/W1788oz+d/5pk/l92r4zmzijvX1/Vz37xtkrsmkbfDVPITVLt8VIddlcUKDfD01vjqed/qRf//aQuuOtbum3CdzTsNvOx5UfUifMOA10KiQ4AAICuqE+AchID9O2zhhYVNvXc+PY3pU/zDU1+z66w3XpngP75Bz6L+fjWkhOPpd7gngPCvawI0K/M9Wfb9xWdMZ+vt9zDZaz38dDfeCY9bbysLXA9+lOlSlr00ihVbZ35T69v6H5PhX/xP9BPfvCgJv7dEIXd8mf92ZqG6E+l+jd76MhTy9fouV+Uqu5mq/5zHbYvv3xpwpQYFaob9T+q+kOBXSdVV1i9NdozQt+PNh97wXzNnKbHAt0diQ4AAIAu6usXpW2/MbTbLlte3fCl/i6j5ZAVv3N0PGO0mpxoNkfHLqnerre8esr8801PkmTC5ACNMv/NzGFuDnRFZ1T13+bR/fXeCh37HSU++gM99dRP9NzKZ+2rmIR5Vtv3W736j8+6e4MseXGHjlpdqG76murcQ0c8bpswRAO+Lv2pquCy5sm4bVyMovqaN/6zRP/m6c5xycbM/K4ie5mv+Yf39Js2siL9et0s/fmcTtjl1g3WD388U/ffZheBLopEBwAAQFd0ytB3V3ypBcV2uaP09nPFlW9IN//ZMwmpW6GhT82zyOjvB2j930qf/sHQKiv5AVzXfCYjfepJ95wacQOsbhi9dc9D43TP0DD1C5T+UlPpmZD0oN0D5E+VOtp4qZRKVZ6ul3qZz2fXWAmC740M1Y1fVOnwrkq77hLcNlaJ462JRs/oP3b/9hJ6cDS5bdxMfW/IX1lZDv3bv3bMFKS3TRinYXeGKSY21K4BuiYSHQAAAN2Bvzk6ojxXa2nGmn7AO6nhj3nn/++UNOp/mY//b0OLfkVvDlz/YmbPa5qMNCzYbBIXdKKyVIf/8Ln+bN7/p4Jf6qnlL2jJ2vYnJH3/1Dnzby/dNs5Tvm3ydzSkt/kc/2+/ci85WzFYiUnf0eBbrNf+rTaX2tWXqN9fSXXna3QwJ6vlnB/NROs28zVU9z/6D09FK8YqcYydrNlTZdcBXROJDgAAgG7A7xwdj0pT7Psb/H/fMP/8Rc26uP/km+af89JOT9FkuOfpsOx+r/nQGeB6lfdOljbaw088c2q8ql9syVJGxufuyXx73jrEs+Kl+OMZ1epm3RbqGdoy+Otf04UzR7XrV5fYs+K2aM16+lGN6fs1/fmzA1fUI6Pkt1v13POvKqPdBMk31PPrZrM+f6aNHiO9df+ccRp8ywVV52ddRrIGuD6R6AAAAOgG/M7RsdTnyiymvw0y/5yT/i06QCtiPD0/HgoxH39G+tSziu74ToCWDJLq/yINi2y6+orM9X8/208vEeB6UH1UJY3DT7x9rtrz0te/Geo1FKUdBZ/rT19It/XxXEf2YOarWrL2VzroLrUtZOxU/Wzhgxp229dUe+yA/mXDrnZ6ZFylCX+jb5lR359Otj5ZaeSDU/XAwJv154r3tDnHfy8WoCsh0QEAAABbgO6yrtryn4b0pfRYvKfnhzXZ6Fv7PMNTrCTHB1MCpE8M/eAP0rcGBejFPu673GeW3x4aoMV2Eega8vUnayTKLb0uPdGhAs9jbr1dMZ6KdvTW4HEP6yc/fUZPP/S36hf4P/rj/83SL/7pEpMc1lVeTLf2Huu5ccl66/tDQnXjl5/r6Hv+ExiRD87WD8eF6uvnK/Vu1oHLmicEuF6R6AAAAHCIrzckHK7UxAD9baD0H/9u3v53Q4Mae358qZ8WSxOm3OBJchwz9KMNhnZvM7T/gvTYo55eHHf8dYBuPW/oD+4nA7qO6nP10k1/pX6eDhqX4Iz+aE1IektvDWjrCiV/M1Y//PGTSlnzpH7y4AgN7vM1/elYgf5tQ4p+kfOHS08qHPijTnxhtvGB4/Tcwpma9ehU/bDF8qDu93n/t02YqjF/LdX+v3z9m58Xu3XQk/qRneT4zYatep8sBxyCRAcAAIBD9B1q37giAfrVaOnmU4Y2+c5E2idALybfoKzvSPWlhuJ+2TAvh6EFewxpUIB+vyhA//xt8/7/UquXrAWuV3knrN4OvXXbXZ7ypfA8ppduG+kp+/XZn/X13r2k8zU6mr9Lr778gp77p7eV53cITVv261+y8nXUfMmgvw7TsBF/q3t8l6hIDbYuU2u7bdwP9NT4UN14vlLvbfU/bOXrt1ozqJbq30hywGFIdAAAAMDDPDPc/38NM6Rqqd/XzPveMzToDaPZlRs+Net+lCfdHBKgUbdImWYZ6HKOn1Ptlxf0tV6XMSHp/zujP30pff0bbV2KtUAbX3xBS158Va9mH9DRq0gm/Knot3p17Ro9tfRZ/WSJn2VpijYesFdWbw34Zi/d+Ocqvf9vW/W+XdvofL3qLlzQn4p/q1+s+1flkeSAw3hmj1pabBhrI903AQAArpY13AFA56pNbfmbpRXwAuhcr6a8YN/C9SZgWYn00tAAenQAAAAAAADHINEBAAAAAAAcg0QHAAAAAABwDBIdAAAAAADAMUh0AAAAAAAAxyDRAQAAAAAAHINEBwAA6HA9b7JvAOgUrbWxm2660b4FoDPQxroGEh0AAKDDDbndvgGgU7TWxv6637fsWwA6A22sayDRAQAAOlzS3wco6OuGXQLQkay2ZbUxf/4++h7dfHOgXQLQkay2ZbUxXP9IdAAAgA43Y3SA+vbiNAPoDFbbstqYP2P+boSCevWySwA6ktW2rDaG6x9nIAAAoFNsnRnAXB1AB7PalNW22pI0PYF5BIAOZrUpq22hayDRAQAAOsXf9pd2P3GDwvsyjAW4WlYbstqS1aasttWWkL/upyd/PFt9g/swjAW4SlYbstqS1aastoWuwZMOXlpsGGsj3TcBAAA6WvohQ2kfGir9XKr7wq4E0C6rB4c18ag1J0drw1XacvDfC/Rh/mH954n/0hdf/MWuBdAeqweHNfGoNScHw1W6joBlJdJLQwNIdAAAAAAAgC6vIdHB0BUAAAAAAOAYJDoAAAAAAIBjkOgAAAAAAACOQaIDAAAAAAA4BokOAAAAAADgGCQ6AAAAAACAY5DoAAAAAAAAjkGiAwAAAAAAOAaJDgAAAAAA4BgkOgAAAAAAgGOQ6AAAAAAAAI5BogMAAAAAADgGiQ4AAAAAAOAYJDoAAAAAAIBjkOgAAAAAAACOQaIDAAAAAAA4BokOAAAAAADgGCQ6AAAAAACAY5DoAAAAAAAAjkGiAwAAAAAAOAaJDgAAAAAA4BgkOgAAAAAAgGOQ6AAAAAAAAI5BogMAAAAAADgGiQ4AAAAAAOAYJDoAAAAAAIBjkOgAAAAAAACOQaIDAAAAAAA4BokOAAAAAADgGCQ6AAAAAACAY5DoAAAAAAAAjkGiAwAAAAAAOAaJDgAAAAAA4BgkOgAAAAAAgGOQ6AAAAAAAAI5BogMAAAAAADgGiQ4AAAAAAOAYJDoAAAAAAIBjkOgAAAAAAACOQaIDAAAAAAA4BokOAAAAAADgGCQ6AAAAAACAY5DoAAAAAAAAjkGiAwAAAAAAOAaJDgAAAAAA4BgkOgAAAAAAgGOQ6AAAAAAAAI5BogMAAAAAADgGiQ4AAAAAAOAYJDoAAAAAAIBjkOgAAAAAAACOQaIDAAAAAAA4BokOAAAAAADgGCQ6AAAAAACAY5DoAAAAAAAAjkGiAwAAAAAAOAaJDgAAAAAA4BgkOgAAAAAAgGOQ6AAAAAAAAI5BogMAAAAAADgGiQ4AAAAAAOAYJDoAAAAAAIBjkOgAAAAAAACOQaIDAAAAAAA4BokOAAAAAADgGCQ6AAAAAACAY5DoAAAAAAAAjkGiAwAAAAAAOAaJDgAAAAAA4BgkOgAAAAAAgGOQ6AAAAAAAAI5BogMAAAAAADgGiQ4AAAAAAOAYJDoAAAAAAIBjkOgAAAAAAACOQaIDAAAAAAA4BokOAAAAAADgGCQ6AAAAAACAY5DoAAAAAAAAjkGiAwAAAAAAOAaJDgAAAAAA4BgkOgAAAAAAgGOQ6AAAAAAAAI5BogMAAAAAADgGiQ4AAAAAAOAYJDoAAAAAAIBjkOgAAAAAAACOQaIDAAAAAAA4BokOAAAAAADgGCQ6AAAAAACAY5DoAAAAAAAAjkGiAwAAAAAAOAaJDgAAAAAA4BgkOgAAAAAAgGOQ6AAAAAAAAI5BogMAAAAAADgGiQ4AAAAAAOAYJDoAAAAAAIBjkOgAAAAAAACOQaIDAAAAAAA4BokOAAAAAADgGCQ6AAAAAACAY5DoAAAAAAAAjkGiAwAAAAAAOAaJDgAAAAAA4BgkOgAAAAAAgGOQ6AAAAAAAAI5BogMAAAAAADgGiQ4AAAAAAOAYJDoAAAAAAIBjkOgAAAAAAACOQaIDAAAAAAA4BokOAAAAAADgGCQ6AAAAAACAY5DoAAAAAAAAjkGiAwAAAAAAOAaJDgAAAAAA4BgkOgAAAAAAgGOQ6AAAAAAAAI5BogMAAAAAADgGiQ4AAAAAAOAYJDoAAAAAAIBjkOgAAAAAAACOQaIDAAAAAAA4BokOAAAAAADgGCQ6AAAAAACAY5DoAAAAAAAAjkGiAwAAAAAAOAaJDgAAAAAA4BgkOgAAAAAAgGOQ6AAAAAAAAI5BogMAAAAAADgGiQ4AAAAAAOAYJDoAAAAAAIBjkOgAAAAAAACOQaIDAAAAAAA4BokOAAAAAADgGCQ6AAAAAACAY5DoAAAAAAAAjkGiAwAAAAAAOAaJDgAAAAAA4BgkOgAAAAAAgGOQ6AAAAAAAAI5BogMAAAAAADgGiQ4AAAAAAOAYJDoAAAAAAIBjkOgAAAAAAACOQaIDAAAAAAA4BokOAAAAAADgGCQ6AAAAAACAY5DoAAAAAAAAjkGiAwAAAAAAOAaJDgAAAAAA4BgkOgAAAAAAgGOQ6AAAAAAAAI5BogMAAAAAADgGiQ4AAAAAAOAYJDoAAAAAAIBjkOgAAAAAAACOQaIDAAAAAAA4BokOAAAAAADgGCQ6AAAAAACAY5DoAAAAAAAAjkGiAwAAAAAAOAaJDgAAAADA/7+9uwGPqjrUPf5OIDaGYlJKQBKugWvABmhAURGiARpuDjSVQ0+ecikUpVhREUqxIpVyGjlSrOKBWi0iFkpL8aZ4KVw0NTc1BSJfIh8BAzklsRBrQk0oJlIjOpI5e83skK/JF8yEZPv/PU4ye2eYWXvNuPde76y1NuAYBB0AAAAAAMAxCDoAAAAAAIBjEHQAAAAAAADHIOgAAAAAAACOQdABAAAAAAAcg6ADAAAAAAA4BkEHAAAAAABwDIIOAAAAAADgGAQdAAAAAADAMQg6AAAAAACAYxB0AAAAAAAAxyDoAAAAAAAAjkHQAQAAAAAAHIOgAwAAAAAAOAZBBwAAAAAAcAyCDgAAAAAA4BgEHQAAAAAAwDEIOgAAAAAAgGMQdAAAAAAAAMcg6AAAAAAAAI5B0AEAAAAAAByDoAMAAAAAADgGQQcAAAAAAHAMgg4AAAAAAOAYBB0AAAAAAMAxCDoAAAAAAIBjEHQAAAAAAADHIOgAAAAAAACOQdABAAAAAAAcg6ADAAAAAAA4BkEHAAAAAABwDIIOAAAAAADgGAQdAAAAAADAMQg6AAAAAACAYxB0AAAAAAAAxyDoAAAAAAAAjkHQAQAAAAAAHIOgAwAAAAAAOAZBBwAAAAAAcAyCDgAAAAAA4BgEHQAAAAAAwDEIOgAAAAAAgGMQdAAAAAAAAMcg6AAAAAAAAI5B0AEAAAAAAByDoAMAAAAAADgGQQcAAAAAAHAMgg4AAAAAAOAYBB0AAAAAAMAxCDoAAAAAAIBjEHQAAAAAAADHIOgAAAAAAACOQdABAAAAAAAcg6ADAAAAAAA4BkEHAAAAAABwDIIOAAAAAADgGAQdAAAAAADAMQg6AAAAAACAYxB0AAAAAAAAxyDoAAAAAAAAjkHQAQAAAAAAHIOgAwAAAAAAOAZBBwAAAAAAcAyCDgAAAAAA4BgEHQAAAAAAwDEIOgAAAAAAgGMQdAAAAAAAAMcg6AAAAAAAAI5B0AEAAAAAAByDoAMAAAAAADgGQQcAAAAAAHAMgg4AAAAAAOAYBB0AAAAAAMAxCDoAAAAAAIBjEHQAAAAAAADHIOgAAAAAAACOQdABAAAAAAAcg6ADAAAAAAA4BkEHAAAAAABwDIIOAAAAAADgGAQdAAAAAADAMQg6AAAAAACAYxB0AAAAAAAAxyDoAAAAAAAAjkHQAQAAAAAAHIOgAwAAAAAAOAZBBwAAAAAAcAyCDgAAAAAA4BgEHQAAAAAAwDEIOgAAAAAAgGMQdAAAAAAAAMcg6AAAAAAAAI5B0AEAAAAAAByDoAMAAAAAADgGQQcAAAAAAHAMgg4AAAAAAOAYBB0AAAAAAMAxCDoAAAAAAIBjEHQAAAAAAADHIOgAAAAAAACOQdABAAAAAAAcg6ADAAAAAAA4BkEHAAAAAABwDIIOAAAAAADgGAQdAAAAAADAMQg6AAAAAACAYxB0AAAAAAAAxyDoAAAAAAAAjkHQAQAAAAAAHIOgAwAAAAAAOAZBBwAAAAAAcAyCDgAAAAAA4BgEHQAAAAAAwDEIOgAAAAAAgGMQdAAAAAAAAMcg6AAAAAAAAI5B0AEAAAAAAByDoAMAAAAAADgGQQcAAAAAAHAMgg4AAAAAAOAYBB0AAAAAAMAxCDoAAAAAAIBjEHQAAAAAAADHIOgAAAAAAACOQdABAAAAAAAcw+X9+aN8j+eJwd67AAAAAACg46mokvLe86jgtPR2iVRY5tHfK6XKj6Uqt/RZtVRt3UJCpK7WLTxUirhaujZCGtDLpa/GSPF9pGF9XYoMt5/UQVyPHpN+NsRF0AEAAAAAQAf0sVt6vUB6Lb9aO09Ipz/0qNtVLn1irT//mf0geaybr2nvX+3fw7pKXwiVPvrUoz7XuDR6oDRhSIjGxUtXW+s7O4IOAAAAAAA6oM2HPfrtHmlnkUfdvyBVVlkrXS0FGm1lPZ/HpYhw6dwn0ug4l+4aJaXdGMjXaF8EHQAAAAAAdBAnz3i05g1p/V6Pd9iJGY7izTVMvhFs9uuYYS5m+MuMkS7NukPq37NzhR41QQeTkQIAAAAAcIUcP+3R3eurNXxZtV54w6OPPvH4Qg6jPUIOw34d87rm9U05THlMuUz5OhuCDgAAAAAA2lnZOWn2Sx4l/adHWw5Ln11wWTfzlyvdi8JXDlMeUy5TPlNOU97OgqADAAAAAIB29PxOjwY9Vq2MAx59enFS0Y7JlM+U05TXlLszIOgAAAAAAKAdmGEgY/7To2Wv+QIEbw+Ojp4dWOUz5TTlNeU25e/ow1kIOgAAAAAACLJf7/Fo1FMeHXrXzMHR+ea9MEy5TfnNdpjt6agIOgAAAAAACCIzx8W//z+PqqvtFZ2c2Q6zPWa7OiKCDgAAAAAAguCDKo++tsKjrUekD8/bKx3CbI/ZLrN9Zjs7EoIOAAAAAAAC7OQZKWm5b6jHP893zqEqLTHbdejdau92mu3tKAg6AAAAAAAIoL+879G4lRdU/A+p2pkZx0XVHpd3O832mu3uCAg6AAAAAAAIENOz4eu/qFbZP12S9d/ngrWdZnvNdneEnh0EHQAAAAAABICZq2LiL6tVfs71uck4apjtNdtttv9Kz9lB0AEAAAAAQACkrZb+9oHVyP+8pRw1rO3+2we+eriSCDoAAAAAALhM5lKr//W+b86KzzMzJ4mphyt56VmCDgAAAAAALsOv93i07Yhzr67SVqYeTH2YerkSCDoAAAAAALhEx097NP9ljz48b6+Al6kPUy+mftobQQcAAAAAAJdo9ktSdbW9gHpMvZj6aW8EHQAAAAAAXILnd3r0Trm9AL9M/Zh6ak8EHQAAAAAAtFHZOenft3lU+THzcjTH1I+pJ1Nf7YWgAwAAAACANnrsFY/3CiNomaknU1/thaADAAAAAIA2MBNsbjrk0WcdcG6O63r4bh2JqSdTX+01ManvAr8/yvd4nhjsvQsAAAAAAJp29/pqbTlsL1wh00a4dPv10h0DfM16f+HGu2el4rO+cOGl/dIbhR7vuivlmzdKv5kRvP4WrkePST8b4iLoAAAAAACglU6e8Wj4smp9dsHXnG5Pj453eQOOy+mx8UaRR7sKpY372z/06NrFo4OLQtS/Z3DqriboYOgKAAAAAACttOYN87N9Q47np7r04TMhenTC5YUcxh1xLu/z5KeHeJ+3fYe5uOz6Cy6CDgAAAAAAWmn9Xo8+u9A+c02YHhwm4DC9OILBPK8JPMzrtEfgYerN1F+wEXQAAAAAANAKmw971NXbig5ujw4TOmTO9fW8aA/mdZ6f1h5hh8tbf6Yeg4mgAwAAAACAVvjtHqnyY3shSMzQEtPLwvxuTzWvG6zeIzVM/Zl6DCaCDgAAAAAAWvCxW9pZ5AlqZw4TNpieHFeSmbcjqGGH9dSmHk19BgtBBwAAAAAALXi9QOr+BetOkEZddISQo0ZQJym16s/Uo6nPYCHoAAAAAACgBa/lV6uyyl4IsJo5OToSM4wlWGGHqUdTn8FC0AEAAAAAQAt2nrB+uILTncNMBNoRBa1cVj166zNICDoAAAAAAGhGRZV0+kMTcgS+4W8u7dreE4+2limXKV/gubz1aeo1GAg6AAAAAABoRt57HnW7KvANfjM0pL0uIXupTPmCMYTF1Kep12Ag6AAAAAAAoBkFp6VPgnCVkGm3duyQo0Ywymnq09RrMBB0AAAAAADQjLdLpPOf2QsBFNTLuAbQ7QPsOwFk6tPUazAQdAAAAAAA0IzCssAPsTDDQYJ1VZNAM3N1BKOswahXg6ADAAAAAIBm/L3S/Axso7yzDFupEfjyeux6DTxfSX+U7zm7MMZ7FwAAAAAA1Ep4orsqzwe2of/8VFenGbpibHzTowdeCmzYExHm0dFHz9lLl6/HkyXSz4a4LgYdpd//svcuAAAAAACoNWR5lNwXAhtKZM7tuJeV9eeNIo9Snw1s0BHaxaP8BeX20uWL/sU/6gcdnicGe+8CAAAAAIBakfOrVV1tLwRIfnpIp5mjw3j3rDRkSWArISREqlgZuBk1XI8e8wYdzNEBAAAAAEAzAh1yGJ0p5DCCUd5g1KtB0AEAAAAAQDNMz4NAMz0kOpNglDcY9WoQdAAAAAAA0IyuQWg5F58NzqVVgyUY5Q1GvRoEHQAAAAAANCM81L4TQO/+w77TSQSjvMGoV4OgAwAAAACAZkRcbX4GtkcDQ1c8dr0GHkEHAAAAAADNuDbC/AzspWB3Fdl3OomN+wM9dMVl12vgEXQAAAAAANCMAb0CG3IYbxR5Ok2vDlPOYJQ1GPVqEHQAAAAAANCMr8ZIYV3thQDa+GbnmJA0GOU09WnqNRgIOgAAAAAAaEZ8H+kLQZg484msjt+rw5TPlDPQTH2aeg0Ggg4AAAAAAJoxrK9LH30anN4XHb1XR7DKZ+rT1GswEHQAAAAAANCMyHCpzzWmUR74Rn9H7tURrN4cph5NfZp6DQaCDgAAAAAAWjB6oPXDE5weCF9/trpDhh2mXEFh1aO3PoOEoAMAAAAAgBZMGBKiiCD1QKjpOdGRwo7UZ4NXHlOPpj6DhaADAAAAAIAWjIuXzn1i3QlOpw7vXBhvFHaM+TpMyGEufxsUVv2ZejT1GSwEHQAAAAAAtODqUGl0nNVK7xhZRNAENeQwrKc29WjqM1gIOgAAAAAAaIW7RkkRV9sLQXDdl+07V4AJN4YsqQ5uyGEx9WfqMZgIOgAAAAAAaIW0G136zDs/Z+DDgOt6SHeYHiNXwBOveYI6J0ctj7f+TD0GE0EHAAAAAACtNGOkS127XJlAItDMvCCmF0dwLiHbmKk3U3/BRtABAAAAAEArzbrD/Ax8MDDt1vYLT0wPDhNwPPBSe1/pxWPXX3ARdAAAAAAA0Er9e7p0Z0LgQ4lpI1r/nCaoMCGF+W3m1DC3pgILs9703DCPN+HGNfN8PTjaN+DwMfVm6i/YfK/wo3yP54nB3rsAAAAAAKBpx097lPSfHn36mbUQgM4dZn6O/PTm+yGYsGLXO77fzTHPZVyJIKNJLumqrlLuD10a1Cd4QYfr0WPSz4a46NEBAAAAAEAbmMb65Jtc6hqgFnVTw1bq9sQwv1sKOQwTcHSokMNi6snUVzBDjrro0QEAAAAAQBuVnZMGPVbt69VxmR4d7/L2xPCGFB9IbxRemaElwWJ6cxx/LES9utsrgoQeHQAAAAAAXCLTaH98oksRV19+LwUzZ4Z3zg3rt+m14aSQw9SPqadghxx1EXQAAAAAAHAJHhjt0vVR9gL8MvVj6qk9EXQAAAAAAHCJVk21Gta0rP0y9WLqp73xdgAAAAAAcInMBJsrv+XSNWH2CniZ+jD10l4TkNZF0AEAAFBHRe4KTZ2+Qjs68/joExmdfxsAoBP57iiXJg516Yth7d+o74hMPZj6MPVyJfheNZhXXblQpcIdv9Xvtp+WO8Qtd5d4pd4zRWP6htoPaMaFcuW9vEGb8iutBevf9hipGffcqcERvj+3pOL4Zq0sGKolaXH2mtapKt6nLVu3afdfQxUZVq4yRWlw6hzNT6odfFWYca92x6/SjKHNbUeRNj5dqtSHkxRpr2nInEzNPjpKv5pzm8LtdfVVasfTD2tTRbQiTSxVXaGS96WYISP1jbQ0jfJTjxX5Wfrdltd0/J+RijxfrorusRozZa4mD7Ff4WyunlonzWqmXN7HZEfrkSn+667iRK4yX8tR3l8rFBoRqYozFYqMjVdi6reVOqT+G1Tx5jo9lVlsL1kqS1WiaMXUeVi/1Ic0a0Qr31gAn1tVpUe1K3undhwuktva94RWVsgdHa9bkiboG7fGKryL/cBWqijK0dbNOdqVX6oqWfv82ASlTLlLkxrsx7wuVOrYK7/V+uyDKjknhUcP19hJaZo8Mtr6l3VY+928rAxt2n5Up866pe7RGnTreH1ncpL6+d/R1zr5in7wk80qS12sl5rY/3qdP6r1c1coe+j9TR4/SrKXasGGcM165iGNsa+n31kVZsxQeqa90KSEgG2r99j8onWc7KB15y4v0PbM163/D+zPmJf5/I7UdxfM1C3m42uCjsdLHfH+A0Bn8rUVHh1616Pqlq8C61ghLo9uui5Ef36o/UOOmquuBDnocFsnJ0u1pfccPTLWDgmqCrRxyWZFzVuslGjfKr8ulGvHM8+pZPxCTRtkn8K9bzW+lxQrZcV0DWumW5A5Acj+w+sqD3Eru/vE5k8WG3BbJwbpr0Zp1r3J6lczK+wFt8oq3erVo/ZU0nvSlWOdVC2zTiCanHympaCjXNlPbFCedYZ868ymTkRM0LFWavD3qpO5+t3qLEXeu0ST42pPscusk7OfF4/TD6YkqFfNanelyqrC1SvCXnE5QYf1vry17jlt6ZKk796ZpAFRdU7vz5UqL3ud1pxO0mMPJKlXEw0OcwK5RvfokSSCDQCtdKFSeb9/VlvOj9R3Uq19T+86+x5rH1fydq5+/ftTunXu/UppTZBuFG3W3Uty1O/2ifqXxFhFWPvbUznbtPFAuYbdu8zaR9XZuXuPSYu0piBWqdMnapi1Py7Zv1kbt5dqcL3HVmrPinl6oThBKWnjrMeFyn32iLZsyFJhj/FasmSKBjR1/DKvsXKB1hyx7rcUdFh8QUalJv/Hck3qb6+sce6gnnvoWRUlL9Zy63laWSMdVtV7BTpZYS9YKo9m6LnXemrawnHqZ68zDf2oG+Jqj32XocMGHebLo8wVWvpykdzd4zTq9ngN7D9IvdzFOlFeobLjFbrpwfs1ypQ5WEHH+we1PuMtDZxuvw4AoJ4PqjxKWu5R8T+shc9j5w6PFPtlKXeBS18Kv3JBR3CHrpzM0przaZpfE3IY4fGadv9Q/SmnQDXfQfhTtT9D24fcVxtyGL2TNGd6hbbsLrdXNFa4bale2O/WsOlzNWN0c0mKP8XKfL5c36gbchhdQuuFHDVS7xygzN/kquyCvaKtivfpT30naEZiqLYfbnqb/Anvn6RZ94/UnuyjqrLXqeqgNm0ZoFlT64QcRmhEbchxWdzK25Cu7bH3acnM5Pohh9E9WsPSFuuxhANa9MLB2nIBwOW4UK49zz+r/dfb+566IYdh7eNibrpTi9MnqGrjCm092dzRpY6wfrrv6VVact94jRoSr8FDblPqvMWaM8Ls63JUWGffbo5Jaw5HafLixZqWlGA9NkEpMxdrfrKsx27WW+fsB1oiEhfr+RUP2Y+L17CkKVqyKE29SrO0Zb/poehf1YHN+nV5tGLs5ZbEJE1USli5Nm3OVZ0MwOvU9s3acz5Bk1I6f8hhhPc170/tbVBfE5RHaWCddYOHBCbk6LjcKnx5qdJfLtbg6Uv0q2etz+rUNKWMNJ+x8ZqcNkVz/r0dwofKQmUfqNKn9iIAoD7TuN/2YIiiuntMm/9zxWyv2W6z/Vci5KgrqEHHqbePKHF0QuOTrP4JSjx0QMeaPBet0rHD0r+MbBxUhA8dpaidR1ViLzc0YKJ14E9NUIy/frwtcuujM1HWm2MvtuQrd2rBrQf0c/PNir2qLU4d3qvBN1onZkNuUeSr+3TKXt9q18Xplr2FtXVx/iNVxUQoso1dt1vLfWKzNlbdozkpDbppN9Araa7mhG/WlhOXUisAUF9Z7gbtSrhPs0b4QnP3+0e19Zl0zb53hqZOv1ezH1+tPe9bfwiP06R5E/XR77apsDW7n77DNaq3ff+icA1KSLD2p6UquZhJVGr/7oPSiIlKibVXeYVq2NiJ6nV+n948XhPtRmjwiLjGQ2j6x+sW61deaROh9rmDWverd5Ry9xQNs1e1KCxBY+60jpNHXlFm3f3t2VxterlUvdLSGLLgIOYY/MvMUg2YvkSPWB/Etg7TAgC0n/49pT9+P0S9vmg1/T8vaYe1nWZ7zXab7b/Sghh0lOvUsVj162sv1hOtfkOLVNZUJ4YLxTrx90GK9Rc4hPfRQJWqPCht6AhFxRXpZKm92Aq9EqcrpXSDNrW1UX+hSLuzE5QYHyp1T9CI63OVd9L+W2t9UqUP+kfVjs3uHqVefy3WqfP2ckC5dWzPQSVOGN7EXCJ1WSf/oxK0/c1LC4AA4CJ3gf64b6imJdohx4kMLXr4We3vnqRZi5Zr1ZMLNWt0pP5Z06MiLF7fHFeq3+W2rZdcXZ9e8O25rqppSFYVKf+INGjw9Y33f33jvAHGW++1cOCwnzPUX0pshqy8uFpFY2dqct1ejK3Qb2yaRoWVK3PbXrtXh7WvztygPA3X5OSaVKZIG6fP0FO5lXK/l6v1j8/T3dby3fNWaOtxO805W6CtzyzS96z1U++dp6cyjjborWiGUVp/yyiy7tZ57OylWp9b6tvXVxVrx/qldgA1W+kv5NQ5Htn/fv4rfkP9qjdXW/9mqbJNYHWZzDxbGy8GYWY707UyY59K/B0bzbwrmauVPu9e+7ErtPFQedO9FezHL1042/t4s50LnlytzJp6bE7xK1pg/Zv07AaflbP79JRV1gXb6sxl1UiV3srOUlnPNH03ua29VaWK/Fe00i7z3fPqvGd1We/fnoxntciui6mzF2nl1gJVXPwc+D5HUx/Psu4f1Zp5vvqd+nTjHkUAAOmG3i69Pr+LdxiHmbPCyUJcvuEqZnvNdncEQQw6KlVSFqlIv1/9h6pbWLHK/2kvNlRZrpJrI/Ule7G+brrqmnJV1OkmHDhRGvvtOP3pmXW+bwdbo0uUxsxOk/vnz2pPG2Y2dxfsVV7KSA3wnkiHa9gt12vLm9YJZBu4C4+r9Oa42m7OofH6+pRyPbf8FRUGfNxIsU7sHq4B19mLLek7QMMKS1VmLwLApXAfP6CyxJsVY/aV7iJtej5L4dOXaNnMZA3rH6XI6Djv0JCUOtNZhN88Wv0PWw00e7ltqlR0rECKG6q4mmmEKipkmqZ9e/iZ1ahLT8UMsop2rqr5YPfdIr1lHfvG3lCvS4hX2e4N+vX7yXrw3+Kb7S3nV/fh+kbdXh2ludqU7VbMtyZqVIMvCz597zU9t7ZI0an365H5M5XSs0CbnnhSWw/t03OLM1Q2ZIrmL1yoOeOjrMb8Ci3f6iesPndAG3++Tbp1uvXY+zXthiplv5iuF/Ye1dYlT2pX5Dg9OG+hHplxs6p2bVD6qn32+xChWxOHS2f8hfpVyntrnzRinG5v1MOmbcp2PavvL16t7efjNfmBhfqxtT33pfRRec5qLUjPUGHdsMM778rD+unW04pKucf72EemDNIHf0jX8szT9oPqOG99/tJ9j49Musv7+B/PNz1wjmrjEw/rqZbCtdjxmjUpWoUvb6sz1MmtvG1rldcjTQ+mNv5sXGR99k+8aR3mR8SrX5t6crhVkr1CizKt6p0+1yrz/UrtWex9zzYeqfvuVmrHKut9zA9V4pSHvNs2JzlceZuftLa35nMQrTFmm6da76NilTrbV78/nhRvnZkBAPwxPRvMXBVmYk6nXo3FbNdN17m829kRenLUCO4cHWYYhX23oajoBPteE3pENNFzIEIxfnuJBEbowClaNjdO+c/O09KtBSpr9szVFpagaT+I1qvrWztfh3VSl3tUiUNrT2rCbxqlsTl7mxnOU4eZHDV/s57cGq7v1u9HrV5JD+npNOn3j6ZrTW6xqpoqz18266mfpGtRU7cVm3XMfqhXVaXK+liNitaeYIVH6Esny60tBYBL91FluWKutROH4iPKPpOsb45t4Rvt0Fj1Mz3/7MW2KMtdrRfejFbqt5PUy16nf5Z7eyGEXu0vhrjK+oP160yFPvKtaMxqIG9cvVkf3DhdXze9+OowPVSWv3hGKfekNT1JaQsu9urIzlHmVqsxH3abJo9t3Gg+vt2tsQtnKuWmeA2+KUnTFsxVSlipNq1cqy/et1izkn1zioxKW6j5SVJJ1gGdangMyS1S1L0LNWmkmRPjNqXOmaMZcW7tWbVCh5MXa/Gk27zPMSx5pn4wNVbuw3uUZ38JEH7zOO+cIjuONOi5cPaAdlmN+FG3JDRx3G+ls7la/8JBfSl1sZ5fOEVjzHaa7Um9X8uWzdSw0iz9Mqv2tSt2b/DOu5K6wAx59ZV78MjxmrNkoRIbfXrcKtz6gra+H69Zy5bUPt7U48Jn9OMJkcp7MUN7mv0SJlQDUmcqtcc+bcz0hQdmOMr6nChNnn1n8wHGuQrvFweDo+vMedYqBcouvVmPPXznxXloJnvfd7eyd9eZ48vS7daFen7J/Ur1vrd1PwdH7F444Yoxz3G9KYN1LnaD73GD46LaHtABwOeImavCXH1k0lDpmks81ndUZnvMdpntu9JzcjQU3KCjkwrtm6RZS57Qd3rs1c/nLbUvb9s8E5DMirNOonJaMe7l3FHtKkzSsLq9I0LN5RFz9dZxf0lHgTatsAOIeffqe4tWaFPxIM1Z7P/EOHLQnVq84iElns3Q9xet045iP3HDDWl65D+WaFlTt4fSVO86PG43oQWAdldRUfvNekVpsdU4DFW3YLSqzNUsti3VghfPKHHOfE0bGKAXeX+f1qQvVfYX07RkdoOrUZXnauXyHEXde5mvV9Or480MbdzrVsydE3SLn6Gfockj61+xLCxW/W6wfvecqDFD6r5+qLW+4TwltqFJurVuztQlWv3Nc2h4o3m1Yq6Pt34eVckZ37I5zo1JjVLZzqP1ApSyw7nKC0vW2JsuK+ZQyYEc75Cdb6b6mYA1aqRSkq3XyjygQu+KcuVZDX0z78o3G9Z9l1iNGm/KXoe7QLszy9UrNc3PldZCNXjMePXTQe060sL5QlicJt89XsrM0Pb3ipW5Nkuh37pPk5rpzHG5UsY3+NyFxWtYovW76qM6Q3QirHOQ+AbzftR8DopV0oYeqwAA/1ZNdenxf3UpxCEtcLMdZnvMdnVEwa3mD91NfsNVXmqdYDTnfFPdgCtV8p59t82KlNmw54J1y/Q3YqRLuPolzdSyp6crcsdPWu6SaumXOl9j81/Qxhbm6yjb/7qKxyY0+PYmVANvTNL2N/xdrSRekx+yA4hnXtSvnlyoOanxzfeu6BKhwZMW6lcLb1bJi0+2WKYWRfRUzMnyOmN1W1B5RiVDo9XW754AoK7IyD7SZ/b9nqYhbR1XWtydWQ24j9oQHFRZx4anH1Z6Vqgmpy++OOnpRSGhjRvOF1mv9aH1KzqqUQ/Gsr3rtGjxWp264X4tX3Sn+tUNGUwvj6fXqTzZfGt++XtKX68O605YsqY16OlXo3FvALuHZFsmse4b3Wg7fT00WzeRd7+hVqP7zDbtfsdeoVLl7SxSr9QkDW7DW+ZP1dlia/ut447fcoQqOjbe22gv92YR1rnEcWttn55+e5Fc1aVBYeweFdE9m+in2jva++XAsfdbPlcIHZSmGcnF2rhkqTaphSErDZRWtHVAVoJirrXvXmSGD1u/jjTo9XShSiX5ucrcnKHnnrTOjxbO1uwXWzhXAwC0yXdHubTnEd9Qj4irO+dQFlNuU36zHWZ7OqogBh3WgfRcUw3jKlWcjVeM/0k4rBOVbgo/XaEP7MX6KlRRYp3I1IydbpM4pTbsuWDdUuuM7W4kPFYp981VzJbNequlLg1mvo4ZE1SydrOONTkhaLnydpUq9IB1AtwgcEnfVKRuR95SXiDnH+mRoGkPJavk+ay2X9WlnmgNHHlQha0Mmdx/K1T5wNgmhy4BQGtExg7QiRP2cIN+AzQmLEfZu1poTJ4tUp717/rZi816P1crH16qHT2maPmKhdbxwE+zt0eUtxFb8nc/39ZfqFT5SatoPesclKwG47HN6VqwrlTD5j+tZTNvq/+NuqVi/zZlllrPmbnUOzGob2JLc1uqTPMAa71ZNhOItkr3OA0xPStuiK0fqHQ0/W/T1+Pcyn7TvsT8yYP648k4fX1kgLo0fPGqZkIpI7zehLBf8js7bNPCW3h8a5+vW/couc9bNWCdzLSqH0uPWA3saXq/FAVn7qvyfVo5d7YWrMrSiXOh6nXzBE2bPlfzJzXo2QIAuGyD+ri044cuLZogXdVV6mrOETp65mGVz5TTlNeU25TfbEdHFsSgw1xZpYmG8YVSnSgepH5NfYllrqzy8XH5G3Ghs8U6MWCA+rf226dACI1STEyVPmrN1Ux63Kb5d0vrVzUxX8fJffqj0rTAT+Bibo+kvqv/v7/lb4TapEe0Ys581EQPmdYK17DEBL26/WgrnqdSu7MK6s1BAgCXJPY2JRa85pu8MXy4Jt09XCfWLVL6S7k6VlqpqrOlOpaboR0Xe+a5VZidZTXUWjGx57mDem7xOpUmLdaye5MU01RAYDcy8/5qhs408J5vktHB/WqHbZzKXKqfZkXou8sWa/Ig/6l8t/iJvokcG92meK/iohFTvMvfjL+84RwdT5RuTxkud+4BmY6Gp45Yx8q4kRp2mZOQGuHW+6Qzp1Tq98sCt0qLC6SeMYryVmmoupng4L0zfodlfnS+QcDUPdI7Z0vR6SaOz+9bn0PrV1zvlnvnmHk51myVJs+/X6P+sk7rW3WFoFjdMiHOKkCG/lhvEtHAKMxZq7fcyXpkxTLNn5Gmycm+OUhiuTwxAATNA6NdOv5YiKbc7PIGCB2ZKZ8ppymvKXdnENQeHYNvTtDuvY1nbXfn79Uxq9Hc9Ldt0Ro2+oy2H2j8TVbJgb3WuW58674BCRjTNTnc19WzFUy31FnROVq/u/F8HeakLjZlZO0kdw30Gzle2nlUJfZyQLir5O7ZreWT/haEDhmv75zN0At7mz8pK9u+Vtl9Z6oNvXEBoAlRGvutKG150Rce97p9rn6x9B4NLM/SyoXz9D1zqczDUqTdIDONyF+ftRpq9eac8O9UTob29JmiH3zLz5wO9ViNzHHRUs7r2l1v9+dW3vZtKoueqMTr7VXn9mnLy6Ua88BcP3M51AqNivNN5NjoFuc7PvT0/X1A1OXuuTue8CG36JbzZk6qo955L25p5pjYFjFDkzRAB7XFnuiznvK9ys6RBnzjNvvcI1aDR1h1u/c17Wp4qK46qj+93GDCVDOPVkqoyjI3a0ejQ6Bbx3Zk6VRr5hk5X6RNa7OkSdYx8qbbNHlqgvLWbfDznI3FJE1RarRb2c8t1cZDrezp0yqVKi+1aqxPtKLqnudcKFVeboG90FCBypi3AwAuW6/uvrk7cn/o0jdvNL0mPL4eHrrSl6P1lcOUx5TLlM+U05S3swjqHB2h8eOVWrqh/gHZdBN+ObT+1UKqDmrN7HRl1un90StximKyrQZznW4dVccz9Mv8kZp8c+2JRNWBdfre4qzABAOVR5WZU1T/Sivuch3bvEG7R0zQLa1OV0I14Fv3adjuDcq213i5C7QjO0EpdcrfSO+bNfaaLL3V6PJ7rVCUq62HSutfaeVcsXas36ZPpyW3rht3c7yX0r1PfV9PV/rmoypp8K2Zu7xI2euW6penx+mRFhsOANA6oXFp+kFikX75fI5OWYeE8NjbNG3eMv1qw3q9tGGVls+bomE9pIpDG5T+apQenDm8FWF4uU4VWK3LL1v3Cgp0LN/P7b3a409MstUwjT6qNelPamPuUevv+5S5aqlW5kQp9Z7xtXMu/e2U3lK0rqoqavx83luDY8znUffhSkmRtr+UYdVVcvPHxLbonawH701QWeZSPfBkhnYc8tX5nszVWrRonY7dOFMP1kmfBqTco2FhRVqfnq41OeY9LbAa9hla+ujrCh3bcMhGqAZ/a6FSe1ifgUXpei5zn+/9PJSrjU/O009fC1XqgiktzDPi1rE/vKDMT8drhj1haq+kKZoRZz3nb1px1bawOE1b9JBSe5cqc+U8fW/Jam3MzFWet9xZ2mTm1nh8dZsude8TobihcdJJ6xxrXY73+Y4dyrE+6y/oRJSfoSt9+ukWa1syt73ifeyOnIOXeClnAEANMwzkNzNCdHBRiO67w6VuXzBzeNh/bK8OFPbrmNc1r2/KYcpjytXRh6n44zs1u332Y4+NC8T3KQ2EdFO/W4eo6k+r9Iv/k6MdO3co9/T/0P+eM1EDat44w31aB7P/pj5fu139vmiv69pDCbdF6b9eekYvbsn1/tujntG6f+at9cY6u0sP67W/9VbKHbGNr+P+j3xtPh2ttCGt7HsZGib3qRxtXb9Oq//vG9bJUYa27i/Xl8bcowcaXNz/bP5WlfSZpATrJNmvkO66/iuRKnxbGj4yVuZLEndBlp6/eqS+N7S58oSpl+svWvvOtRpv/XvpE53ac1i6caT61a0zf8JDdXb/Nr3023Va++pu/ekPm7XjnWoN/Nd7lDaozonkx8XabT3l8FG+cvllHvNOdyU2rLuukfrK7WM18JN8bfn9Bq3/zcvasT9bG636KvggRDeMu0t3JfVVWDMR2vnivTqom5QY28ouMgA+97r1vVEjer+nLateUM7fQ9WtW7iu6eqSu6JUJ97ep03r1in36gmaf5d1jLjK/kfNOq3da3JVWJqv3bt36w1/t7Aba48f5piUeKO+XHFYWa9m6k87j+vstTfrO3NnK7V/beu2oiBbmYeK9M5BP8/nvVXouq81tz8/q7etY17hwKTWH7u8zLEiy9q33qjURvt233OeGz6h0X7XHMt2fNj435j9dOYh6zgxoaas9vNf07hcvsd219h/G2Jyo1rmGJxbpIGjGx4ru6jXNS7t3LZf+tcZumtw22dzauo1u8WO1NiE7qoq2KdXt2Xpz1ad55/trVu/fb8eThtaf9LVq/sqcfQNCjv7F+Vsy7Qee1inQmL19e/NUOKFAw2232I+A3ck6vqQv2pfTpZeeT1Xb+T9Vfqf39ADP7xPyX3rPnlj7iMvaeFv/6Jxsxcopeax1rnCdX0v6K3f/16FPRKV2L/RmUx9Yb2VMHqchkeH6MOS/9K+P1vnR9Y27j6Ur3c/dKu651eUOOIGfdl8JL31f67+Nti873th3MX66xY7VF/p8ncdeiNLWX/erYNnwpV414NKvtr6vDeshy/01fUx51S4PVOv/Hm/3vnySE0Y1psvNwAgAMwlWsfFu/Tw/3Ip1tpBf1jl0rsf+C7j+on5osRlenoEMnSwns/jUoTVVHRfkMYMcGnhBJfW3hXiLUdHu2RsayzJKZd2rVriK/mP8j2eJ+pdTBQAgI7nglsV7xcp7/BxlXnnTeqmXv3jNeirsepFS6vzOPmKfvCTXI1Zujyol1YFAKCz+9gtvV4gvZZfrZ0npNMfetTtKpc3+DhvX5nON9SluVCi9u9hXaUvWOdMH33qUZ9rXBo9UJowxAQb0tUOOJdyPXpM+tkQF0EHAABoR24d2zBbP/3rFP08PTkg83MAAPB5UVEl5b3nUcFp6e0SqbDMI3NhuMqPpSq39Fm1VG3dQkKkrtYtPNQ3HOXaCGlAL5e+GiPF95GG9XUpMkCjRzsSgg4AAND+zu3TytlrFTrnGc0Z4cAzLAAAcMXUBB1BnYwUAADAKNybpTwzyeWTa5V34/R6E4sDAAAEEkEHAAAIvtLNemplhvJ6pGnJ7KR6E4sDAAAEEkNXAAAAAABAp8fQFQAAAAAA4DgEHQAAAAAAwDEIOgAAAAAAgGMQdAAAAAAAAMcg6AAAAAAAAI5B0AEAAAAAAByDoAMAAAAAADgGQQcAAAAAAHAMgg4AAAAAAOAYBB0AAAAAAMAxCDoAAAAAAIBjEHQAAAAAAADHIOgAAAAAAACOQdABAAAAAAAcg6ADAAAAAAA4hsv780f5Hu9vAAAAAACAzupnQ3w5BwAAAAAAQOcn/TfTENuSk3yNtwAAAABJRU5ErkJggg==;" vertex="1" parent="1">
          <mxGeometry x="90" y="1120" width="1082" height="1154" as="geometry" />
        </mxCell>
        <mxCell id="uIYsc5EEo-gaZTBiMCS1-14" value="1" style="whiteSpace=wrap;html=1;aspect=fixed;fillColor=#e1d5e7;strokeColor=#9673a6;" vertex="1" parent="1">
          <mxGeometry x="320" y="1430" width="20" height="20" as="geometry" />
        </mxCell>
        <mxCell id="uIYsc5EEo-gaZTBiMCS1-15" value="2" style="whiteSpace=wrap;html=1;aspect=fixed;fillColor=#e1d5e7;strokeColor=#9673a6;" vertex="1" parent="1">
          <mxGeometry x="320" y="1490" width="20" height="20" as="geometry" />
        </mxCell>
        <mxCell id="uIYsc5EEo-gaZTBiMCS1-16" value="3" style="whiteSpace=wrap;html=1;aspect=fixed;fillColor=#e1d5e7;strokeColor=#9673a6;" vertex="1" parent="1">
          <mxGeometry x="320" y="1560" width="20" height="20" as="geometry" />
        </mxCell>
        <mxCell id="uIYsc5EEo-gaZTBiMCS1-17" value="4" style="whiteSpace=wrap;html=1;aspect=fixed;fillColor=#e1d5e7;strokeColor=#9673a6;" vertex="1" parent="1">
          <mxGeometry x="320" y="1630" width="20" height="20" as="geometry" />
        </mxCell>
        <mxCell id="uIYsc5EEo-gaZTBiMCS1-18" value="5&lt;span style=&quot;color: rgba(0, 0, 0, 0); font-family: monospace; font-size: 0px; text-align: start; text-wrap: nowrap;&quot;&gt;%3CmxGraphModel%3E%3Croot%3E%3CmxCell%20id%3D%220%22%2F%3E%3CmxCell%20id%3D%221%22%20parent%3D%220%22%2F%3E%3CmxCell%20id%3D%222%22%20value%3D%221%22%20style%3D%22whiteSpace%3Dwrap%3Bhtml%3D1%3Baspect%3Dfixed%3BfillColor%3D%23e1d5e7%3BstrokeColor%3D%239673a6%3B%22%20vertex%3D%221%22%20parent%3D%221%22%3E%3CmxGeometry%20x%3D%22430%22%20y%3D%22840%22%20width%3D%2220%22%20height%3D%2220%22%20as%3D%22geometry%22%2F%3E%3C%2FmxCell%3E%3C%2Froot%3E%3C%2FmxGraphModel%3E&lt;/span&gt;&lt;span style=&quot;color: rgba(0, 0, 0, 0); font-family: monospace; font-size: 0px; text-align: start; text-wrap: nowrap;&quot;&gt;%3CmxGraphModel%3E%3Croot%3E%3CmxCell%20id%3D%220%22%2F%3E%3CmxCell%20id%3D%221%22%20parent%3D%220%22%2F%3E%3CmxCell%20id%3D%222%22%20value%3D%221%22%20style%3D%22whiteSpace%3Dwrap%3Bhtml%3D1%3Baspect%3Dfixed%3BfillColor%3D%23e1d5e7%3BstrokeColor%3D%239673a6%3B%22%20vertex%3D%221%22%20parent%3D%221%22%3E%3CmxGeometry%20x%3D%22430%22%20y%3D%22840%22%20width%3D%2220%22%20height%3D%2220%22%20as%3D%22geometry%22%2F%3E%3C%2FmxCell%3E%3C%2Froot%3E%3C%2FmxGraphModel%3E&lt;/span&gt;" style="whiteSpace=wrap;html=1;aspect=fixed;fillColor=#e1d5e7;strokeColor=#9673a6;" vertex="1" parent="1">
          <mxGeometry x="621" y="1810" width="20" height="20" as="geometry" />
        </mxCell>
        <mxCell id="uIYsc5EEo-gaZTBiMCS1-19" value="6" style="whiteSpace=wrap;html=1;aspect=fixed;fillColor=#e1d5e7;strokeColor=#9673a6;" vertex="1" parent="1">
          <mxGeometry x="850" y="1810" width="20" height="20" as="geometry" />
        </mxCell>
      </root>
    </mxGraphModel>
  </diagram>
</mxfile>
